<?xml version="1.0" encoding="UTF-8" standalone="no"?>
<!DOCTYPE svg PUBLIC "-//W3C//DTD SVG 1.1//EN"
 "http://www.w3.org/Graphics/SVG/1.1/DTD/svg11.dtd">
<!-- Generated by graphviz version 2.40.1 (20161225.0304)
 -->
<!-- Title: recipe Pages: 1 -->
<svg width="1124pt" height="337pt"
 viewBox="0.00 0.00 1123.50 337.00" xmlns="http://www.w3.org/2000/svg" xmlns:xlink="http://www.w3.org/1999/xlink">
<g id="graph0" class="graph" transform="scale(1 1) rotate(0) translate(4 333)">
<title>recipe</title>
<polygon fill="#ffffff" stroke="transparent" points="-4,4 -4,-333 1119.5,-333 1119.5,4 -4,4"/>
<!-- butter -->
<g id="node1" class="node">
<title>butter</title>
<polygon fill="none" stroke="#000000" points="0,-292.5 0,-328.5 160,-328.5 160,-292.5 0,-292.5"/>
<text text-anchor="middle" x="29" y="-306.8" font-family="Times,serif" font-size="14.00" fill="#000000">2 sticks</text>
<polyline fill="none" stroke="#000000" points="58,-292.5 58,-328.5 "/>
<text text-anchor="middle" x="109" y="-306.8" font-family="Times,serif" font-size="14.00" fill="#000000">Unsalted Butter</text>
</g>
<!-- saucepan -->
<g id="node2" class="node">
<title>saucepan</title>
<polygon fill="none" stroke="#000000" points="178,-292.5 178,-328.5 246,-328.5 246,-292.5 178,-292.5"/>
<text text-anchor="middle" x="212" y="-306.8" font-family="Times,serif" font-size="14.00" fill="#000000">Saucepan</text>
</g>
<!-- brown_butter -->
<g id="node3" class="node">
<title>brown_butter</title>
<polygon fill="none" stroke="#000000" points="100.5,-219.5 100.5,-255.5 191.5,-255.5 191.5,-219.5 100.5,-219.5"/>
<text text-anchor="middle" x="146" y="-233.8" font-family="Times,serif" font-size="14.00" fill="#000000">Brown Butter</text>
</g>
<!-- brown_butter&#45;&gt;butter -->
<g id="edge1" class="edge">
<title>brown_butter&#45;&gt;butter</title>
<path fill="none" stroke="#000000" d="M129.6854,-255.5449C121.6733,-264.4068 111.8804,-275.2384 103.1132,-284.9354"/>
<polygon fill="#000000" stroke="#000000" points="100.4659,-282.6446 96.3557,-292.4096 105.6584,-287.3391 100.4659,-282.6446"/>
</g>
<!-- brown_butter&#45;&gt;saucepan -->
<g id="edge2" class="edge">
<title>brown_butter&#45;&gt;saucepan</title>
<path fill="none" stroke="#000000" d="M162.3146,-255.5449C170.3267,-264.4068 180.1196,-275.2384 188.8868,-284.9354"/>
<polygon fill="#000000" stroke="#000000" points="186.3416,-287.3391 195.6443,-292.4096 191.5341,-282.6446 186.3416,-287.3391"/>
</g>
<!-- dark_brown_sugar -->
<g id="node4" class="node">
<title>dark_brown_sugar</title>
<polygon fill="none" stroke="#000000" points="210,-219.5 210,-255.5 376,-255.5 376,-219.5 210,-219.5"/>
<text text-anchor="middle" x="233.5" y="-233.8" font-family="Times,serif" font-size="14.00" fill="#000000">215 g</text>
<polyline fill="none" stroke="#000000" points="257,-219.5 257,-255.5 "/>
<text text-anchor="middle" x="316.5" y="-233.8" font-family="Times,serif" font-size="14.00" fill="#000000">Dark Brown Sugar</text>
</g>
<!-- granulated_sugar -->
<g id="node5" class="node">
<title>granulated_sugar</title>
<polygon fill="none" stroke="#000000" points="394.5,-219.5 394.5,-255.5 547.5,-255.5 547.5,-219.5 394.5,-219.5"/>
<text text-anchor="middle" x="415" y="-233.8" font-family="Times,serif" font-size="14.00" fill="#000000">73 g</text>
<polyline fill="none" stroke="#000000" points="435.5,-219.5 435.5,-255.5 "/>
<text text-anchor="middle" x="491.5" y="-233.8" font-family="Times,serif" font-size="14.00" fill="#000000">Granulated Sugar</text>
</g>
<!-- sugar_and_butter -->
<g id="node6" class="node">
<title>sugar_and_butter</title>
<polygon fill="none" stroke="#000000" points="215.5,-146.5 215.5,-182.5 370.5,-182.5 370.5,-146.5 215.5,-146.5"/>
<text text-anchor="middle" x="293" y="-160.8" font-family="Times,serif" font-size="14.00" fill="#000000">Combine in mixing bowl</text>
</g>
<!-- sugar_and_butter&#45;&gt;brown_butter -->
<g id="edge5" class="edge">
<title>sugar_and_butter&#45;&gt;brown_butter</title>
<path fill="none" stroke="#000000" d="M256.6629,-182.5449C236.9625,-192.3281 212.4284,-204.5117 191.4705,-214.9194"/>
<polygon fill="#000000" stroke="#000000" points="189.8282,-211.8271 182.4285,-219.4096 192.9417,-218.0966 189.8282,-211.8271"/>
</g>
<!-- sugar_and_butter&#45;&gt;dark_brown_sugar -->
<g id="edge3" class="edge">
<title>sugar_and_butter&#45;&gt;dark_brown_sugar</title>
<path fill="none" stroke="#000000" d="M293,-182.5449C293,-190.6172 293,-200.3236 293,-209.3183"/>
<polygon fill="#000000" stroke="#000000" points="289.5001,-209.4096 293,-219.4096 296.5001,-209.4097 289.5001,-209.4096"/>
</g>
<!-- sugar_and_butter&#45;&gt;granulated_sugar -->
<g id="edge4" class="edge">
<title>sugar_and_butter&#45;&gt;granulated_sugar</title>
<path fill="none" stroke="#000000" d="M337,-182.5449C361.2828,-192.5036 391.6305,-204.9496 417.3018,-215.4777"/>
<polygon fill="#000000" stroke="#000000" points="416.309,-218.8534 426.8893,-219.4096 418.9652,-212.3769 416.309,-218.8534"/>
</g>
<!-- eggs -->
<g id="node7" class="node">
<title>eggs</title>
<polygon fill="none" stroke="#000000" points="388.5,-146.5 388.5,-182.5 477.5,-182.5 477.5,-146.5 388.5,-146.5"/>
<text text-anchor="middle" x="433" y="-160.8" font-family="Times,serif" font-size="14.00" fill="#000000">2 Large Eggs</text>
</g>
<!-- vanilla -->
<g id="node8" class="node">
<title>vanilla</title>
<polygon fill="none" stroke="#000000" points="496,-146.5 496,-182.5 638,-182.5 638,-146.5 496,-146.5"/>
<text text-anchor="middle" x="517.5" y="-160.8" font-family="Times,serif" font-size="14.00" fill="#000000">2 tsp</text>
<polyline fill="none" stroke="#000000" points="539,-146.5 539,-182.5 "/>
<text text-anchor="middle" x="588.5" y="-160.8" font-family="Times,serif" font-size="14.00" fill="#000000">Vanilla Extract</text>
</g>
<!-- wet_ingredients -->
<g id="node9" class="node">
<title>wet_ingredients</title>
<polygon fill="none" stroke="#000000" points="417.5,-73.5 417.5,-109.5 582.5,-109.5 582.5,-73.5 417.5,-73.5"/>
<text text-anchor="middle" x="500" y="-87.8" font-family="Times,serif" font-size="14.00" fill="#000000">Mix until lighter and fluffy</text>
</g>
<!-- wet_ingredients&#45;&gt;sugar_and_butter -->
<g id="edge8" class="edge">
<title>wet_ingredients&#45;&gt;sugar_and_butter</title>
<path fill="none" stroke="#000000" d="M448.8314,-109.5449C420.0949,-119.6791 384.0545,-132.389 353.8737,-143.0325"/>
<polygon fill="#000000" stroke="#000000" points="352.564,-139.783 344.2973,-146.4096 354.8921,-146.3845 352.564,-139.783"/>
</g>
<!-- wet_ingredients&#45;&gt;eggs -->
<g id="edge6" class="edge">
<title>wet_ingredients&#45;&gt;eggs</title>
<path fill="none" stroke="#000000" d="M483.4382,-109.5449C475.3047,-118.4068 465.3634,-129.2384 456.4634,-138.9354"/>
<polygon fill="#000000" stroke="#000000" points="453.7867,-136.6756 449.6035,-146.4096 458.9439,-141.4089 453.7867,-136.6756"/>
</g>
<!-- wet_ingredients&#45;&gt;vanilla -->
<g id="edge7" class="edge">
<title>wet_ingredients&#45;&gt;vanilla</title>
<path fill="none" stroke="#000000" d="M516.5618,-109.5449C524.6953,-118.4068 534.6366,-129.2384 543.5366,-138.9354"/>
<polygon fill="#000000" stroke="#000000" points="541.0561,-141.4089 550.3965,-146.4096 546.2133,-136.6756 541.0561,-141.4089"/>
</g>
<!-- ap_flour -->
<g id="node10" class="node">
<title>ap_flour</title>
<polygon fill="none" stroke="#000000" points="656.5,-146.5 656.5,-182.5 817.5,-182.5 817.5,-146.5 656.5,-146.5"/>
<text text-anchor="middle" x="680" y="-160.8" font-family="Times,serif" font-size="14.00" fill="#000000">250 g</text>
<polyline fill="none" stroke="#000000" points="703.5,-146.5 703.5,-182.5 "/>
<text text-anchor="middle" x="760.5" y="-160.8" font-family="Times,serif" font-size="14.00" fill="#000000">All Purpose Flour</text>
</g>
<!-- baking_soda -->
<g id="node11" class="node">
<title>baking_soda</title>
<polygon fill="none" stroke="#000000" points="835.5,-146.5 835.5,-182.5 964.5,-182.5 964.5,-146.5 835.5,-146.5"/>
<text text-anchor="middle" x="857" y="-160.8" font-family="Times,serif" font-size="14.00" fill="#000000">1 tsp</text>
<polyline fill="none" stroke="#000000" points="878.5,-146.5 878.5,-182.5 "/>
<text text-anchor="middle" x="921.5" y="-160.8" font-family="Times,serif" font-size="14.00" fill="#000000">Baking Soda</text>
</g>
<!-- kosher_salt -->
<g id="node12" class="node">
<title>kosher_salt</title>
<polygon fill="none" stroke="#000000" points="982.5,-146.5 982.5,-182.5 1115.5,-182.5 1115.5,-146.5 982.5,-146.5"/>
<text text-anchor="middle" x="1009" y="-160.8" font-family="Times,serif" font-size="14.00" fill="#000000">3/4 tsp</text>
<polyline fill="none" stroke="#000000" points="1035.5,-146.5 1035.5,-182.5 "/>
<text text-anchor="middle" x="1075.5" y="-160.8" font-family="Times,serif" font-size="14.00" fill="#000000">Kosher Salt</text>
</g>
<!-- dry_ingredients -->
<g id="node13" class="node">
<title>dry_ingredients</title>
<polygon fill="none" stroke="#000000" points="767.5,-73.5 767.5,-109.5 868.5,-109.5 868.5,-73.5 767.5,-73.5"/>
<text text-anchor="middle" x="818" y="-87.8" font-family="Times,serif" font-size="14.00" fill="#000000">Whisk together</text>
</g>
<!-- dry_ingredients&#45;&gt;ap_flour -->
<g id="edge9" class="edge">
<title>dry_ingredients&#45;&gt;ap_flour</title>
<path fill="none" stroke="#000000" d="M797.9775,-109.5449C787.9498,-118.5823 775.6491,-129.6681 764.7286,-139.5101"/>
<polygon fill="#000000" stroke="#000000" points="762.1581,-137.115 757.0729,-146.4096 766.8444,-142.3148 762.1581,-137.115"/>
</g>
<!-- dry_ingredients&#45;&gt;baking_soda -->
<g id="edge10" class="edge">
<title>dry_ingredients&#45;&gt;baking_soda</title>
<path fill="none" stroke="#000000" d="M838.2697,-109.5449C848.4212,-118.5823 860.8738,-129.6681 871.9291,-139.5101"/>
<polygon fill="#000000" stroke="#000000" points="869.883,-142.3745 879.6793,-146.4096 874.5375,-137.1461 869.883,-142.3745"/>
</g>
<!-- dry_ingredients&#45;&gt;kosher_salt -->
<g id="edge11" class="edge">
<title>dry_ingredients&#45;&gt;kosher_salt</title>
<path fill="none" stroke="#000000" d="M868.6939,-107.5202C901.9566,-118.0317 945.8216,-131.8938 981.9571,-143.3133"/>
<polygon fill="#000000" stroke="#000000" points="981.3391,-146.7885 991.929,-146.4646 983.4484,-140.1139 981.3391,-146.7885"/>
</g>
<!-- dough -->
<g id="node14" class="node">
<title>dough</title>
<polygon fill="none" stroke="#000000" points="532.5,-.5 532.5,-36.5 637.5,-36.5 637.5,-.5 532.5,-.5"/>
<text text-anchor="middle" x="585" y="-14.8" font-family="Times,serif" font-size="14.00" fill="#000000">Mix to combine</text>
</g>
<!-- dough&#45;&gt;wet_ingredients -->
<g id="edge13" class="edge">
<title>dough&#45;&gt;wet_ingredients</title>
<path fill="none" stroke="#000000" d="M563.9888,-36.5449C553.3636,-45.6701 540.3068,-56.8835 528.7645,-66.7964"/>
<polygon fill="#000000" stroke="#000000" points="526.3701,-64.2391 521.0641,-73.4096 530.9308,-69.5495 526.3701,-64.2391"/>
</g>
<!-- dough&#45;&gt;dry_ingredients -->
<g id="edge12" class="edge">
<title>dough&#45;&gt;dry_ingredients</title>
<path fill="none" stroke="#000000" d="M637.5803,-34.9736C673.188,-46.1297 720.3345,-60.9009 757.5021,-72.5457"/>
<polygon fill="#000000" stroke="#000000" points="756.6228,-75.9379 767.2118,-75.5878 758.7156,-69.2581 756.6228,-75.9379"/>
</g>
<!-- cookies -->
<g id="node15" class="node">
<title>cookies</title>
<polygon fill="none" stroke="#000000" points="655.5,-.5 655.5,-36.5 922.5,-36.5 922.5,-.5 655.5,-.5"/>
<text text-anchor="middle" x="789" y="-14.8" font-family="Times,serif" font-size="14.00" fill="#000000">Brown Butter Toffee Chocolate Chip Cookies</text>
</g>
</g>
</svg>
