<?xml version="1.0" encoding="UTF-8" standalone="no"?>
<!DOCTYPE svg PUBLIC "-//W3C//DTD SVG 1.1//EN"
 "http://www.w3.org/Graphics/SVG/1.1/DTD/svg11.dtd">
<!-- Generated by graphviz version 2.40.1 (20161225.0304)
 -->
<!-- Title: recipe Pages: 1 -->
<svg width="1205pt" height="191pt"
 viewBox="0.00 0.00 1204.50 191.00" xmlns="http://www.w3.org/2000/svg" xmlns:xlink="http://www.w3.org/1999/xlink">
<g id="graph0" class="graph" transform="scale(1 1) rotate(0) translate(4 187)">
<title>recipe</title>
<polygon fill="#ffffff" stroke="transparent" points="-4,4 -4,-187 1200.5,-187 1200.5,4 -4,4"/>
<!-- butter -->
<g id="node1" class="node">
<title>butter</title>
<polygon fill="none" stroke="#000000" points="0,-146.5 0,-182.5 160,-182.5 160,-146.5 0,-146.5"/>
<text text-anchor="middle" x="29" y="-160.8" font-family="Times,serif" font-size="14.00" fill="#000000">2 sticks</text>
<polyline fill="none" stroke="#000000" points="58,-146.5 58,-182.5 "/>
<text text-anchor="middle" x="109" y="-160.8" font-family="Times,serif" font-size="14.00" fill="#000000">Unsalted Butter</text>
</g>
<!-- saucepan -->
<g id="node2" class="node">
<title>saucepan</title>
<polygon fill="none" stroke="#000000" points="178,-146.5 178,-182.5 246,-182.5 246,-146.5 178,-146.5"/>
<text text-anchor="middle" x="212" y="-160.8" font-family="Times,serif" font-size="14.00" fill="#000000">Saucepan</text>
</g>
<!-- brown_butter -->
<g id="node3" class="node">
<title>brown_butter</title>
<polygon fill="none" stroke="#000000" points="100.5,-73.5 100.5,-109.5 191.5,-109.5 191.5,-73.5 100.5,-73.5"/>
<text text-anchor="middle" x="146" y="-87.8" font-family="Times,serif" font-size="14.00" fill="#000000">Brown Butter</text>
</g>
<!-- brown_butter&#45;&gt;butter -->
<g id="edge1" class="edge">
<title>brown_butter&#45;&gt;butter</title>
<path fill="none" stroke="#000000" d="M129.6854,-109.5449C121.6733,-118.4068 111.8804,-129.2384 103.1132,-138.9354"/>
<polygon fill="#000000" stroke="#000000" points="100.4659,-136.6446 96.3557,-146.4096 105.6584,-141.3391 100.4659,-136.6446"/>
</g>
<!-- brown_butter&#45;&gt;saucepan -->
<g id="edge2" class="edge">
<title>brown_butter&#45;&gt;saucepan</title>
<path fill="none" stroke="#000000" d="M162.3146,-109.5449C170.3267,-118.4068 180.1196,-129.2384 188.8868,-138.9354"/>
<polygon fill="#000000" stroke="#000000" points="186.3416,-141.3391 195.6443,-146.4096 191.5341,-136.6446 186.3416,-141.3391"/>
</g>
<!-- dark_brown_sugar -->
<g id="node4" class="node">
<title>dark_brown_sugar</title>
<polygon fill="none" stroke="#000000" points="210,-73.5 210,-109.5 376,-109.5 376,-73.5 210,-73.5"/>
<text text-anchor="middle" x="233.5" y="-87.8" font-family="Times,serif" font-size="14.00" fill="#000000">215 g</text>
<polyline fill="none" stroke="#000000" points="257,-73.5 257,-109.5 "/>
<text text-anchor="middle" x="316.5" y="-87.8" font-family="Times,serif" font-size="14.00" fill="#000000">Dark Brown Sugar</text>
</g>
<!-- granulated_sugar -->
<g id="node5" class="node">
<title>granulated_sugar</title>
<polygon fill="none" stroke="#000000" points="394.5,-73.5 394.5,-109.5 547.5,-109.5 547.5,-73.5 394.5,-73.5"/>
<text text-anchor="middle" x="415" y="-87.8" font-family="Times,serif" font-size="14.00" fill="#000000">73 g</text>
<polyline fill="none" stroke="#000000" points="435.5,-73.5 435.5,-109.5 "/>
<text text-anchor="middle" x="491.5" y="-87.8" font-family="Times,serif" font-size="14.00" fill="#000000">Granulated Sugar</text>
</g>
<!-- sugar_and_butter -->
<g id="node6" class="node">
<title>sugar_and_butter</title>
<polygon fill="none" stroke="#000000" points="215.5,-.5 215.5,-36.5 370.5,-36.5 370.5,-.5 215.5,-.5"/>
<text text-anchor="middle" x="293" y="-14.8" font-family="Times,serif" font-size="14.00" fill="#000000">Combine in mixing bowl</text>
</g>
<!-- sugar_and_butter&#45;&gt;brown_butter -->
<g id="edge5" class="edge">
<title>sugar_and_butter&#45;&gt;brown_butter</title>
<path fill="none" stroke="#000000" d="M256.6629,-36.5449C236.9625,-46.3281 212.4284,-58.5117 191.4705,-68.9194"/>
<polygon fill="#000000" stroke="#000000" points="189.8282,-65.8271 182.4285,-73.4096 192.9417,-72.0966 189.8282,-65.8271"/>
</g>
<!-- sugar_and_butter&#45;&gt;dark_brown_sugar -->
<g id="edge3" class="edge">
<title>sugar_and_butter&#45;&gt;dark_brown_sugar</title>
<path fill="none" stroke="#000000" d="M293,-36.5449C293,-44.6172 293,-54.3236 293,-63.3183"/>
<polygon fill="#000000" stroke="#000000" points="289.5001,-63.4096 293,-73.4096 296.5001,-63.4097 289.5001,-63.4096"/>
</g>
<!-- sugar_and_butter&#45;&gt;granulated_sugar -->
<g id="edge4" class="edge">
<title>sugar_and_butter&#45;&gt;granulated_sugar</title>
<path fill="none" stroke="#000000" d="M337,-36.5449C361.2828,-46.5036 391.6305,-58.9496 417.3018,-69.4777"/>
<polygon fill="#000000" stroke="#000000" points="416.309,-72.8534 426.8893,-73.4096 418.9652,-66.3769 416.309,-72.8534"/>
</g>
<!-- eggs -->
<g id="node7" class="node">
<title>eggs</title>
<polygon fill="none" stroke="#000000" points="469.5,-146.5 469.5,-182.5 558.5,-182.5 558.5,-146.5 469.5,-146.5"/>
<text text-anchor="middle" x="514" y="-160.8" font-family="Times,serif" font-size="14.00" fill="#000000">2 Large Eggs</text>
</g>
<!-- vanilla -->
<g id="node8" class="node">
<title>vanilla</title>
<polygon fill="none" stroke="#000000" points="577,-146.5 577,-182.5 719,-182.5 719,-146.5 577,-146.5"/>
<text text-anchor="middle" x="598.5" y="-160.8" font-family="Times,serif" font-size="14.00" fill="#000000">2 tsp</text>
<polyline fill="none" stroke="#000000" points="620,-146.5 620,-182.5 "/>
<text text-anchor="middle" x="669.5" y="-160.8" font-family="Times,serif" font-size="14.00" fill="#000000">Vanilla Extract</text>
</g>
<!-- wet_ingredients -->
<g id="node9" class="node">
<title>wet_ingredients</title>
<polygon fill="none" stroke="#000000" points="565.5,-73.5 565.5,-109.5 730.5,-109.5 730.5,-73.5 565.5,-73.5"/>
<text text-anchor="middle" x="648" y="-87.8" font-family="Times,serif" font-size="14.00" fill="#000000">Mix until lighter and fluffy</text>
</g>
<!-- wet_ingredients&#45;&gt;eggs -->
<g id="edge6" class="edge">
<title>wet_ingredients&#45;&gt;eggs</title>
<path fill="none" stroke="#000000" d="M614.8764,-109.5449C597.1598,-119.1965 575.1547,-131.1844 556.2221,-141.4984"/>
<polygon fill="#000000" stroke="#000000" points="554.314,-138.5521 547.207,-146.4096 557.6628,-144.6992 554.314,-138.5521"/>
</g>
<!-- wet_ingredients&#45;&gt;vanilla -->
<g id="edge7" class="edge">
<title>wet_ingredients&#45;&gt;vanilla</title>
<path fill="none" stroke="#000000" d="M648,-109.5449C648,-117.6172 648,-127.3236 648,-136.3183"/>
<polygon fill="#000000" stroke="#000000" points="644.5001,-136.4096 648,-146.4096 651.5001,-136.4097 644.5001,-136.4096"/>
</g>
<!-- ap_flour -->
<g id="node10" class="node">
<title>ap_flour</title>
<polygon fill="none" stroke="#000000" points="737.5,-146.5 737.5,-182.5 898.5,-182.5 898.5,-146.5 737.5,-146.5"/>
<text text-anchor="middle" x="761" y="-160.8" font-family="Times,serif" font-size="14.00" fill="#000000">250 g</text>
<polyline fill="none" stroke="#000000" points="784.5,-146.5 784.5,-182.5 "/>
<text text-anchor="middle" x="841.5" y="-160.8" font-family="Times,serif" font-size="14.00" fill="#000000">All Purpose Flour</text>
</g>
<!-- baking_soda -->
<g id="node11" class="node">
<title>baking_soda</title>
<polygon fill="none" stroke="#000000" points="916.5,-146.5 916.5,-182.5 1045.5,-182.5 1045.5,-146.5 916.5,-146.5"/>
<text text-anchor="middle" x="938" y="-160.8" font-family="Times,serif" font-size="14.00" fill="#000000">1 tsp</text>
<polyline fill="none" stroke="#000000" points="959.5,-146.5 959.5,-182.5 "/>
<text text-anchor="middle" x="1002.5" y="-160.8" font-family="Times,serif" font-size="14.00" fill="#000000">Baking Soda</text>
</g>
<!-- kosher_salt -->
<g id="node12" class="node">
<title>kosher_salt</title>
<polygon fill="none" stroke="#000000" points="1063.5,-146.5 1063.5,-182.5 1196.5,-182.5 1196.5,-146.5 1063.5,-146.5"/>
<text text-anchor="middle" x="1090" y="-160.8" font-family="Times,serif" font-size="14.00" fill="#000000">3/4 tsp</text>
<polyline fill="none" stroke="#000000" points="1116.5,-146.5 1116.5,-182.5 "/>
<text text-anchor="middle" x="1156.5" y="-160.8" font-family="Times,serif" font-size="14.00" fill="#000000">Kosher Salt</text>
</g>
<!-- dry_ingredients -->
<g id="node13" class="node">
<title>dry_ingredients</title>
<polygon fill="none" stroke="#000000" points="848.5,-73.5 848.5,-109.5 949.5,-109.5 949.5,-73.5 848.5,-73.5"/>
<text text-anchor="middle" x="899" y="-87.8" font-family="Times,serif" font-size="14.00" fill="#000000">Whisk together</text>
</g>
<!-- dry_ingredients&#45;&gt;ap_flour -->
<g id="edge8" class="edge">
<title>dry_ingredients&#45;&gt;ap_flour</title>
<path fill="none" stroke="#000000" d="M878.9775,-109.5449C868.9498,-118.5823 856.6491,-129.6681 845.7286,-139.5101"/>
<polygon fill="#000000" stroke="#000000" points="843.1581,-137.115 838.0729,-146.4096 847.8444,-142.3148 843.1581,-137.115"/>
</g>
<!-- dry_ingredients&#45;&gt;baking_soda -->
<g id="edge9" class="edge">
<title>dry_ingredients&#45;&gt;baking_soda</title>
<path fill="none" stroke="#000000" d="M919.2697,-109.5449C929.4212,-118.5823 941.8738,-129.6681 952.9291,-139.5101"/>
<polygon fill="#000000" stroke="#000000" points="950.883,-142.3745 960.6793,-146.4096 955.5375,-137.1461 950.883,-142.3745"/>
</g>
<!-- dry_ingredients&#45;&gt;kosher_salt -->
<g id="edge10" class="edge">
<title>dry_ingredients&#45;&gt;kosher_salt</title>
<path fill="none" stroke="#000000" d="M949.6939,-107.5202C982.9566,-118.0317 1026.8216,-131.8938 1062.9571,-143.3133"/>
<polygon fill="#000000" stroke="#000000" points="1062.3391,-146.7885 1072.929,-146.4646 1064.4484,-140.1139 1062.3391,-146.7885"/>
</g>
<!-- dough -->
<g id="node14" class="node">
<title>dough</title>
<polygon fill="none" stroke="#000000" points="720.5,-.5 720.5,-36.5 825.5,-36.5 825.5,-.5 720.5,-.5"/>
<text text-anchor="middle" x="773" y="-14.8" font-family="Times,serif" font-size="14.00" fill="#000000">Mix to combine</text>
</g>
<!-- dough&#45;&gt;wet_ingredients -->
<g id="edge12" class="edge">
<title>dough&#45;&gt;wet_ingredients</title>
<path fill="none" stroke="#000000" d="M742.1011,-36.5449C725.7247,-46.1088 705.4202,-57.9666 687.8687,-68.2167"/>
<polygon fill="#000000" stroke="#000000" points="685.8469,-65.3442 678.9766,-73.4096 689.377,-71.3889 685.8469,-65.3442"/>
</g>
<!-- dough&#45;&gt;dry_ingredients -->
<g id="edge11" class="edge">
<title>dough&#45;&gt;dry_ingredients</title>
<path fill="none" stroke="#000000" d="M804.1461,-36.5449C820.6535,-46.1088 841.1204,-57.9666 858.8124,-68.2167"/>
<polygon fill="#000000" stroke="#000000" points="857.3682,-71.425 867.7755,-73.4096 860.8774,-65.3681 857.3682,-71.425"/>
</g>
<!-- cookies -->
<g id="node15" class="node">
<title>cookies</title>
<polygon fill="none" stroke="#000000" points="843.5,-.5 843.5,-36.5 1110.5,-36.5 1110.5,-.5 843.5,-.5"/>
<text text-anchor="middle" x="977" y="-14.8" font-family="Times,serif" font-size="14.00" fill="#000000">Brown Butter Toffee Chocolate Chip Cookies</text>
</g>
</g>
</svg>
