<?xml version="1.0" encoding="UTF-8" standalone="no"?>
<!DOCTYPE svg PUBLIC "-//W3C//DTD SVG 1.1//EN"
 "http://www.w3.org/Graphics/SVG/1.1/DTD/svg11.dtd">
<!-- Generated by graphviz version 2.40.1 (20161225.0304)
 -->
<!-- Title: recipe Pages: 1 -->
<svg width="1243pt" height="188pt"
 viewBox="0.00 0.00 1243.43 188.00" xmlns="http://www.w3.org/2000/svg" xmlns:xlink="http://www.w3.org/1999/xlink">
<g id="graph0" class="graph" transform="scale(1 1) rotate(0) translate(4 184)">
<title>recipe</title>
<polygon fill="#ffffff" stroke="transparent" points="-4,4 -4,-184 1239.4262,-184 1239.4262,4 -4,4"/>
<!-- butter -->
<g id="node1" class="node">
<title>butter</title>
<ellipse fill="none" stroke="#000000" cx="94.8916" cy="-162" rx="94.7833" ry="18"/>
<text text-anchor="middle" x="94.8916" y="-158.3" font-family="Times,serif" font-size="14.00" fill="#000000">2 sticks|Unsalted Butter</text>
</g>
<!-- saucepan -->
<g id="node2" class="node">
<title>saucepan</title>
<ellipse fill="none" stroke="#000000" cx="251.8916" cy="-162" rx="44.393" ry="18"/>
<text text-anchor="middle" x="251.8916" y="-158.3" font-family="Times,serif" font-size="14.00" fill="#000000">Saucepan</text>
</g>
<!-- brown_butter -->
<g id="node3" class="node">
<title>brown_butter</title>
<ellipse fill="none" stroke="#000000" cx="172.8916" cy="-90" rx="59.2899" ry="18"/>
<text text-anchor="middle" x="172.8916" y="-86.3" font-family="Times,serif" font-size="14.00" fill="#000000">Brown Butter</text>
</g>
<!-- brown_butter&#45;&gt;butter -->
<g id="edge1" class="edge">
<title>brown_butter&#45;&gt;butter</title>
<path fill="none" stroke="#000000" d="M154.01,-107.4292C144.2868,-116.4045 132.2661,-127.5004 121.6084,-137.3383"/>
<polygon fill="#000000" stroke="#000000" points="119.1153,-134.8765 114.1412,-144.2311 123.8633,-140.0201 119.1153,-134.8765"/>
</g>
<!-- brown_butter&#45;&gt;saucepan -->
<g id="edge2" class="edge">
<title>brown_butter&#45;&gt;saucepan</title>
<path fill="none" stroke="#000000" d="M192.0153,-107.4292C202.3298,-116.8297 215.1969,-128.5567 226.357,-138.7279"/>
<polygon fill="#000000" stroke="#000000" points="224.0095,-141.324 233.7581,-145.4733 228.7248,-136.1504 224.0095,-141.324"/>
</g>
<!-- dark_brown_sugar -->
<g id="node4" class="node">
<title>dark_brown_sugar</title>
<ellipse fill="none" stroke="#000000" cx="349.8916" cy="-90" rx="99.3824" ry="18"/>
<text text-anchor="middle" x="349.8916" y="-86.3" font-family="Times,serif" font-size="14.00" fill="#000000">215 g|Dark Brown Sugar</text>
</g>
<!-- granulated_sugar -->
<g id="node5" class="node">
<title>granulated_sugar</title>
<ellipse fill="none" stroke="#000000" cx="557.8916" cy="-90" rx="90.1842" ry="18"/>
<text text-anchor="middle" x="557.8916" y="-86.3" font-family="Times,serif" font-size="14.00" fill="#000000">73 g|Granulated Sugar</text>
</g>
<!-- sugar_and_butter -->
<g id="node6" class="node">
<title>sugar_and_butter</title>
<ellipse fill="none" stroke="#000000" cx="349.8916" cy="-18" rx="100.9827" ry="18"/>
<text text-anchor="middle" x="349.8916" y="-14.3" font-family="Times,serif" font-size="14.00" fill="#000000">Combine in mixing bowl</text>
</g>
<!-- sugar_and_butter&#45;&gt;brown_butter -->
<g id="edge5" class="edge">
<title>sugar_and_butter&#45;&gt;brown_butter</title>
<path fill="none" stroke="#000000" d="M309.2842,-34.5183C282.0771,-45.5855 246.2284,-60.1681 218.1115,-71.6054"/>
<polygon fill="#000000" stroke="#000000" points="216.4597,-68.4988 208.5155,-75.5089 219.0973,-74.9829 216.4597,-68.4988"/>
</g>
<!-- sugar_and_butter&#45;&gt;dark_brown_sugar -->
<g id="edge3" class="edge">
<title>sugar_and_butter&#45;&gt;dark_brown_sugar</title>
<path fill="none" stroke="#000000" d="M349.8916,-36.1686C349.8916,-43.869 349.8916,-53.0257 349.8916,-61.5834"/>
<polygon fill="#000000" stroke="#000000" points="346.3917,-61.5867 349.8916,-71.5867 353.3917,-61.5868 346.3917,-61.5867"/>
</g>
<!-- sugar_and_butter&#45;&gt;granulated_sugar -->
<g id="edge4" class="edge">
<title>sugar_and_butter&#45;&gt;granulated_sugar</title>
<path fill="none" stroke="#000000" d="M396.3119,-34.0686C427.9144,-45.0079 469.8748,-59.5327 503.1151,-71.0389"/>
<polygon fill="#000000" stroke="#000000" points="502.0908,-74.388 512.6856,-74.3518 504.3806,-67.7731 502.0908,-74.388"/>
</g>
<!-- eggs -->
<g id="node7" class="node">
<title>eggs</title>
<ellipse fill="none" stroke="#000000" cx="723.8916" cy="-90" rx="57.6901" ry="18"/>
<text text-anchor="middle" x="723.8916" y="-86.3" font-family="Times,serif" font-size="14.00" fill="#000000">2 Large Eggs</text>
</g>
<!-- vanilla -->
<g id="node8" class="node">
<title>vanilla</title>
<ellipse fill="none" stroke="#000000" cx="882.8916" cy="-90" rx="83.3857" ry="18"/>
<text text-anchor="middle" x="882.8916" y="-86.3" font-family="Times,serif" font-size="14.00" fill="#000000">2 tsp|Vanilla Extract</text>
</g>
<!-- wet_ingredients -->
<g id="node9" class="node">
<title>wet_ingredients</title>
<ellipse fill="none" stroke="#000000" cx="802.8916" cy="-18" rx="67.6881" ry="18"/>
<text text-anchor="middle" x="802.8916" y="-14.3" font-family="Times,serif" font-size="14.00" fill="#000000">Wet Ingredients</text>
</g>
<!-- wet_ingredients&#45;&gt;eggs -->
<g id="edge6" class="edge">
<title>wet_ingredients&#45;&gt;eggs</title>
<path fill="none" stroke="#000000" d="M783.7679,-35.4292C773.773,-44.5384 761.3813,-55.8321 750.4686,-65.7779"/>
<polygon fill="#000000" stroke="#000000" points="747.8725,-63.4084 742.8392,-72.7313 752.5877,-68.5821 747.8725,-63.4084"/>
</g>
<!-- wet_ingredients&#45;&gt;vanilla -->
<g id="edge7" class="edge">
<title>wet_ingredients&#45;&gt;vanilla</title>
<path fill="none" stroke="#000000" d="M822.2573,-35.4292C832.3043,-44.4714 844.7429,-55.6662 855.7342,-65.5583"/>
<polygon fill="#000000" stroke="#000000" points="853.6525,-68.3936 863.4269,-72.4818 858.3353,-63.1905 853.6525,-68.3936"/>
</g>
<!-- cookies -->
<g id="node10" class="node">
<title>cookies</title>
<ellipse fill="none" stroke="#000000" cx="1061.8916" cy="-18" rx="173.5692" ry="18"/>
<text text-anchor="middle" x="1061.8916" y="-14.3" font-family="Times,serif" font-size="14.00" fill="#000000">Brown Butter Toffee Chocolate Chip Cookies</text>
</g>
</g>
</svg>
