<?xml version="1.0" encoding="UTF-8" standalone="no"?>
<!DOCTYPE svg PUBLIC "-//W3C//DTD SVG 1.1//EN"
 "http://www.w3.org/Graphics/SVG/1.1/DTD/svg11.dtd">
<!-- Generated by graphviz version 2.40.1 (20161225.0304)
 -->
<!-- Title: recipe Pages: 1 -->
<svg width="1023pt" height="191pt"
 viewBox="0.00 0.00 1022.50 191.00" xmlns="http://www.w3.org/2000/svg" xmlns:xlink="http://www.w3.org/1999/xlink">
<g id="graph0" class="graph" transform="scale(1 1) rotate(0) translate(4 187)">
<title>recipe</title>
<polygon fill="#ffffff" stroke="transparent" points="-4,4 -4,-187 1018.5,-187 1018.5,4 -4,4"/>
<!-- butter -->
<g id="node1" class="node">
<title>butter</title>
<polygon fill="none" stroke="#000000" points="0,-146.5 0,-182.5 160,-182.5 160,-146.5 0,-146.5"/>
<text text-anchor="middle" x="29" y="-160.8" font-family="Times,serif" font-size="14.00" fill="#000000">2 sticks</text>
<polyline fill="none" stroke="#000000" points="58,-146.5 58,-182.5 "/>
<text text-anchor="middle" x="109" y="-160.8" font-family="Times,serif" font-size="14.00" fill="#000000">Unsalted Butter</text>
</g>
<!-- saucepan -->
<g id="node2" class="node">
<title>saucepan</title>
<polygon fill="none" stroke="#000000" points="178,-146.5 178,-182.5 246,-182.5 246,-146.5 178,-146.5"/>
<text text-anchor="middle" x="212" y="-160.8" font-family="Times,serif" font-size="14.00" fill="#000000">Saucepan</text>
</g>
<!-- brown_butter -->
<g id="node3" class="node">
<title>brown_butter</title>
<polygon fill="none" stroke="#000000" points="100.5,-73.5 100.5,-109.5 191.5,-109.5 191.5,-73.5 100.5,-73.5"/>
<text text-anchor="middle" x="146" y="-87.8" font-family="Times,serif" font-size="14.00" fill="#000000">Brown Butter</text>
</g>
<!-- brown_butter&#45;&gt;butter -->
<g id="edge1" class="edge">
<title>brown_butter&#45;&gt;butter</title>
<path fill="none" stroke="#000000" d="M129.6854,-109.5449C121.6733,-118.4068 111.8804,-129.2384 103.1132,-138.9354"/>
<polygon fill="#000000" stroke="#000000" points="100.4659,-136.6446 96.3557,-146.4096 105.6584,-141.3391 100.4659,-136.6446"/>
</g>
<!-- brown_butter&#45;&gt;saucepan -->
<g id="edge2" class="edge">
<title>brown_butter&#45;&gt;saucepan</title>
<path fill="none" stroke="#000000" d="M162.3146,-109.5449C170.3267,-118.4068 180.1196,-129.2384 188.8868,-138.9354"/>
<polygon fill="#000000" stroke="#000000" points="186.3416,-141.3391 195.6443,-146.4096 191.5341,-136.6446 186.3416,-141.3391"/>
</g>
<!-- dark_brown_sugar -->
<g id="node4" class="node">
<title>dark_brown_sugar</title>
<polygon fill="none" stroke="#000000" points="210,-73.5 210,-109.5 376,-109.5 376,-73.5 210,-73.5"/>
<text text-anchor="middle" x="233.5" y="-87.8" font-family="Times,serif" font-size="14.00" fill="#000000">215 g</text>
<polyline fill="none" stroke="#000000" points="257,-73.5 257,-109.5 "/>
<text text-anchor="middle" x="316.5" y="-87.8" font-family="Times,serif" font-size="14.00" fill="#000000">Dark Brown Sugar</text>
</g>
<!-- granulated_sugar -->
<g id="node5" class="node">
<title>granulated_sugar</title>
<polygon fill="none" stroke="#000000" points="394.5,-73.5 394.5,-109.5 547.5,-109.5 547.5,-73.5 394.5,-73.5"/>
<text text-anchor="middle" x="415" y="-87.8" font-family="Times,serif" font-size="14.00" fill="#000000">73 g</text>
<polyline fill="none" stroke="#000000" points="435.5,-73.5 435.5,-109.5 "/>
<text text-anchor="middle" x="491.5" y="-87.8" font-family="Times,serif" font-size="14.00" fill="#000000">Granulated Sugar</text>
</g>
<!-- sugar_and_butter -->
<g id="node6" class="node">
<title>sugar_and_butter</title>
<polygon fill="none" stroke="#000000" points="215.5,-.5 215.5,-36.5 370.5,-36.5 370.5,-.5 215.5,-.5"/>
<text text-anchor="middle" x="293" y="-14.8" font-family="Times,serif" font-size="14.00" fill="#000000">Combine in mixing bowl</text>
</g>
<!-- sugar_and_butter&#45;&gt;brown_butter -->
<g id="edge5" class="edge">
<title>sugar_and_butter&#45;&gt;brown_butter</title>
<path fill="none" stroke="#000000" d="M256.6629,-36.5449C236.9625,-46.3281 212.4284,-58.5117 191.4705,-68.9194"/>
<polygon fill="#000000" stroke="#000000" points="189.8282,-65.8271 182.4285,-73.4096 192.9417,-72.0966 189.8282,-65.8271"/>
</g>
<!-- sugar_and_butter&#45;&gt;dark_brown_sugar -->
<g id="edge3" class="edge">
<title>sugar_and_butter&#45;&gt;dark_brown_sugar</title>
<path fill="none" stroke="#000000" d="M293,-36.5449C293,-44.6172 293,-54.3236 293,-63.3183"/>
<polygon fill="#000000" stroke="#000000" points="289.5001,-63.4096 293,-73.4096 296.5001,-63.4097 289.5001,-63.4096"/>
</g>
<!-- sugar_and_butter&#45;&gt;granulated_sugar -->
<g id="edge4" class="edge">
<title>sugar_and_butter&#45;&gt;granulated_sugar</title>
<path fill="none" stroke="#000000" d="M337,-36.5449C361.2828,-46.5036 391.6305,-58.9496 417.3018,-69.4777"/>
<polygon fill="#000000" stroke="#000000" points="416.309,-72.8534 426.8893,-73.4096 418.9652,-66.3769 416.309,-72.8534"/>
</g>
<!-- eggs -->
<g id="node7" class="node">
<title>eggs</title>
<polygon fill="none" stroke="#000000" points="565.5,-73.5 565.5,-109.5 654.5,-109.5 654.5,-73.5 565.5,-73.5"/>
<text text-anchor="middle" x="610" y="-87.8" font-family="Times,serif" font-size="14.00" fill="#000000">2 Large Eggs</text>
</g>
<!-- vanilla -->
<g id="node8" class="node">
<title>vanilla</title>
<polygon fill="none" stroke="#000000" points="673,-73.5 673,-109.5 815,-109.5 815,-73.5 673,-73.5"/>
<text text-anchor="middle" x="694.5" y="-87.8" font-family="Times,serif" font-size="14.00" fill="#000000">2 tsp</text>
<polyline fill="none" stroke="#000000" points="716,-73.5 716,-109.5 "/>
<text text-anchor="middle" x="765.5" y="-87.8" font-family="Times,serif" font-size="14.00" fill="#000000">Vanilla Extract</text>
</g>
<!-- wet_ingredients -->
<g id="node9" class="node">
<title>wet_ingredients</title>
<polygon fill="none" stroke="#000000" points="625,-.5 625,-36.5 729,-36.5 729,-.5 625,-.5"/>
<text text-anchor="middle" x="677" y="-14.8" font-family="Times,serif" font-size="14.00" fill="#000000">Wet Ingredients</text>
</g>
<!-- wet_ingredients&#45;&gt;eggs -->
<g id="edge6" class="edge">
<title>wet_ingredients&#45;&gt;eggs</title>
<path fill="none" stroke="#000000" d="M660.4382,-36.5449C652.3047,-45.4068 642.3634,-56.2384 633.4634,-65.9354"/>
<polygon fill="#000000" stroke="#000000" points="630.7867,-63.6756 626.6035,-73.4096 635.9439,-68.4089 630.7867,-63.6756"/>
</g>
<!-- wet_ingredients&#45;&gt;vanilla -->
<g id="edge7" class="edge">
<title>wet_ingredients&#45;&gt;vanilla</title>
<path fill="none" stroke="#000000" d="M693.5618,-36.5449C701.6953,-45.4068 711.6366,-56.2384 720.5366,-65.9354"/>
<polygon fill="#000000" stroke="#000000" points="718.0561,-68.4089 727.3965,-73.4096 723.2133,-63.6756 718.0561,-68.4089"/>
</g>
<!-- cookies -->
<g id="node10" class="node">
<title>cookies</title>
<polygon fill="none" stroke="#000000" points="747.5,-.5 747.5,-36.5 1014.5,-36.5 1014.5,-.5 747.5,-.5"/>
<text text-anchor="middle" x="881" y="-14.8" font-family="Times,serif" font-size="14.00" fill="#000000">Brown Butter Toffee Chocolate Chip Cookies</text>
</g>
</g>
</svg>
