<?xml version="1.0" encoding="UTF-8" standalone="no"?>
<!DOCTYPE svg PUBLIC "-//W3C//DTD SVG 1.1//EN"
 "http://www.w3.org/Graphics/SVG/1.1/DTD/svg11.dtd">
<!-- Generated by graphviz version 2.40.1 (20161225.0304)
 -->
<!-- Title: recipe Pages: 1 -->
<svg width="1238pt" height="702pt"
 viewBox="0.00 0.00 1238.00 702.00" xmlns="http://www.w3.org/2000/svg" xmlns:xlink="http://www.w3.org/1999/xlink">
<g id="graph0" class="graph" transform="scale(1 1) rotate(0) translate(4 698)">
<title>recipe</title>
<polygon fill="#ffffff" stroke="transparent" points="-4,4 -4,-698 1234,-698 1234,4 -4,4"/>
<!-- butter -->
<g id="node1" class="node">
<title>butter</title>
<polygon fill="none" stroke="#000000" points="0,-657.5 0,-693.5 160,-693.5 160,-657.5 0,-657.5"/>
<text text-anchor="middle" x="29" y="-671.8" font-family="Times,serif" font-size="14.00" fill="#000000">2 sticks</text>
<polyline fill="none" stroke="#000000" points="58,-657.5 58,-693.5 "/>
<text text-anchor="middle" x="109" y="-671.8" font-family="Times,serif" font-size="14.00" fill="#000000">Unsalted Butter</text>
</g>
<!-- saucepan -->
<g id="node2" class="node">
<title>saucepan</title>
<polygon fill="none" stroke="#000000" points="178,-657.5 178,-693.5 246,-693.5 246,-657.5 178,-657.5"/>
<text text-anchor="middle" x="212" y="-671.8" font-family="Times,serif" font-size="14.00" fill="#000000">Saucepan</text>
</g>
<!-- brown_butter -->
<g id="node3" class="node">
<title>brown_butter</title>
<polygon fill="none" stroke="#000000" points="100.5,-584.5 100.5,-620.5 191.5,-620.5 191.5,-584.5 100.5,-584.5"/>
<text text-anchor="middle" x="146" y="-598.8" font-family="Times,serif" font-size="14.00" fill="#000000">Brown Butter</text>
</g>
<!-- brown_butter&#45;&gt;butter -->
<g id="edge1" class="edge">
<title>brown_butter&#45;&gt;butter</title>
<path fill="none" stroke="#000000" d="M129.6854,-620.5449C121.6733,-629.4068 111.8804,-640.2384 103.1132,-649.9354"/>
<polygon fill="#000000" stroke="#000000" points="100.4659,-647.6446 96.3557,-657.4096 105.6584,-652.3391 100.4659,-647.6446"/>
</g>
<!-- brown_butter&#45;&gt;saucepan -->
<g id="edge2" class="edge">
<title>brown_butter&#45;&gt;saucepan</title>
<path fill="none" stroke="#000000" d="M162.3146,-620.5449C170.3267,-629.4068 180.1196,-640.2384 188.8868,-649.9354"/>
<polygon fill="#000000" stroke="#000000" points="186.3416,-652.3391 195.6443,-657.4096 191.5341,-647.6446 186.3416,-652.3391"/>
</g>
<!-- dark_brown_sugar -->
<g id="node4" class="node">
<title>dark_brown_sugar</title>
<polygon fill="none" stroke="#000000" points="210,-584.5 210,-620.5 376,-620.5 376,-584.5 210,-584.5"/>
<text text-anchor="middle" x="233.5" y="-598.8" font-family="Times,serif" font-size="14.00" fill="#000000">215 g</text>
<polyline fill="none" stroke="#000000" points="257,-584.5 257,-620.5 "/>
<text text-anchor="middle" x="316.5" y="-598.8" font-family="Times,serif" font-size="14.00" fill="#000000">Dark Brown Sugar</text>
</g>
<!-- granulated_sugar -->
<g id="node5" class="node">
<title>granulated_sugar</title>
<polygon fill="none" stroke="#000000" points="394.5,-584.5 394.5,-620.5 547.5,-620.5 547.5,-584.5 394.5,-584.5"/>
<text text-anchor="middle" x="415" y="-598.8" font-family="Times,serif" font-size="14.00" fill="#000000">73 g</text>
<polyline fill="none" stroke="#000000" points="435.5,-584.5 435.5,-620.5 "/>
<text text-anchor="middle" x="491.5" y="-598.8" font-family="Times,serif" font-size="14.00" fill="#000000">Granulated Sugar</text>
</g>
<!-- sugar_and_butter -->
<g id="node6" class="node">
<title>sugar_and_butter</title>
<polygon fill="none" stroke="#000000" points="215.5,-511.5 215.5,-547.5 370.5,-547.5 370.5,-511.5 215.5,-511.5"/>
<text text-anchor="middle" x="293" y="-525.8" font-family="Times,serif" font-size="14.00" fill="#000000">Combine in mixing bowl</text>
</g>
<!-- sugar_and_butter&#45;&gt;brown_butter -->
<g id="edge5" class="edge">
<title>sugar_and_butter&#45;&gt;brown_butter</title>
<path fill="none" stroke="#000000" d="M256.6629,-547.5449C236.9625,-557.3281 212.4284,-569.5117 191.4705,-579.9194"/>
<polygon fill="#000000" stroke="#000000" points="189.8282,-576.8271 182.4285,-584.4096 192.9417,-583.0966 189.8282,-576.8271"/>
</g>
<!-- sugar_and_butter&#45;&gt;dark_brown_sugar -->
<g id="edge3" class="edge">
<title>sugar_and_butter&#45;&gt;dark_brown_sugar</title>
<path fill="none" stroke="#000000" d="M293,-547.5449C293,-555.6172 293,-565.3236 293,-574.3183"/>
<polygon fill="#000000" stroke="#000000" points="289.5001,-574.4096 293,-584.4096 296.5001,-574.4097 289.5001,-574.4096"/>
</g>
<!-- sugar_and_butter&#45;&gt;granulated_sugar -->
<g id="edge4" class="edge">
<title>sugar_and_butter&#45;&gt;granulated_sugar</title>
<path fill="none" stroke="#000000" d="M337,-547.5449C361.2828,-557.5036 391.6305,-569.9496 417.3018,-580.4777"/>
<polygon fill="#000000" stroke="#000000" points="416.309,-583.8534 426.8893,-584.4096 418.9652,-577.3769 416.309,-583.8534"/>
</g>
<!-- eggs -->
<g id="node7" class="node">
<title>eggs</title>
<polygon fill="none" stroke="#000000" points="388.5,-511.5 388.5,-547.5 477.5,-547.5 477.5,-511.5 388.5,-511.5"/>
<text text-anchor="middle" x="433" y="-525.8" font-family="Times,serif" font-size="14.00" fill="#000000">2 Large Eggs</text>
</g>
<!-- vanilla -->
<g id="node8" class="node">
<title>vanilla</title>
<polygon fill="none" stroke="#000000" points="496,-511.5 496,-547.5 638,-547.5 638,-511.5 496,-511.5"/>
<text text-anchor="middle" x="517.5" y="-525.8" font-family="Times,serif" font-size="14.00" fill="#000000">2 tsp</text>
<polyline fill="none" stroke="#000000" points="539,-511.5 539,-547.5 "/>
<text text-anchor="middle" x="588.5" y="-525.8" font-family="Times,serif" font-size="14.00" fill="#000000">Vanilla Extract</text>
</g>
<!-- wet_ingredients -->
<g id="node9" class="node">
<title>wet_ingredients</title>
<polygon fill="none" stroke="#000000" points="417.5,-438.5 417.5,-474.5 582.5,-474.5 582.5,-438.5 417.5,-438.5"/>
<text text-anchor="middle" x="500" y="-452.8" font-family="Times,serif" font-size="14.00" fill="#000000">Mix until lighter and fluffy</text>
</g>
<!-- wet_ingredients&#45;&gt;sugar_and_butter -->
<g id="edge8" class="edge">
<title>wet_ingredients&#45;&gt;sugar_and_butter</title>
<path fill="none" stroke="#000000" d="M448.8314,-474.5449C420.0949,-484.6791 384.0545,-497.389 353.8737,-508.0325"/>
<polygon fill="#000000" stroke="#000000" points="352.564,-504.783 344.2973,-511.4096 354.8921,-511.3845 352.564,-504.783"/>
</g>
<!-- wet_ingredients&#45;&gt;eggs -->
<g id="edge6" class="edge">
<title>wet_ingredients&#45;&gt;eggs</title>
<path fill="none" stroke="#000000" d="M483.4382,-474.5449C475.3047,-483.4068 465.3634,-494.2384 456.4634,-503.9354"/>
<polygon fill="#000000" stroke="#000000" points="453.7867,-501.6756 449.6035,-511.4096 458.9439,-506.4089 453.7867,-501.6756"/>
</g>
<!-- wet_ingredients&#45;&gt;vanilla -->
<g id="edge7" class="edge">
<title>wet_ingredients&#45;&gt;vanilla</title>
<path fill="none" stroke="#000000" d="M516.5618,-474.5449C524.6953,-483.4068 534.6366,-494.2384 543.5366,-503.9354"/>
<polygon fill="#000000" stroke="#000000" points="541.0561,-506.4089 550.3965,-511.4096 546.2133,-501.6756 541.0561,-506.4089"/>
</g>
<!-- ap_flour -->
<g id="node10" class="node">
<title>ap_flour</title>
<polygon fill="none" stroke="#000000" points="656.5,-511.5 656.5,-547.5 817.5,-547.5 817.5,-511.5 656.5,-511.5"/>
<text text-anchor="middle" x="680" y="-525.8" font-family="Times,serif" font-size="14.00" fill="#000000">250 g</text>
<polyline fill="none" stroke="#000000" points="703.5,-511.5 703.5,-547.5 "/>
<text text-anchor="middle" x="760.5" y="-525.8" font-family="Times,serif" font-size="14.00" fill="#000000">All Purpose Flour</text>
</g>
<!-- baking_soda -->
<g id="node11" class="node">
<title>baking_soda</title>
<polygon fill="none" stroke="#000000" points="835.5,-511.5 835.5,-547.5 964.5,-547.5 964.5,-511.5 835.5,-511.5"/>
<text text-anchor="middle" x="857" y="-525.8" font-family="Times,serif" font-size="14.00" fill="#000000">1 tsp</text>
<polyline fill="none" stroke="#000000" points="878.5,-511.5 878.5,-547.5 "/>
<text text-anchor="middle" x="921.5" y="-525.8" font-family="Times,serif" font-size="14.00" fill="#000000">Baking Soda</text>
</g>
<!-- kosher_salt -->
<g id="node12" class="node">
<title>kosher_salt</title>
<polygon fill="none" stroke="#000000" points="982.5,-511.5 982.5,-547.5 1115.5,-547.5 1115.5,-511.5 982.5,-511.5"/>
<text text-anchor="middle" x="1009" y="-525.8" font-family="Times,serif" font-size="14.00" fill="#000000">3/4 tsp</text>
<polyline fill="none" stroke="#000000" points="1035.5,-511.5 1035.5,-547.5 "/>
<text text-anchor="middle" x="1075.5" y="-525.8" font-family="Times,serif" font-size="14.00" fill="#000000">Kosher Salt</text>
</g>
<!-- dry_ingredients -->
<g id="node13" class="node">
<title>dry_ingredients</title>
<polygon fill="none" stroke="#000000" points="767.5,-438.5 767.5,-474.5 868.5,-474.5 868.5,-438.5 767.5,-438.5"/>
<text text-anchor="middle" x="818" y="-452.8" font-family="Times,serif" font-size="14.00" fill="#000000">Whisk together</text>
</g>
<!-- dry_ingredients&#45;&gt;ap_flour -->
<g id="edge9" class="edge">
<title>dry_ingredients&#45;&gt;ap_flour</title>
<path fill="none" stroke="#000000" d="M797.9775,-474.5449C787.9498,-483.5823 775.6491,-494.6681 764.7286,-504.5101"/>
<polygon fill="#000000" stroke="#000000" points="762.1581,-502.115 757.0729,-511.4096 766.8444,-507.3148 762.1581,-502.115"/>
</g>
<!-- dry_ingredients&#45;&gt;baking_soda -->
<g id="edge10" class="edge">
<title>dry_ingredients&#45;&gt;baking_soda</title>
<path fill="none" stroke="#000000" d="M838.2697,-474.5449C848.4212,-483.5823 860.8738,-494.6681 871.9291,-504.5101"/>
<polygon fill="#000000" stroke="#000000" points="869.883,-507.3745 879.6793,-511.4096 874.5375,-502.1461 869.883,-507.3745"/>
</g>
<!-- dry_ingredients&#45;&gt;kosher_salt -->
<g id="edge11" class="edge">
<title>dry_ingredients&#45;&gt;kosher_salt</title>
<path fill="none" stroke="#000000" d="M868.6939,-472.5202C901.9566,-483.0317 945.8216,-496.8938 981.9571,-508.3133"/>
<polygon fill="#000000" stroke="#000000" points="981.3391,-511.7885 991.929,-511.4646 983.4484,-505.1139 981.3391,-511.7885"/>
</g>
<!-- plain_dough -->
<g id="node14" class="node">
<title>plain_dough</title>
<polygon fill="none" stroke="#000000" points="532.5,-365.5 532.5,-401.5 637.5,-401.5 637.5,-365.5 532.5,-365.5"/>
<text text-anchor="middle" x="585" y="-379.8" font-family="Times,serif" font-size="14.00" fill="#000000">Mix to combine</text>
</g>
<!-- plain_dough&#45;&gt;wet_ingredients -->
<g id="edge13" class="edge">
<title>plain_dough&#45;&gt;wet_ingredients</title>
<path fill="none" stroke="#000000" d="M563.9888,-401.5449C553.3636,-410.6701 540.3068,-421.8835 528.7645,-431.7964"/>
<polygon fill="#000000" stroke="#000000" points="526.3701,-429.2391 521.0641,-438.4096 530.9308,-434.5495 526.3701,-429.2391"/>
</g>
<!-- plain_dough&#45;&gt;dry_ingredients -->
<g id="edge12" class="edge">
<title>plain_dough&#45;&gt;dry_ingredients</title>
<path fill="none" stroke="#000000" d="M637.5803,-399.9736C673.188,-411.1297 720.3345,-425.9009 757.5021,-437.5457"/>
<polygon fill="#000000" stroke="#000000" points="756.6228,-440.9379 767.2118,-440.5878 758.7156,-434.2581 756.6228,-440.9379"/>
</g>
<!-- toffee_pieces -->
<g id="node15" class="node">
<title>toffee_pieces</title>
<polygon fill="none" stroke="#000000" points="656,-365.5 656,-401.5 788,-401.5 788,-365.5 656,-365.5"/>
<text text-anchor="middle" x="676.5" y="-379.8" font-family="Times,serif" font-size="14.00" fill="#000000">80 g</text>
<polyline fill="none" stroke="#000000" points="697,-365.5 697,-401.5 "/>
<text text-anchor="middle" x="742.5" y="-379.8" font-family="Times,serif" font-size="14.00" fill="#000000">Toffee Pieces</text>
</g>
<!-- chocolate_wafers -->
<g id="node16" class="node">
<title>chocolate_wafers</title>
<polygon fill="none" stroke="#000000" points="806,-365.5 806,-401.5 968,-401.5 968,-365.5 806,-365.5"/>
<text text-anchor="middle" x="829.5" y="-379.8" font-family="Times,serif" font-size="14.00" fill="#000000">216 g</text>
<polyline fill="none" stroke="#000000" points="853,-365.5 853,-401.5 "/>
<text text-anchor="middle" x="910.5" y="-379.8" font-family="Times,serif" font-size="14.00" fill="#000000">Chocolate Wafers</text>
</g>
<!-- unrested_cookie_dough -->
<g id="node17" class="node">
<title>unrested_cookie_dough</title>
<polygon fill="none" stroke="#000000" points="634,-292.5 634,-328.5 810,-328.5 810,-292.5 634,-292.5"/>
<text text-anchor="middle" x="722" y="-306.8" font-family="Times,serif" font-size="14.00" fill="#000000">Mix in Toffee and Chocolate</text>
</g>
<!-- unrested_cookie_dough&#45;&gt;plain_dough -->
<g id="edge14" class="edge">
<title>unrested_cookie_dough&#45;&gt;plain_dough</title>
<path fill="none" stroke="#000000" d="M688.1348,-328.5449C669.9393,-338.2404 647.3193,-350.2934 627.9036,-360.639"/>
<polygon fill="#000000" stroke="#000000" points="626.1298,-357.6182 618.9504,-365.4096 629.4216,-363.7959 626.1298,-357.6182"/>
</g>
<!-- unrested_cookie_dough&#45;&gt;toffee_pieces -->
<g id="edge15" class="edge">
<title>unrested_cookie_dough&#45;&gt;toffee_pieces</title>
<path fill="none" stroke="#000000" d="M722,-328.5449C722,-336.6172 722,-346.3236 722,-355.3183"/>
<polygon fill="#000000" stroke="#000000" points="718.5001,-355.4096 722,-365.4096 725.5001,-355.4097 718.5001,-355.4096"/>
</g>
<!-- unrested_cookie_dough&#45;&gt;chocolate_wafers -->
<g id="edge16" class="edge">
<title>unrested_cookie_dough&#45;&gt;chocolate_wafers</title>
<path fill="none" stroke="#000000" d="M762.7865,-328.5449C785.1967,-338.4597 813.1794,-350.84 836.9089,-361.3385"/>
<polygon fill="#000000" stroke="#000000" points="835.5498,-364.5644 846.1108,-365.4096 838.382,-358.1629 835.5498,-364.5644"/>
</g>
<!-- resting -->
<g id="node18" class="node">
<title>resting</title>
<polygon fill="none" stroke="#000000" points="827.5,-292.5 827.5,-328.5 952.5,-328.5 952.5,-292.5 827.5,-292.5"/>
<text text-anchor="middle" x="890" y="-306.8" font-family="Times,serif" font-size="14.00" fill="#000000">Rest for 30 minutes</text>
</g>
<!-- cookie_dough -->
<g id="node19" class="node">
<title>cookie_dough</title>
<polygon fill="none" stroke="#000000" points="758,-219.5 758,-255.5 854,-255.5 854,-219.5 758,-219.5"/>
<text text-anchor="middle" x="806" y="-233.8" font-family="Times,serif" font-size="14.00" fill="#000000">Cookie Dough</text>
</g>
<!-- cookie_dough&#45;&gt;unrested_cookie_dough -->
<g id="edge18" class="edge">
<title>cookie_dough&#45;&gt;unrested_cookie_dough</title>
<path fill="none" stroke="#000000" d="M785.2359,-255.5449C774.7358,-264.6701 761.8326,-275.8835 750.4261,-285.7964"/>
<polygon fill="#000000" stroke="#000000" points="748.0685,-283.2082 742.8163,-292.4096 752.6602,-288.4918 748.0685,-283.2082"/>
</g>
<!-- cookie_dough&#45;&gt;resting -->
<g id="edge17" class="edge">
<title>cookie_dough&#45;&gt;resting</title>
<path fill="none" stroke="#000000" d="M826.7641,-255.5449C837.2642,-264.6701 850.1674,-275.8835 861.5739,-285.7964"/>
<polygon fill="#000000" stroke="#000000" points="859.3398,-288.4918 869.1837,-292.4096 863.9315,-283.2082 859.3398,-288.4918"/>
</g>
<!-- ice_cream_scoop -->
<g id="node20" class="node">
<title>ice_cream_scoop</title>
<polygon fill="none" stroke="#000000" points="872.5,-219.5 872.5,-255.5 983.5,-255.5 983.5,-219.5 872.5,-219.5"/>
<text text-anchor="middle" x="928" y="-233.8" font-family="Times,serif" font-size="14.00" fill="#000000">Ice Cream Scoop</text>
</g>
<!-- cookie_balls -->
<g id="node21" class="node">
<title>cookie_balls</title>
<polygon fill="none" stroke="#000000" points="880.5,-146.5 880.5,-182.5 967.5,-182.5 967.5,-146.5 880.5,-146.5"/>
<text text-anchor="middle" x="924" y="-160.8" font-family="Times,serif" font-size="14.00" fill="#000000">Cookie Balls</text>
</g>
<!-- cookie_balls&#45;&gt;cookie_dough -->
<g id="edge19" class="edge">
<title>cookie_balls&#45;&gt;cookie_dough</title>
<path fill="none" stroke="#000000" d="M894.8315,-182.5449C879.514,-192.021 860.5561,-203.7492 844.0927,-213.9342"/>
<polygon fill="#000000" stroke="#000000" points="841.9048,-211.1721 835.242,-219.4096 845.5875,-217.125 841.9048,-211.1721"/>
</g>
<!-- cookie_balls&#45;&gt;ice_cream_scoop -->
<g id="edge20" class="edge">
<title>cookie_balls&#45;&gt;ice_cream_scoop</title>
<path fill="none" stroke="#000000" d="M924.9888,-182.5449C925.4311,-190.6172 925.9629,-200.3236 926.4558,-209.3183"/>
<polygon fill="#000000" stroke="#000000" points="922.9668,-209.6161 927.0087,-219.4096 929.9563,-209.2331 922.9668,-209.6161"/>
</g>
<!-- flaky_sea_salt -->
<g id="node22" class="node">
<title>flaky_sea_salt</title>
<polygon fill="none" stroke="#000000" points="820.5,-73.5 820.5,-109.5 915.5,-109.5 915.5,-73.5 820.5,-73.5"/>
<text text-anchor="middle" x="868" y="-87.8" font-family="Times,serif" font-size="14.00" fill="#000000">Flaky Sea Salt</text>
</g>
<!-- baking_sheet -->
<g id="node23" class="node">
<title>baking_sheet</title>
<polygon fill="none" stroke="#000000" points="1007.5,-219.5 1007.5,-255.5 1096.5,-255.5 1096.5,-219.5 1007.5,-219.5"/>
<text text-anchor="middle" x="1052" y="-233.8" font-family="Times,serif" font-size="14.00" fill="#000000">Baking Sheet</text>
</g>
<!-- parchment_paper -->
<g id="node24" class="node">
<title>parchment_paper</title>
<polygon fill="none" stroke="#000000" points="1114,-219.5 1114,-255.5 1230,-255.5 1230,-219.5 1114,-219.5"/>
<text text-anchor="middle" x="1172" y="-233.8" font-family="Times,serif" font-size="14.00" fill="#000000">Parchement Paper</text>
</g>
<!-- covered_baking_sheet -->
<g id="node25" class="node">
<title>covered_baking_sheet</title>
<polygon fill="none" stroke="#000000" points="985.5,-146.5 985.5,-182.5 1124.5,-182.5 1124.5,-146.5 985.5,-146.5"/>
<text text-anchor="middle" x="1055" y="-160.8" font-family="Times,serif" font-size="14.00" fill="#000000">Covered Baking Sheet</text>
</g>
<!-- covered_baking_sheet&#45;&gt;baking_sheet -->
<g id="edge21" class="edge">
<title>covered_baking_sheet&#45;&gt;baking_sheet</title>
<path fill="none" stroke="#000000" d="M1054.2584,-182.5449C1053.9267,-190.6172 1053.5278,-200.3236 1053.1582,-209.3183"/>
<polygon fill="#000000" stroke="#000000" points="1049.6571,-209.2743 1052.7434,-219.4096 1056.6512,-209.5618 1049.6571,-209.2743"/>
</g>
<!-- covered_baking_sheet&#45;&gt;parchment_paper -->
<g id="edge22" class="edge">
<title>covered_baking_sheet&#45;&gt;parchment_paper</title>
<path fill="none" stroke="#000000" d="M1083.9214,-182.5449C1099.109,-192.021 1117.9063,-203.7492 1134.2301,-213.9342"/>
<polygon fill="#000000" stroke="#000000" points="1132.6691,-217.0855 1143.0059,-219.4096 1136.3745,-211.1467 1132.6691,-217.0855"/>
</g>
<!-- sheet_of_cookies -->
<g id="node26" class="node">
<title>sheet_of_cookies</title>
<polygon fill="none" stroke="#000000" points="934,-73.5 934,-109.5 1044,-109.5 1044,-73.5 934,-73.5"/>
<text text-anchor="middle" x="989" y="-87.8" font-family="Times,serif" font-size="14.00" fill="#000000">Sheet of Cookies</text>
</g>
<!-- sheet_of_cookies&#45;&gt;cookie_balls -->
<g id="edge23" class="edge">
<title>sheet_of_cookies&#45;&gt;cookie_balls</title>
<path fill="none" stroke="#000000" d="M972.9326,-109.5449C965.0419,-118.4068 955.3974,-129.2384 946.763,-138.9354"/>
<polygon fill="#000000" stroke="#000000" points="944.1439,-136.6137 940.1079,-146.4096 949.3718,-141.2687 944.1439,-136.6137"/>
</g>
<!-- sheet_of_cookies&#45;&gt;covered_baking_sheet -->
<g id="edge24" class="edge">
<title>sheet_of_cookies&#45;&gt;covered_baking_sheet</title>
<path fill="none" stroke="#000000" d="M1005.3146,-109.5449C1013.3267,-118.4068 1023.1196,-129.2384 1031.8868,-138.9354"/>
<polygon fill="#000000" stroke="#000000" points="1029.3416,-141.3391 1038.6443,-146.4096 1034.5341,-136.6446 1029.3416,-141.3391"/>
</g>
<!-- oven -->
<g id="node27" class="node">
<title>oven</title>
<polygon fill="none" stroke="#000000" points="1062.5,-73.5 1062.5,-109.5 1215.5,-109.5 1215.5,-73.5 1062.5,-73.5"/>
<text text-anchor="middle" x="1139" y="-87.8" font-family="Times,serif" font-size="14.00" fill="#000000">Oven preheated to 375°F</text>
</g>
<!-- cookies -->
<g id="node28" class="node">
<title>cookies</title>
<polygon fill="none" stroke="#000000" points="855.5,-.5 855.5,-36.5 1122.5,-36.5 1122.5,-.5 855.5,-.5"/>
<text text-anchor="middle" x="989" y="-14.8" font-family="Times,serif" font-size="14.00" fill="#000000">Brown Butter Toffee Chocolate Chip Cookies</text>
</g>
<!-- cookies&#45;&gt;flaky_sea_salt -->
<g id="edge26" class="edge">
<title>cookies&#45;&gt;flaky_sea_salt</title>
<path fill="none" stroke="#000000" d="M959.0899,-36.5449C943.2375,-46.1088 923.5828,-57.9666 906.5929,-68.2167"/>
<polygon fill="#000000" stroke="#000000" points="904.7398,-65.247 897.9854,-73.4096 908.3559,-71.2407 904.7398,-65.247"/>
</g>
<!-- cookies&#45;&gt;sheet_of_cookies -->
<g id="edge25" class="edge">
<title>cookies&#45;&gt;sheet_of_cookies</title>
<path fill="none" stroke="#000000" d="M989,-36.5449C989,-44.6172 989,-54.3236 989,-63.3183"/>
<polygon fill="#000000" stroke="#000000" points="985.5001,-63.4096 989,-73.4096 992.5001,-63.4097 985.5001,-63.4096"/>
</g>
<!-- cookies&#45;&gt;oven -->
<g id="edge27" class="edge">
<title>cookies&#45;&gt;oven</title>
<path fill="none" stroke="#000000" d="M1026.0787,-36.5449C1046.1811,-46.3281 1071.2159,-58.5117 1092.6015,-68.9194"/>
<polygon fill="#000000" stroke="#000000" points="1091.3047,-72.1807 1101.828,-73.4096 1094.3679,-65.8865 1091.3047,-72.1807"/>
</g>
</g>
</svg>
