<?xml version="1.0" encoding="UTF-8" standalone="no"?>
<!DOCTYPE svg PUBLIC "-//W3C//DTD SVG 1.1//EN"
 "http://www.w3.org/Graphics/SVG/1.1/DTD/svg11.dtd">
<!-- Generated by graphviz version 2.43.0 (0)
 -->
<!-- Title: recipe Pages: 1 -->
<svg width="1501pt" height="702pt"
 viewBox="0.00 0.00 1500.50 702.00" xmlns="http://www.w3.org/2000/svg" xmlns:xlink="http://www.w3.org/1999/xlink">
<g id="graph0" class="graph" transform="scale(1 1) rotate(0) translate(4 698)">
<title>recipe</title>
<polygon fill="white" stroke="transparent" points="-4,4 -4,-698 1496.5,-698 1496.5,4 -4,4"/>
<!-- butter -->
<g id="node1" class="node">
<title>butter</title>
<polygon fill="none" stroke="black" points="0,-657.5 0,-693.5 203,-693.5 203,-657.5 0,-657.5"/>
<text text-anchor="middle" x="35.5" y="-671.8" font-family="Times,serif" font-size="14.00">2 sticks</text>
<polyline fill="none" stroke="black" points="71,-657.5 71,-693.5 "/>
<text text-anchor="middle" x="137" y="-671.8" font-family="Times,serif" font-size="14.00">Unsalted Butter</text>
</g>
<!-- saucepan -->
<g id="node2" class="node">
<title>saucepan</title>
<polygon fill="none" stroke="black" points="221.5,-657.5 221.5,-693.5 307.5,-693.5 307.5,-657.5 221.5,-657.5"/>
<text text-anchor="middle" x="264.5" y="-671.8" font-family="Times,serif" font-size="14.00">Saucepan</text>
</g>
<!-- brown_butter -->
<g id="node3" class="node">
<title>brown_butter</title>
<polygon fill="none" stroke="black" points="125.5,-584.5 125.5,-620.5 239.5,-620.5 239.5,-584.5 125.5,-584.5"/>
<text text-anchor="middle" x="182.5" y="-598.8" font-family="Times,serif" font-size="14.00">Brown Butter</text>
</g>
<!-- brown_butter&#45;&gt;butter -->
<g id="edge1" class="edge">
<title>brown_butter&#45;&gt;butter</title>
<path fill="none" stroke="black" d="M162.89,-620.69C152.64,-629.67 139.94,-640.81 128.75,-650.61"/>
<polygon fill="black" stroke="black" points="126.14,-648.25 120.93,-657.47 130.75,-653.51 126.14,-648.25"/>
</g>
<!-- brown_butter&#45;&gt;saucepan -->
<g id="edge2" class="edge">
<title>brown_butter&#45;&gt;saucepan</title>
<path fill="none" stroke="black" d="M202.35,-620.69C212.83,-629.76 225.84,-641.02 237.24,-650.9"/>
<polygon fill="black" stroke="black" points="234.98,-653.57 244.83,-657.47 239.56,-648.28 234.98,-653.57"/>
</g>
<!-- dark_brown_sugar -->
<g id="node4" class="node">
<title>dark_brown_sugar</title>
<polygon fill="none" stroke="black" points="257.5,-584.5 257.5,-620.5 463.5,-620.5 463.5,-584.5 257.5,-584.5"/>
<text text-anchor="middle" x="286" y="-598.8" font-family="Times,serif" font-size="14.00">215 g</text>
<polyline fill="none" stroke="black" points="314.5,-584.5 314.5,-620.5 "/>
<text text-anchor="middle" x="389" y="-598.8" font-family="Times,serif" font-size="14.00">Dark Brown Sugar</text>
</g>
<!-- granulated_sugar -->
<g id="node5" class="node">
<title>granulated_sugar</title>
<polygon fill="none" stroke="black" points="481.5,-584.5 481.5,-620.5 673.5,-620.5 673.5,-584.5 481.5,-584.5"/>
<text text-anchor="middle" x="505.5" y="-598.8" font-family="Times,serif" font-size="14.00">73 g</text>
<polyline fill="none" stroke="black" points="529.5,-584.5 529.5,-620.5 "/>
<text text-anchor="middle" x="601.5" y="-598.8" font-family="Times,serif" font-size="14.00">Granulated Sugar</text>
</g>
<!-- sugar_and_butter -->
<g id="node6" class="node">
<title>sugar_and_butter</title>
<polygon fill="none" stroke="black" points="266,-511.5 266,-547.5 455,-547.5 455,-511.5 266,-511.5"/>
<text text-anchor="middle" x="360.5" y="-525.8" font-family="Times,serif" font-size="14.00">Combine in mixing bowl</text>
</g>
<!-- sugar_and_butter&#45;&gt;brown_butter -->
<g id="edge5" class="edge">
<title>sugar_and_butter&#45;&gt;brown_butter</title>
<path fill="none" stroke="black" d="M317.86,-547.51C292.95,-557.44 261.31,-570.07 234.88,-580.61"/>
<polygon fill="black" stroke="black" points="233.4,-577.43 225.4,-584.39 235.99,-583.93 233.4,-577.43"/>
</g>
<!-- sugar_and_butter&#45;&gt;dark_brown_sugar -->
<g id="edge3" class="edge">
<title>sugar_and_butter&#45;&gt;dark_brown_sugar</title>
<path fill="none" stroke="black" d="M360.5,-547.69C360.5,-555.71 360.5,-565.45 360.5,-574.43"/>
<polygon fill="black" stroke="black" points="357,-574.47 360.5,-584.47 364,-574.47 357,-574.47"/>
</g>
<!-- sugar_and_butter&#45;&gt;granulated_sugar -->
<g id="edge4" class="edge">
<title>sugar_and_butter&#45;&gt;granulated_sugar</title>
<path fill="none" stroke="black" d="M412.48,-547.51C443.38,-557.62 482.78,-570.51 515.33,-581.16"/>
<polygon fill="black" stroke="black" points="514.6,-584.6 525.2,-584.39 516.78,-577.95 514.6,-584.6"/>
</g>
<!-- eggs -->
<g id="node7" class="node">
<title>eggs</title>
<polygon fill="none" stroke="black" points="473.5,-511.5 473.5,-547.5 585.5,-547.5 585.5,-511.5 473.5,-511.5"/>
<text text-anchor="middle" x="529.5" y="-525.8" font-family="Times,serif" font-size="14.00">2 Large Eggs</text>
</g>
<!-- vanilla -->
<g id="node8" class="node">
<title>vanilla</title>
<polygon fill="none" stroke="black" points="604,-511.5 604,-547.5 779,-547.5 779,-511.5 604,-511.5"/>
<text text-anchor="middle" x="630.5" y="-525.8" font-family="Times,serif" font-size="14.00">2 tsp</text>
<polyline fill="none" stroke="black" points="657,-511.5 657,-547.5 "/>
<text text-anchor="middle" x="718" y="-525.8" font-family="Times,serif" font-size="14.00">Vanilla Extract</text>
</g>
<!-- wet_ingredients -->
<g id="node9" class="node">
<title>wet_ingredients</title>
<polygon fill="none" stroke="black" points="508,-438.5 508,-474.5 713,-474.5 713,-438.5 508,-438.5"/>
<text text-anchor="middle" x="610.5" y="-452.8" font-family="Times,serif" font-size="14.00">Mix until lighter and fluffy</text>
</g>
<!-- wet_ingredients&#45;&gt;sugar_and_butter -->
<g id="edge8" class="edge">
<title>wet_ingredients&#45;&gt;sugar_and_butter</title>
<path fill="none" stroke="black" d="M550.62,-474.51C514.55,-484.75 468.45,-497.84 430.67,-508.57"/>
<polygon fill="black" stroke="black" points="429.42,-505.29 420.76,-511.39 431.33,-512.02 429.42,-505.29"/>
</g>
<!-- wet_ingredients&#45;&gt;eggs -->
<g id="edge6" class="edge">
<title>wet_ingredients&#45;&gt;eggs</title>
<path fill="none" stroke="black" d="M590.89,-474.69C580.64,-483.67 567.94,-494.81 556.75,-504.61"/>
<polygon fill="black" stroke="black" points="554.14,-502.25 548.93,-511.47 558.75,-507.51 554.14,-502.25"/>
</g>
<!-- wet_ingredients&#45;&gt;vanilla -->
<g id="edge7" class="edge">
<title>wet_ingredients&#45;&gt;vanilla</title>
<path fill="none" stroke="black" d="M630.11,-474.69C640.36,-483.67 653.06,-494.81 664.25,-504.61"/>
<polygon fill="black" stroke="black" points="662.25,-507.51 672.07,-511.47 666.86,-502.25 662.25,-507.51"/>
</g>
<!-- ap_flour -->
<g id="node10" class="node">
<title>ap_flour</title>
<polygon fill="none" stroke="black" points="797.5,-511.5 797.5,-547.5 995.5,-547.5 995.5,-511.5 797.5,-511.5"/>
<text text-anchor="middle" x="826" y="-525.8" font-family="Times,serif" font-size="14.00">250 g</text>
<polyline fill="none" stroke="black" points="854.5,-511.5 854.5,-547.5 "/>
<text text-anchor="middle" x="925" y="-525.8" font-family="Times,serif" font-size="14.00">All Purpose Flour</text>
</g>
<!-- baking_soda -->
<g id="node11" class="node">
<title>baking_soda</title>
<polygon fill="none" stroke="black" points="1014,-511.5 1014,-547.5 1173,-547.5 1173,-511.5 1014,-511.5"/>
<text text-anchor="middle" x="1040.5" y="-525.8" font-family="Times,serif" font-size="14.00">1 tsp</text>
<polyline fill="none" stroke="black" points="1067,-511.5 1067,-547.5 "/>
<text text-anchor="middle" x="1120" y="-525.8" font-family="Times,serif" font-size="14.00">Baking Soda</text>
</g>
<!-- kosher_salt -->
<g id="node12" class="node">
<title>kosher_salt</title>
<polygon fill="none" stroke="black" points="1191,-511.5 1191,-547.5 1356,-547.5 1356,-511.5 1191,-511.5"/>
<text text-anchor="middle" x="1224" y="-525.8" font-family="Times,serif" font-size="14.00">3/4 tsp</text>
<polyline fill="none" stroke="black" points="1257,-511.5 1257,-547.5 "/>
<text text-anchor="middle" x="1306.5" y="-525.8" font-family="Times,serif" font-size="14.00">Kosher Salt</text>
</g>
<!-- dry_ingredients -->
<g id="node13" class="node">
<title>dry_ingredients</title>
<polygon fill="none" stroke="black" points="931.5,-438.5 931.5,-474.5 1057.5,-474.5 1057.5,-438.5 931.5,-438.5"/>
<text text-anchor="middle" x="994.5" y="-452.8" font-family="Times,serif" font-size="14.00">Whisk together</text>
</g>
<!-- dry_ingredients&#45;&gt;ap_flour -->
<g id="edge9" class="edge">
<title>dry_ingredients&#45;&gt;ap_flour</title>
<path fill="none" stroke="black" d="M970.78,-474.69C958.02,-483.93 942.11,-495.46 928.29,-505.47"/>
<polygon fill="black" stroke="black" points="926.05,-502.77 920,-511.47 930.16,-508.44 926.05,-502.77"/>
</g>
<!-- dry_ingredients&#45;&gt;baking_soda -->
<g id="edge10" class="edge">
<title>dry_ingredients&#45;&gt;baking_soda</title>
<path fill="none" stroke="black" d="M1018.21,-474.51C1031.1,-483.75 1047.22,-495.31 1061.23,-505.36"/>
<polygon fill="black" stroke="black" points="1059.47,-508.4 1069.64,-511.39 1063.55,-502.71 1059.47,-508.4"/>
</g>
<!-- dry_ingredients&#45;&gt;kosher_salt -->
<g id="edge11" class="edge">
<title>dry_ingredients&#45;&gt;kosher_salt</title>
<path fill="none" stroke="black" d="M1057.81,-473.61C1099.06,-484.11 1153.14,-497.87 1196.83,-508.99"/>
<polygon fill="black" stroke="black" points="1196,-512.39 1206.55,-511.46 1197.72,-505.6 1196,-512.39"/>
</g>
<!-- plain_dough -->
<g id="node14" class="node">
<title>plain_dough</title>
<polygon fill="none" stroke="black" points="649,-365.5 649,-401.5 776,-401.5 776,-365.5 649,-365.5"/>
<text text-anchor="middle" x="712.5" y="-379.8" font-family="Times,serif" font-size="14.00">Mix to combine</text>
</g>
<!-- plain_dough&#45;&gt;wet_ingredients -->
<g id="edge13" class="edge">
<title>plain_dough&#45;&gt;wet_ingredients</title>
<path fill="none" stroke="black" d="M688.07,-401.51C674.67,-410.83 657.87,-422.53 643.34,-432.64"/>
<polygon fill="black" stroke="black" points="641.29,-429.8 635.09,-438.39 645.29,-435.55 641.29,-429.8"/>
</g>
<!-- plain_dough&#45;&gt;dry_ingredients -->
<g id="edge12" class="edge">
<title>plain_dough&#45;&gt;dry_ingredients</title>
<path fill="none" stroke="black" d="M776.14,-400.52C819.27,-411.38 876.39,-425.76 921.39,-437.09"/>
<polygon fill="black" stroke="black" points="920.54,-440.49 931.09,-439.54 922.25,-433.7 920.54,-440.49"/>
</g>
<!-- toffee_pieces -->
<g id="node15" class="node">
<title>toffee_pieces</title>
<polygon fill="none" stroke="black" points="794.5,-365.5 794.5,-401.5 952.5,-401.5 952.5,-365.5 794.5,-365.5"/>
<text text-anchor="middle" x="818.5" y="-379.8" font-family="Times,serif" font-size="14.00">80 g</text>
<polyline fill="none" stroke="black" points="842.5,-365.5 842.5,-401.5 "/>
<text text-anchor="middle" x="897.5" y="-379.8" font-family="Times,serif" font-size="14.00">Toffee Pieces</text>
</g>
<!-- chocolate_wafers -->
<g id="node16" class="node">
<title>chocolate_wafers</title>
<polygon fill="none" stroke="black" points="970.5,-365.5 970.5,-401.5 1168.5,-401.5 1168.5,-365.5 970.5,-365.5"/>
<text text-anchor="middle" x="999" y="-379.8" font-family="Times,serif" font-size="14.00">216 g</text>
<polyline fill="none" stroke="black" points="1027.5,-365.5 1027.5,-401.5 "/>
<text text-anchor="middle" x="1098" y="-379.8" font-family="Times,serif" font-size="14.00">Chocolate Wafers</text>
</g>
<!-- unrested_cookie_dough -->
<g id="node17" class="node">
<title>unrested_cookie_dough</title>
<polygon fill="none" stroke="black" points="766,-292.5 766,-328.5 981,-328.5 981,-292.5 766,-292.5"/>
<text text-anchor="middle" x="873.5" y="-306.8" font-family="Times,serif" font-size="14.00">Mix in Toffee and Chocolate</text>
</g>
<!-- unrested_cookie_dough&#45;&gt;plain_dough -->
<g id="edge14" class="edge">
<title>unrested_cookie_dough&#45;&gt;plain_dough</title>
<path fill="none" stroke="black" d="M834.94,-328.51C812.6,-338.36 784.28,-350.84 760.51,-361.33"/>
<polygon fill="black" stroke="black" points="759.04,-358.15 751.31,-365.39 761.87,-364.55 759.04,-358.15"/>
</g>
<!-- unrested_cookie_dough&#45;&gt;toffee_pieces -->
<g id="edge15" class="edge">
<title>unrested_cookie_dough&#45;&gt;toffee_pieces</title>
<path fill="none" stroke="black" d="M873.5,-328.69C873.5,-336.71 873.5,-346.45 873.5,-355.43"/>
<polygon fill="black" stroke="black" points="870,-355.47 873.5,-365.47 877,-355.47 870,-355.47"/>
</g>
<!-- unrested_cookie_dough&#45;&gt;chocolate_wafers -->
<g id="edge16" class="edge">
<title>unrested_cookie_dough&#45;&gt;chocolate_wafers</title>
<path fill="none" stroke="black" d="M920.45,-328.51C948.12,-338.53 983.34,-351.29 1012.59,-361.88"/>
<polygon fill="black" stroke="black" points="1011.66,-365.27 1022.26,-365.39 1014.05,-358.69 1011.66,-365.27"/>
</g>
<!-- resting -->
<g id="node18" class="node">
<title>resting</title>
<polygon fill="none" stroke="black" points="999.5,-292.5 999.5,-328.5 1157.5,-328.5 1157.5,-292.5 999.5,-292.5"/>
<text text-anchor="middle" x="1078.5" y="-306.8" font-family="Times,serif" font-size="14.00">Rest for 30 minutes</text>
</g>
<!-- cookie_dough -->
<g id="node19" class="node">
<title>cookie_dough</title>
<polygon fill="none" stroke="black" points="917.5,-219.5 917.5,-255.5 1033.5,-255.5 1033.5,-219.5 917.5,-219.5"/>
<text text-anchor="middle" x="975.5" y="-233.8" font-family="Times,serif" font-size="14.00">Cookie Dough</text>
</g>
<!-- cookie_dough&#45;&gt;unrested_cookie_dough -->
<g id="edge18" class="edge">
<title>cookie_dough&#45;&gt;unrested_cookie_dough</title>
<path fill="none" stroke="black" d="M951.07,-255.51C937.67,-264.83 920.87,-276.53 906.34,-286.64"/>
<polygon fill="black" stroke="black" points="904.29,-283.8 898.09,-292.39 908.29,-289.55 904.29,-283.8"/>
</g>
<!-- cookie_dough&#45;&gt;resting -->
<g id="edge17" class="edge">
<title>cookie_dough&#45;&gt;resting</title>
<path fill="none" stroke="black" d="M1000.17,-255.51C1013.7,-264.83 1030.66,-276.53 1045.34,-286.64"/>
<polygon fill="black" stroke="black" points="1043.45,-289.59 1053.67,-292.39 1047.43,-283.83 1043.45,-289.59"/>
</g>
<!-- ice_cream_scoop -->
<g id="node20" class="node">
<title>ice_cream_scoop</title>
<polygon fill="none" stroke="black" points="1052,-219.5 1052,-255.5 1189,-255.5 1189,-219.5 1052,-219.5"/>
<text text-anchor="middle" x="1120.5" y="-233.8" font-family="Times,serif" font-size="14.00">Ice Cream Scoop</text>
</g>
<!-- cookie_balls -->
<g id="node21" class="node">
<title>cookie_balls</title>
<polygon fill="none" stroke="black" points="1064.5,-146.5 1064.5,-182.5 1168.5,-182.5 1168.5,-146.5 1064.5,-146.5"/>
<text text-anchor="middle" x="1116.5" y="-160.8" font-family="Times,serif" font-size="14.00">Cookie Balls</text>
</g>
<!-- cookie_balls&#45;&gt;cookie_dough -->
<g id="edge19" class="edge">
<title>cookie_balls&#45;&gt;cookie_dough</title>
<path fill="none" stroke="black" d="M1082.73,-182.51C1063.51,-192.18 1039.24,-204.4 1018.65,-214.77"/>
<polygon fill="black" stroke="black" points="1016.84,-211.76 1009.49,-219.39 1019.99,-218.01 1016.84,-211.76"/>
</g>
<!-- cookie_balls&#45;&gt;ice_cream_scoop -->
<g id="edge20" class="edge">
<title>cookie_balls&#45;&gt;ice_cream_scoop</title>
<path fill="none" stroke="black" d="M1117.47,-182.69C1117.92,-190.71 1118.47,-200.45 1118.97,-209.43"/>
<polygon fill="black" stroke="black" points="1115.48,-209.68 1119.54,-219.47 1122.47,-209.29 1115.48,-209.68"/>
</g>
<!-- flaky_sea_salt -->
<g id="node22" class="node">
<title>flaky_sea_salt</title>
<polygon fill="none" stroke="black" points="990,-73.5 990,-109.5 1109,-109.5 1109,-73.5 990,-73.5"/>
<text text-anchor="middle" x="1049.5" y="-87.8" font-family="Times,serif" font-size="14.00">Flaky Sea Salt</text>
</g>
<!-- baking_sheet -->
<g id="node23" class="node">
<title>baking_sheet</title>
<polygon fill="none" stroke="black" points="1214.5,-219.5 1214.5,-255.5 1326.5,-255.5 1326.5,-219.5 1214.5,-219.5"/>
<text text-anchor="middle" x="1270.5" y="-233.8" font-family="Times,serif" font-size="14.00">Baking Sheet</text>
</g>
<!-- parchment_paper -->
<g id="node24" class="node">
<title>parchment_paper</title>
<polygon fill="none" stroke="black" points="1344.5,-219.5 1344.5,-255.5 1492.5,-255.5 1492.5,-219.5 1344.5,-219.5"/>
<text text-anchor="middle" x="1418.5" y="-233.8" font-family="Times,serif" font-size="14.00">Parchement Paper</text>
</g>
<!-- covered_baking_sheet -->
<g id="node25" class="node">
<title>covered_baking_sheet</title>
<polygon fill="none" stroke="black" points="1186.5,-146.5 1186.5,-182.5 1362.5,-182.5 1362.5,-146.5 1186.5,-146.5"/>
<text text-anchor="middle" x="1274.5" y="-160.8" font-family="Times,serif" font-size="14.00">Covered Baking Sheet</text>
</g>
<!-- covered_baking_sheet&#45;&gt;baking_sheet -->
<g id="edge21" class="edge">
<title>covered_baking_sheet&#45;&gt;baking_sheet</title>
<path fill="none" stroke="black" d="M1273.53,-182.69C1273.08,-190.71 1272.53,-200.45 1272.03,-209.43"/>
<polygon fill="black" stroke="black" points="1268.53,-209.29 1271.46,-219.47 1275.52,-209.68 1268.53,-209.29"/>
</g>
<!-- covered_baking_sheet&#45;&gt;parchment_paper -->
<g id="edge22" class="edge">
<title>covered_baking_sheet&#45;&gt;parchment_paper</title>
<path fill="none" stroke="black" d="M1308.99,-182.51C1328.71,-192.23 1353.63,-204.51 1374.71,-214.91"/>
<polygon fill="black" stroke="black" points="1373.27,-218.1 1383.79,-219.39 1376.37,-211.82 1373.27,-218.1"/>
</g>
<!-- sheet_of_cookies -->
<g id="node26" class="node">
<title>sheet_of_cookies</title>
<polygon fill="none" stroke="black" points="1127.5,-73.5 1127.5,-109.5 1263.5,-109.5 1263.5,-73.5 1127.5,-73.5"/>
<text text-anchor="middle" x="1195.5" y="-87.8" font-family="Times,serif" font-size="14.00">Sheet of Cookies</text>
</g>
<!-- sheet_of_cookies&#45;&gt;cookie_balls -->
<g id="edge23" class="edge">
<title>sheet_of_cookies&#45;&gt;cookie_balls</title>
<path fill="none" stroke="black" d="M1176.38,-109.69C1166.38,-118.67 1153.99,-129.81 1143.08,-139.61"/>
<polygon fill="black" stroke="black" points="1140.55,-137.18 1135.45,-146.47 1145.22,-142.39 1140.55,-137.18"/>
</g>
<!-- sheet_of_cookies&#45;&gt;covered_baking_sheet -->
<g id="edge24" class="edge">
<title>sheet_of_cookies&#45;&gt;covered_baking_sheet</title>
<path fill="none" stroke="black" d="M1214.62,-109.69C1224.62,-118.67 1237.01,-129.81 1247.92,-139.61"/>
<polygon fill="black" stroke="black" points="1245.78,-142.39 1255.55,-146.47 1250.45,-137.18 1245.78,-142.39"/>
</g>
<!-- oven -->
<g id="node27" class="node">
<title>oven</title>
<polygon fill="none" stroke="black" points="1282,-73.5 1282,-109.5 1479,-109.5 1479,-73.5 1282,-73.5"/>
<text text-anchor="middle" x="1380.5" y="-87.8" font-family="Times,serif" font-size="14.00">Oven preheated to 375°F</text>
</g>
<!-- cookies -->
<g id="node28" class="node">
<title>cookies</title>
<polygon fill="none" stroke="black" points="1028.5,-0.5 1028.5,-36.5 1362.5,-36.5 1362.5,-0.5 1028.5,-0.5"/>
<text text-anchor="middle" x="1195.5" y="-14.8" font-family="Times,serif" font-size="14.00">Brown Butter Toffee Chocolate Chip Cookies</text>
</g>
<!-- cookies&#45;&gt;flaky_sea_salt -->
<g id="edge26" class="edge">
<title>cookies&#45;&gt;flaky_sea_salt</title>
<path fill="none" stroke="black" d="M1160.53,-36.51C1140.54,-46.23 1115.28,-58.51 1093.9,-68.91"/>
<polygon fill="black" stroke="black" points="1092.15,-65.87 1084.69,-73.39 1095.21,-72.16 1092.15,-65.87"/>
</g>
<!-- cookies&#45;&gt;sheet_of_cookies -->
<g id="edge25" class="edge">
<title>cookies&#45;&gt;sheet_of_cookies</title>
<path fill="none" stroke="black" d="M1195.5,-36.69C1195.5,-44.71 1195.5,-54.45 1195.5,-63.43"/>
<polygon fill="black" stroke="black" points="1192,-63.47 1195.5,-73.47 1199,-63.47 1192,-63.47"/>
</g>
<!-- cookies&#45;&gt;oven -->
<g id="edge27" class="edge">
<title>cookies&#45;&gt;oven</title>
<path fill="none" stroke="black" d="M1239.81,-36.51C1265.82,-46.49 1298.88,-59.18 1326.42,-69.74"/>
<polygon fill="black" stroke="black" points="1325.32,-73.07 1335.91,-73.39 1327.83,-66.54 1325.32,-73.07"/>
</g>
</g>
</svg>
