<?xml version="1.0" encoding="UTF-8" standalone="no"?>
<!DOCTYPE svg PUBLIC "-//W3C//DTD SVG 1.1//EN"
 "http://www.w3.org/Graphics/SVG/1.1/DTD/svg11.dtd">
<!-- Generated by graphviz version 2.40.1 (20161225.0304)
 -->
<!-- Title: recipe Pages: 1 -->
<svg width="605pt" height="116pt"
 viewBox="0.00 0.00 605.43 116.00" xmlns="http://www.w3.org/2000/svg" xmlns:xlink="http://www.w3.org/1999/xlink">
<g id="graph0" class="graph" transform="scale(1 1) rotate(0) translate(4 112)">
<title>recipe</title>
<polygon fill="#ffffff" stroke="transparent" points="-4,4 -4,-112 601.4262,-112 601.4262,4 -4,4"/>
<!-- butter -->
<g id="node1" class="node">
<title>butter</title>
<ellipse fill="none" stroke="#000000" cx="94.8916" cy="-18" rx="94.7833" ry="18"/>
<text text-anchor="middle" x="94.8916" y="-14.3" font-family="Times,serif" font-size="14.00" fill="#000000">2 sticks|Unsalted Butter</text>
</g>
<!-- saucepan -->
<g id="node2" class="node">
<title>saucepan</title>
<ellipse fill="none" stroke="#000000" cx="251.8916" cy="-18" rx="44.393" ry="18"/>
<text text-anchor="middle" x="251.8916" y="-14.3" font-family="Times,serif" font-size="14.00" fill="#000000">Saucepan</text>
</g>
<!-- brown_butter -->
<g id="node3" class="node">
<title>brown_butter</title>
<ellipse fill="none" stroke="#000000" cx="172.8916" cy="-90" rx="59.2899" ry="18"/>
<text text-anchor="middle" x="172.8916" y="-86.3" font-family="Times,serif" font-size="14.00" fill="#000000">Brown Butter</text>
</g>
<!-- brown_butter&#45;&gt;butter -->
<g id="edge1" class="edge">
<title>brown_butter&#45;&gt;butter</title>
<path fill="none" stroke="#000000" d="M154.01,-72.5708C144.2868,-63.5955 132.2661,-52.4996 121.6084,-42.6617"/>
<polygon fill="#000000" stroke="#000000" points="123.8633,-39.9799 114.1412,-35.7689 119.1153,-45.1235 123.8633,-39.9799"/>
</g>
<!-- brown_butter&#45;&gt;saucepan -->
<g id="edge2" class="edge">
<title>brown_butter&#45;&gt;saucepan</title>
<path fill="none" stroke="#000000" d="M192.0153,-72.5708C202.3298,-63.1703 215.1969,-51.4433 226.357,-41.2721"/>
<polygon fill="#000000" stroke="#000000" points="228.7248,-43.8496 233.7581,-34.5267 224.0095,-38.676 228.7248,-43.8496"/>
</g>
<!-- cookies -->
<g id="node4" class="node">
<title>cookies</title>
<ellipse fill="none" stroke="#000000" cx="423.8916" cy="-90" rx="173.5692" ry="18"/>
<text text-anchor="middle" x="423.8916" y="-86.3" font-family="Times,serif" font-size="14.00" fill="#000000">Brown Butter Toffee Chocolate Chip Cookies</text>
</g>
</g>
</svg>
