<?xml version="1.0" encoding="UTF-8" standalone="no"?>
<!DOCTYPE svg PUBLIC "-//W3C//DTD SVG 1.1//EN"
 "http://www.w3.org/Graphics/SVG/1.1/DTD/svg11.dtd">
<!-- Generated by graphviz version 2.43.0 (0)
 -->
<!-- Title: recipe Pages: 1 -->
<svg width="964pt" height="264pt"
 viewBox="0.00 0.00 964.00 264.00" xmlns="http://www.w3.org/2000/svg" xmlns:xlink="http://www.w3.org/1999/xlink">
<g id="graph0" class="graph" transform="scale(1 1) rotate(0) translate(4 260)">
<title>recipe</title>
<polygon fill="white" stroke="transparent" points="-4,4 -4,-260 960,-260 960,4 -4,4"/>
<!-- browning_goulash -->
<g id="node1" class="node">
<title>browning_goulash</title>
<polygon fill="none" stroke="black" points="0,-219.5 0,-255.5 216,-255.5 216,-219.5 0,-219.5"/>
<text text-anchor="middle" x="108" y="-233.8" font-family="Times,serif" font-size="14.00">Spices, Aromatics, and Beef</text>
</g>
<!-- beef_bone_broth -->
<g id="node2" class="node">
<title>beef_bone_broth</title>
<polygon fill="none" stroke="black" points="234,-219.5 234,-255.5 424,-255.5 424,-219.5 234,-219.5"/>
<text text-anchor="middle" x="262" y="-233.8" font-family="Times,serif" font-size="14.00">1 cup</text>
<polyline fill="none" stroke="black" points="290,-219.5 290,-255.5 "/>
<text text-anchor="middle" x="357" y="-233.8" font-family="Times,serif" font-size="14.00">Beef Bone Broth</text>
</g>
<!-- vinegar -->
<g id="node3" class="node">
<title>vinegar</title>
<polygon fill="none" stroke="black" points="442.5,-219.5 442.5,-255.5 649.5,-255.5 649.5,-219.5 442.5,-219.5"/>
<text text-anchor="middle" x="473.5" y="-233.8" font-family="Times,serif" font-size="14.00">1 tbsp</text>
<polyline fill="none" stroke="black" points="504.5,-219.5 504.5,-255.5 "/>
<text text-anchor="middle" x="577" y="-233.8" font-family="Times,serif" font-size="14.00">Red Wine Vinegar</text>
</g>
<!-- stovetop_goulash -->
<g id="node4" class="node">
<title>stovetop_goulash</title>
<polygon fill="none" stroke="black" points="257.5,-146.5 257.5,-182.5 400.5,-182.5 400.5,-146.5 257.5,-146.5"/>
<text text-anchor="middle" x="329" y="-160.8" font-family="Times,serif" font-size="14.00">Stovetop Goulash</text>
</g>
<!-- stovetop_goulash&#45;&gt;browning_goulash -->
<g id="edge1" class="edge">
<title>stovetop_goulash&#45;&gt;browning_goulash</title>
<path fill="none" stroke="black" d="M276.06,-182.51C244.45,-192.66 204.12,-205.62 170.89,-216.3"/>
<polygon fill="black" stroke="black" points="169.72,-213 161.27,-219.39 171.86,-219.66 169.72,-213"/>
</g>
<!-- stovetop_goulash&#45;&gt;beef_bone_broth -->
<g id="edge2" class="edge">
<title>stovetop_goulash&#45;&gt;beef_bone_broth</title>
<path fill="none" stroke="black" d="M329,-182.69C329,-190.71 329,-200.45 329,-209.43"/>
<polygon fill="black" stroke="black" points="325.5,-209.47 329,-219.47 332.5,-209.47 325.5,-209.47"/>
</g>
<!-- stovetop_goulash&#45;&gt;vinegar -->
<g id="edge3" class="edge">
<title>stovetop_goulash&#45;&gt;vinegar</title>
<path fill="none" stroke="black" d="M380.98,-182.51C411.88,-192.62 451.28,-205.51 483.83,-216.16"/>
<polygon fill="black" stroke="black" points="483.1,-219.6 493.7,-219.39 485.28,-212.95 483.1,-219.6"/>
</g>
<!-- oven -->
<g id="node5" class="node">
<title>oven</title>
<polygon fill="none" stroke="black" points="418.5,-146.5 418.5,-182.5 615.5,-182.5 615.5,-146.5 418.5,-146.5"/>
<text text-anchor="middle" x="517" y="-160.8" font-family="Times,serif" font-size="14.00">Oven preheated to 275°F</text>
</g>
<!-- goulash -->
<g id="node6" class="node">
<title>goulash</title>
<polygon fill="none" stroke="black" points="461.5,-73.5 461.5,-109.5 572.5,-109.5 572.5,-73.5 461.5,-73.5"/>
<text text-anchor="middle" x="517" y="-87.8" font-family="Times,serif" font-size="14.00">Beef Goulash</text>
</g>
<!-- goulash&#45;&gt;stovetop_goulash -->
<g id="edge4" class="edge">
<title>goulash&#45;&gt;stovetop_goulash</title>
<path fill="none" stroke="black" d="M471.97,-109.51C445.54,-119.49 411.94,-132.18 383.96,-142.74"/>
<polygon fill="black" stroke="black" points="382.43,-139.58 374.31,-146.39 384.91,-146.13 382.43,-139.58"/>
</g>
<!-- goulash&#45;&gt;oven -->
<g id="edge5" class="edge">
<title>goulash&#45;&gt;oven</title>
<path fill="none" stroke="black" d="M517,-109.69C517,-117.71 517,-127.45 517,-136.43"/>
<polygon fill="black" stroke="black" points="513.5,-136.47 517,-146.47 520.5,-136.47 513.5,-136.47"/>
</g>
<!-- spaeztle -->
<g id="node7" class="node">
<title>spaeztle</title>
<polygon fill="none" stroke="black" points="718,-73.5 718,-109.5 796,-109.5 796,-73.5 718,-73.5"/>
<text text-anchor="middle" x="757" y="-87.8" font-family="Times,serif" font-size="14.00">Spaeztle</text>
</g>
<!-- cooked_spaeztle -->
<g id="node8" class="node">
<title>cooked_spaeztle</title>
<polygon fill="none" stroke="black" points="634,-146.5 634,-182.5 766,-182.5 766,-146.5 634,-146.5"/>
<text text-anchor="middle" x="700" y="-160.8" font-family="Times,serif" font-size="14.00">cooked_spaeztle</text>
</g>
<!-- spaeztle&#45;&gt;cooked_spaeztle -->
<g id="edge6" class="edge">
<title>spaeztle&#45;&gt;cooked_spaeztle</title>
<path fill="none" stroke="black" d="M743.2,-109.69C736.27,-118.32 727.74,-128.94 720.1,-138.47"/>
<polygon fill="black" stroke="black" points="717.2,-136.48 713.67,-146.47 722.66,-140.86 717.2,-136.48"/>
</g>
<!-- butter -->
<g id="node9" class="node">
<title>butter</title>
<polygon fill="none" stroke="black" points="784,-146.5 784,-182.5 846,-182.5 846,-146.5 784,-146.5"/>
<text text-anchor="middle" x="815" y="-160.8" font-family="Times,serif" font-size="14.00">butter</text>
</g>
<!-- spaeztle&#45;&gt;butter -->
<g id="edge7" class="edge">
<title>spaeztle&#45;&gt;butter</title>
<path fill="none" stroke="black" d="M771.04,-109.69C778.09,-118.32 786.77,-128.94 794.55,-138.47"/>
<polygon fill="black" stroke="black" points="792.05,-140.94 801.09,-146.47 797.47,-136.51 792.05,-140.94"/>
</g>
<!-- frying_pan -->
<g id="node10" class="node">
<title>frying_pan</title>
<polygon fill="none" stroke="black" points="864,-146.5 864,-182.5 956,-182.5 956,-146.5 864,-146.5"/>
<text text-anchor="middle" x="910" y="-160.8" font-family="Times,serif" font-size="14.00">frying_pan</text>
</g>
<!-- spaeztle&#45;&gt;frying_pan -->
<g id="edge8" class="edge">
<title>spaeztle&#45;&gt;frying_pan</title>
<path fill="none" stroke="black" d="M793.65,-109.51C814.69,-119.27 841.31,-131.62 863.78,-142.05"/>
<polygon fill="black" stroke="black" points="862.58,-145.35 873.12,-146.39 865.52,-139 862.58,-145.35"/>
</g>
<!-- chopped_parsley -->
<g id="node11" class="node">
<title>chopped_parsley</title>
<polygon fill="none" stroke="black" points="814.5,-73.5 814.5,-109.5 951.5,-109.5 951.5,-73.5 814.5,-73.5"/>
<text text-anchor="middle" x="883" y="-87.8" font-family="Times,serif" font-size="14.00">Chopped Parsley</text>
</g>
<!-- goulash_with_spaeztle -->
<g id="node12" class="node">
<title>goulash_with_spaeztle</title>
<polygon fill="none" stroke="black" points="650.5,-0.5 650.5,-36.5 863.5,-36.5 863.5,-0.5 650.5,-0.5"/>
<text text-anchor="middle" x="757" y="-14.8" font-family="Times,serif" font-size="14.00">Beef Goulash with Spaeztle</text>
</g>
<!-- goulash_with_spaeztle&#45;&gt;goulash -->
<g id="edge9" class="edge">
<title>goulash_with_spaeztle&#45;&gt;goulash</title>
<path fill="none" stroke="black" d="M699.51,-36.51C664.25,-46.94 619,-60.33 582.37,-71.16"/>
<polygon fill="black" stroke="black" points="581.37,-67.81 572.78,-74 583.36,-74.52 581.37,-67.81"/>
</g>
<!-- goulash_with_spaeztle&#45;&gt;spaeztle -->
<g id="edge10" class="edge">
<title>goulash_with_spaeztle&#45;&gt;spaeztle</title>
<path fill="none" stroke="black" d="M757,-36.69C757,-44.71 757,-54.45 757,-63.43"/>
<polygon fill="black" stroke="black" points="753.5,-63.47 757,-73.47 760.5,-63.47 753.5,-63.47"/>
</g>
<!-- goulash_with_spaeztle&#45;&gt;chopped_parsley -->
<g id="edge11" class="edge">
<title>goulash_with_spaeztle&#45;&gt;chopped_parsley</title>
<path fill="none" stroke="black" d="M787.18,-36.51C804.04,-46.01 825.26,-57.96 843.44,-68.21"/>
<polygon fill="black" stroke="black" points="842.2,-71.53 852.63,-73.39 845.64,-65.43 842.2,-71.53"/>
</g>
</g>
</svg>
