<?xml version="1.0" encoding="UTF-8" standalone="no"?>
<!DOCTYPE svg PUBLIC "-//W3C//DTD SVG 1.1//EN"
 "http://www.w3.org/Graphics/SVG/1.1/DTD/svg11.dtd">
<!-- Generated by graphviz version 2.43.0 (0)
 -->
<!-- Title: recipe Pages: 1 -->
<svg width="328pt" height="118pt"
 viewBox="0.00 0.00 328.00 118.00" xmlns="http://www.w3.org/2000/svg" xmlns:xlink="http://www.w3.org/1999/xlink">
<g id="graph0" class="graph" transform="scale(1 1) rotate(0) translate(4 114)">
<title>recipe</title>
<polygon fill="white" stroke="transparent" points="-4,4 -4,-114 324,-114 324,4 -4,4"/>
<!-- goulash_with_spaeztle -->
<g id="node1" class="node">
<title>goulash_with_spaeztle</title>
<polygon fill="none" stroke="black" points="21.5,-0.5 21.5,-36.5 234.5,-36.5 234.5,-0.5 21.5,-0.5"/>
<text text-anchor="middle" x="128" y="-14.8" font-family="Times,serif" font-size="14.00">Beef Goulash with Spaeztle</text>
</g>
<!-- goulash -->
<g id="node2" class="node">
<title>goulash</title>
<polygon fill="none" stroke="black" points="0,-73.5 0,-109.5 72,-109.5 72,-73.5 0,-73.5"/>
<text text-anchor="middle" x="36" y="-87.8" font-family="Times,serif" font-size="14.00">goulash</text>
</g>
<!-- goulash_with_spaeztle&#45;&gt;goulash -->
<g id="edge1" class="edge">
<title>goulash_with_spaeztle&#45;&gt;goulash</title>
<path fill="none" stroke="black" d="M105.73,-36.69C93.86,-45.84 79.1,-57.24 66.21,-67.18"/>
<polygon fill="black" stroke="black" points="63.84,-64.59 58.07,-73.47 68.12,-70.13 63.84,-64.59"/>
</g>
<!-- spaeztle -->
<g id="node3" class="node">
<title>spaeztle</title>
<polygon fill="none" stroke="black" points="90,-73.5 90,-109.5 166,-109.5 166,-73.5 90,-73.5"/>
<text text-anchor="middle" x="128" y="-87.8" font-family="Times,serif" font-size="14.00">spaeztle</text>
</g>
<!-- goulash_with_spaeztle&#45;&gt;spaeztle -->
<g id="edge2" class="edge">
<title>goulash_with_spaeztle&#45;&gt;spaeztle</title>
<path fill="none" stroke="black" d="M128,-36.69C128,-44.71 128,-54.45 128,-63.43"/>
<polygon fill="black" stroke="black" points="124.5,-63.47 128,-73.47 131.5,-63.47 124.5,-63.47"/>
</g>
<!-- chopped_parsley -->
<g id="node4" class="node">
<title>chopped_parsley</title>
<polygon fill="none" stroke="black" points="184,-73.5 184,-109.5 320,-109.5 320,-73.5 184,-73.5"/>
<text text-anchor="middle" x="252" y="-87.8" font-family="Times,serif" font-size="14.00">chopped_parsley</text>
</g>
<!-- goulash_with_spaeztle&#45;&gt;chopped_parsley -->
<g id="edge3" class="edge">
<title>goulash_with_spaeztle&#45;&gt;chopped_parsley</title>
<path fill="none" stroke="black" d="M157.7,-36.51C174.3,-46.01 195.18,-57.96 213.07,-68.21"/>
<polygon fill="black" stroke="black" points="211.69,-71.45 222.11,-73.39 215.17,-65.38 211.69,-71.45"/>
</g>
</g>
</svg>
