<?xml version="1.0" encoding="UTF-8" standalone="no"?>
<!DOCTYPE svg PUBLIC "-//W3C//DTD SVG 1.1//EN"
 "http://www.w3.org/Graphics/SVG/1.1/DTD/svg11.dtd">
<!-- Generated by graphviz version 2.43.0 (0)
 -->
<!-- Title: recipe Pages: 1 -->
<svg width="945pt" height="264pt"
 viewBox="0.00 0.00 944.50 264.00" xmlns="http://www.w3.org/2000/svg" xmlns:xlink="http://www.w3.org/1999/xlink">
<g id="graph0" class="graph" transform="scale(1 1) rotate(0) translate(4 260)">
<title>recipe</title>
<polygon fill="white" stroke="transparent" points="-4,4 -4,-260 940.5,-260 940.5,4 -4,4"/>
<!-- browning_goulash -->
<g id="node1" class="node">
<title>browning_goulash</title>
<polygon fill="none" stroke="black" points="0,-219.5 0,-255.5 216,-255.5 216,-219.5 0,-219.5"/>
<text text-anchor="middle" x="108" y="-233.8" font-family="Times,serif" font-size="14.00">Spices, Aromatics, and Beef</text>
</g>
<!-- beef_bone_broth -->
<g id="node2" class="node">
<title>beef_bone_broth</title>
<polygon fill="none" stroke="black" points="234,-219.5 234,-255.5 424,-255.5 424,-219.5 234,-219.5"/>
<text text-anchor="middle" x="262" y="-233.8" font-family="Times,serif" font-size="14.00">1 cup</text>
<polyline fill="none" stroke="black" points="290,-219.5 290,-255.5 "/>
<text text-anchor="middle" x="357" y="-233.8" font-family="Times,serif" font-size="14.00">Beef Bone Broth</text>
</g>
<!-- vinegar -->
<g id="node3" class="node">
<title>vinegar</title>
<polygon fill="none" stroke="black" points="442.5,-219.5 442.5,-255.5 649.5,-255.5 649.5,-219.5 442.5,-219.5"/>
<text text-anchor="middle" x="473.5" y="-233.8" font-family="Times,serif" font-size="14.00">1 tbsp</text>
<polyline fill="none" stroke="black" points="504.5,-219.5 504.5,-255.5 "/>
<text text-anchor="middle" x="577" y="-233.8" font-family="Times,serif" font-size="14.00">Red Wine Vinegar</text>
</g>
<!-- stovetop_goulash -->
<g id="node4" class="node">
<title>stovetop_goulash</title>
<polygon fill="none" stroke="black" points="257.5,-146.5 257.5,-182.5 400.5,-182.5 400.5,-146.5 257.5,-146.5"/>
<text text-anchor="middle" x="329" y="-160.8" font-family="Times,serif" font-size="14.00">Stovetop Goulash</text>
</g>
<!-- stovetop_goulash&#45;&gt;browning_goulash -->
<g id="edge1" class="edge">
<title>stovetop_goulash&#45;&gt;browning_goulash</title>
<path fill="none" stroke="black" d="M276.06,-182.51C244.45,-192.66 204.12,-205.62 170.89,-216.3"/>
<polygon fill="black" stroke="black" points="169.72,-213 161.27,-219.39 171.86,-219.66 169.72,-213"/>
</g>
<!-- stovetop_goulash&#45;&gt;beef_bone_broth -->
<g id="edge2" class="edge">
<title>stovetop_goulash&#45;&gt;beef_bone_broth</title>
<path fill="none" stroke="black" d="M329,-182.69C329,-190.71 329,-200.45 329,-209.43"/>
<polygon fill="black" stroke="black" points="325.5,-209.47 329,-219.47 332.5,-209.47 325.5,-209.47"/>
</g>
<!-- stovetop_goulash&#45;&gt;vinegar -->
<g id="edge3" class="edge">
<title>stovetop_goulash&#45;&gt;vinegar</title>
<path fill="none" stroke="black" d="M380.98,-182.51C411.88,-192.62 451.28,-205.51 483.83,-216.16"/>
<polygon fill="black" stroke="black" points="483.1,-219.6 493.7,-219.39 485.28,-212.95 483.1,-219.6"/>
</g>
<!-- over -->
<g id="node5" class="node">
<title>over</title>
<polygon fill="none" stroke="black" points="739.5,-0.5 739.5,-36.5 936.5,-36.5 936.5,-0.5 739.5,-0.5"/>
<text text-anchor="middle" x="838" y="-14.8" font-family="Times,serif" font-size="14.00">Oven preheated to 275°F</text>
</g>
<!-- goulash -->
<g id="node6" class="node">
<title>goulash</title>
<polygon fill="none" stroke="black" points="390.5,-73.5 390.5,-109.5 501.5,-109.5 501.5,-73.5 390.5,-73.5"/>
<text text-anchor="middle" x="446" y="-87.8" font-family="Times,serif" font-size="14.00">Beef Goulash</text>
</g>
<!-- goulash&#45;&gt;stovetop_goulash -->
<g id="edge4" class="edge">
<title>goulash&#45;&gt;stovetop_goulash</title>
<path fill="none" stroke="black" d="M417.98,-109.51C402.46,-118.92 382.98,-130.74 366.2,-140.93"/>
<polygon fill="black" stroke="black" points="363.93,-138.21 357.2,-146.39 367.57,-144.19 363.93,-138.21"/>
</g>
<!-- oven -->
<g id="node7" class="node">
<title>oven</title>
<polygon fill="none" stroke="black" points="419,-146.5 419,-182.5 473,-182.5 473,-146.5 419,-146.5"/>
<text text-anchor="middle" x="446" y="-160.8" font-family="Times,serif" font-size="14.00">oven</text>
</g>
<!-- goulash&#45;&gt;oven -->
<g id="edge5" class="edge">
<title>goulash&#45;&gt;oven</title>
<path fill="none" stroke="black" d="M446,-109.69C446,-117.71 446,-127.45 446,-136.43"/>
<polygon fill="black" stroke="black" points="442.5,-136.47 446,-146.47 449.5,-136.47 442.5,-136.47"/>
</g>
<!-- spaeztle -->
<g id="node8" class="node">
<title>spaeztle</title>
<polygon fill="none" stroke="black" points="576,-73.5 576,-109.5 654,-109.5 654,-73.5 576,-73.5"/>
<text text-anchor="middle" x="615" y="-87.8" font-family="Times,serif" font-size="14.00">Spaeztle</text>
</g>
<!-- cooked_spaeztle -->
<g id="node9" class="node">
<title>cooked_spaeztle</title>
<polygon fill="none" stroke="black" points="491,-146.5 491,-182.5 623,-182.5 623,-146.5 491,-146.5"/>
<text text-anchor="middle" x="557" y="-160.8" font-family="Times,serif" font-size="14.00">cooked_spaeztle</text>
</g>
<!-- spaeztle&#45;&gt;cooked_spaeztle -->
<g id="edge6" class="edge">
<title>spaeztle&#45;&gt;cooked_spaeztle</title>
<path fill="none" stroke="black" d="M600.96,-109.69C593.91,-118.32 585.23,-128.94 577.45,-138.47"/>
<polygon fill="black" stroke="black" points="574.53,-136.51 570.91,-146.47 579.95,-140.94 574.53,-136.51"/>
</g>
<!-- butter -->
<g id="node10" class="node">
<title>butter</title>
<polygon fill="none" stroke="black" points="641,-146.5 641,-182.5 703,-182.5 703,-146.5 641,-146.5"/>
<text text-anchor="middle" x="672" y="-160.8" font-family="Times,serif" font-size="14.00">butter</text>
</g>
<!-- spaeztle&#45;&gt;butter -->
<g id="edge7" class="edge">
<title>spaeztle&#45;&gt;butter</title>
<path fill="none" stroke="black" d="M628.8,-109.69C635.73,-118.32 644.26,-128.94 651.9,-138.47"/>
<polygon fill="black" stroke="black" points="649.34,-140.86 658.33,-146.47 654.8,-136.48 649.34,-140.86"/>
</g>
<!-- frying_pan -->
<g id="node11" class="node">
<title>frying_pan</title>
<polygon fill="none" stroke="black" points="721,-146.5 721,-182.5 813,-182.5 813,-146.5 721,-146.5"/>
<text text-anchor="middle" x="767" y="-160.8" font-family="Times,serif" font-size="14.00">frying_pan</text>
</g>
<!-- spaeztle&#45;&gt;frying_pan -->
<g id="edge8" class="edge">
<title>spaeztle&#45;&gt;frying_pan</title>
<path fill="none" stroke="black" d="M651.41,-109.51C672.31,-119.27 698.76,-131.62 721.08,-142.05"/>
<polygon fill="black" stroke="black" points="719.82,-145.33 730.36,-146.39 722.78,-138.98 719.82,-145.33"/>
</g>
<!-- chopped_parsley -->
<g id="node12" class="node">
<title>chopped_parsley</title>
<polygon fill="none" stroke="black" points="672.5,-73.5 672.5,-109.5 809.5,-109.5 809.5,-73.5 672.5,-73.5"/>
<text text-anchor="middle" x="741" y="-87.8" font-family="Times,serif" font-size="14.00">Chopped Parsley</text>
</g>
<!-- goulash_with_spaeztle -->
<g id="node13" class="node">
<title>goulash_with_spaeztle</title>
<polygon fill="none" stroke="black" points="508.5,-0.5 508.5,-36.5 721.5,-36.5 721.5,-0.5 508.5,-0.5"/>
<text text-anchor="middle" x="615" y="-14.8" font-family="Times,serif" font-size="14.00">Beef Goulash with Spaeztle</text>
</g>
<!-- goulash_with_spaeztle&#45;&gt;goulash -->
<g id="edge9" class="edge">
<title>goulash_with_spaeztle&#45;&gt;goulash</title>
<path fill="none" stroke="black" d="M574.52,-36.51C550.97,-46.4 521.09,-58.96 496.06,-69.47"/>
<polygon fill="black" stroke="black" points="494.6,-66.29 486.74,-73.39 497.31,-72.74 494.6,-66.29"/>
</g>
<!-- goulash_with_spaeztle&#45;&gt;spaeztle -->
<g id="edge10" class="edge">
<title>goulash_with_spaeztle&#45;&gt;spaeztle</title>
<path fill="none" stroke="black" d="M615,-36.69C615,-44.71 615,-54.45 615,-63.43"/>
<polygon fill="black" stroke="black" points="611.5,-63.47 615,-73.47 618.5,-63.47 611.5,-63.47"/>
</g>
<!-- goulash_with_spaeztle&#45;&gt;chopped_parsley -->
<g id="edge11" class="edge">
<title>goulash_with_spaeztle&#45;&gt;chopped_parsley</title>
<path fill="none" stroke="black" d="M645.18,-36.51C662.04,-46.01 683.26,-57.96 701.44,-68.21"/>
<polygon fill="black" stroke="black" points="700.2,-71.53 710.63,-73.39 703.64,-65.43 700.2,-71.53"/>
</g>
</g>
</svg>
