<?xml version="1.0" encoding="UTF-8" standalone="no"?>
<!DOCTYPE svg PUBLIC "-//W3C//DTD SVG 1.1//EN"
 "http://www.w3.org/Graphics/SVG/1.1/DTD/svg11.dtd">
<!-- Generated by graphviz version 2.43.0 (0)
 -->
<!-- Title: recipe Pages: 1 -->
<svg width="1077pt" height="264pt"
 viewBox="0.00 0.00 1076.50 264.00" xmlns="http://www.w3.org/2000/svg" xmlns:xlink="http://www.w3.org/1999/xlink">
<g id="graph0" class="graph" transform="scale(1 1) rotate(0) translate(4 260)">
<title>recipe</title>
<polygon fill="white" stroke="transparent" points="-4,4 -4,-260 1072.5,-260 1072.5,4 -4,4"/>
<!-- browning_goulash -->
<g id="node1" class="node">
<title>browning_goulash</title>
<polygon fill="none" stroke="black" points="0,-219.5 0,-255.5 216,-255.5 216,-219.5 0,-219.5"/>
<text text-anchor="middle" x="108" y="-233.8" font-family="Times,serif" font-size="14.00">Spices, Aromatics, and Beef</text>
</g>
<!-- beef_bone_broth -->
<g id="node2" class="node">
<title>beef_bone_broth</title>
<polygon fill="none" stroke="black" points="234,-219.5 234,-255.5 424,-255.5 424,-219.5 234,-219.5"/>
<text text-anchor="middle" x="262" y="-233.8" font-family="Times,serif" font-size="14.00">1 cup</text>
<polyline fill="none" stroke="black" points="290,-219.5 290,-255.5 "/>
<text text-anchor="middle" x="357" y="-233.8" font-family="Times,serif" font-size="14.00">Beef Bone Broth</text>
</g>
<!-- vinegar -->
<g id="node3" class="node">
<title>vinegar</title>
<polygon fill="none" stroke="black" points="442.5,-219.5 442.5,-255.5 649.5,-255.5 649.5,-219.5 442.5,-219.5"/>
<text text-anchor="middle" x="473.5" y="-233.8" font-family="Times,serif" font-size="14.00">1 tbsp</text>
<polyline fill="none" stroke="black" points="504.5,-219.5 504.5,-255.5 "/>
<text text-anchor="middle" x="577" y="-233.8" font-family="Times,serif" font-size="14.00">Red Wine Vinegar</text>
</g>
<!-- stovetop_goulash -->
<g id="node4" class="node">
<title>stovetop_goulash</title>
<polygon fill="none" stroke="black" points="337.5,-146.5 337.5,-182.5 480.5,-182.5 480.5,-146.5 337.5,-146.5"/>
<text text-anchor="middle" x="409" y="-160.8" font-family="Times,serif" font-size="14.00">Stovetop Goulash</text>
</g>
<!-- stovetop_goulash&#45;&gt;browning_goulash -->
<g id="edge1" class="edge">
<title>stovetop_goulash&#45;&gt;browning_goulash</title>
<path fill="none" stroke="black" d="M337.29,-182.42C293.06,-192.85 236.19,-206.26 190.16,-217.12"/>
<polygon fill="black" stroke="black" points="189.14,-213.77 180.21,-219.47 190.74,-220.58 189.14,-213.77"/>
</g>
<!-- stovetop_goulash&#45;&gt;beef_bone_broth -->
<g id="edge2" class="edge">
<title>stovetop_goulash&#45;&gt;beef_bone_broth</title>
<path fill="none" stroke="black" d="M389.63,-182.69C379.51,-191.67 366.96,-202.81 355.91,-212.61"/>
<polygon fill="black" stroke="black" points="353.34,-210.22 348.19,-219.47 357.99,-215.45 353.34,-210.22"/>
</g>
<!-- stovetop_goulash&#45;&gt;vinegar -->
<g id="edge3" class="edge">
<title>stovetop_goulash&#45;&gt;vinegar</title>
<path fill="none" stroke="black" d="M441.81,-182.51C460.49,-192.18 484.07,-204.4 504.07,-214.77"/>
<polygon fill="black" stroke="black" points="502.49,-217.89 512.98,-219.39 505.71,-211.68 502.49,-217.89"/>
</g>
<!-- oven -->
<g id="node5" class="node">
<title>oven</title>
<polygon fill="none" stroke="black" points="513.5,-146.5 513.5,-182.5 710.5,-182.5 710.5,-146.5 513.5,-146.5"/>
<text text-anchor="middle" x="612" y="-160.8" font-family="Times,serif" font-size="14.00">Oven preheated to 275°F</text>
</g>
<!-- goulash -->
<g id="node6" class="node">
<title>goulash</title>
<polygon fill="none" stroke="black" points="556.5,-73.5 556.5,-109.5 667.5,-109.5 667.5,-73.5 556.5,-73.5"/>
<text text-anchor="middle" x="612" y="-87.8" font-family="Times,serif" font-size="14.00">Beef Goulash</text>
</g>
<!-- goulash&#45;&gt;stovetop_goulash -->
<g id="edge4" class="edge">
<title>goulash&#45;&gt;stovetop_goulash</title>
<path fill="none" stroke="black" d="M563.38,-109.51C534.59,-119.58 497.92,-132.4 467.55,-143.02"/>
<polygon fill="black" stroke="black" points="466.21,-139.78 457.93,-146.39 468.53,-146.39 466.21,-139.78"/>
</g>
<!-- goulash&#45;&gt;oven -->
<g id="edge5" class="edge">
<title>goulash&#45;&gt;oven</title>
<path fill="none" stroke="black" d="M612,-109.69C612,-117.71 612,-127.45 612,-136.43"/>
<polygon fill="black" stroke="black" points="608.5,-136.47 612,-146.47 615.5,-136.47 608.5,-136.47"/>
</g>
<!-- cooked_spaeztle -->
<g id="node7" class="node">
<title>cooked_spaeztle</title>
<polygon fill="none" stroke="black" points="735.5,-146.5 735.5,-182.5 870.5,-182.5 870.5,-146.5 735.5,-146.5"/>
<text text-anchor="middle" x="803" y="-160.8" font-family="Times,serif" font-size="14.00">Cooked Spaeztle</text>
</g>
<!-- spaeztle_batter -->
<g id="node8" class="node">
<title>spaeztle_batter</title>
<polygon fill="none" stroke="black" points="667.5,-219.5 667.5,-255.5 794.5,-255.5 794.5,-219.5 667.5,-219.5"/>
<text text-anchor="middle" x="731" y="-233.8" font-family="Times,serif" font-size="14.00">spaeztle_batter</text>
</g>
<!-- cooked_spaeztle&#45;&gt;spaeztle_batter -->
<g id="edge6" class="edge">
<title>cooked_spaeztle&#45;&gt;spaeztle_batter</title>
<path fill="none" stroke="black" d="M785.57,-182.69C776.55,-191.58 765.39,-202.59 755.51,-212.33"/>
<polygon fill="black" stroke="black" points="752.93,-209.96 748.27,-219.47 757.85,-214.94 752.93,-209.96"/>
</g>
<!-- spaeztle_board -->
<g id="node9" class="node">
<title>spaeztle_board</title>
<polygon fill="none" stroke="black" points="813,-219.5 813,-255.5 937,-255.5 937,-219.5 813,-219.5"/>
<text text-anchor="middle" x="875" y="-233.8" font-family="Times,serif" font-size="14.00">spaeztle_board</text>
</g>
<!-- cooked_spaeztle&#45;&gt;spaeztle_board -->
<g id="edge7" class="edge">
<title>cooked_spaeztle&#45;&gt;spaeztle_board</title>
<path fill="none" stroke="black" d="M820.43,-182.69C829.45,-191.58 840.61,-202.59 850.49,-212.33"/>
<polygon fill="black" stroke="black" points="848.15,-214.94 857.73,-219.47 853.07,-209.96 848.15,-214.94"/>
</g>
<!-- boiling_water -->
<g id="node10" class="node">
<title>boiling_water</title>
<polygon fill="none" stroke="black" points="955.5,-219.5 955.5,-255.5 1068.5,-255.5 1068.5,-219.5 955.5,-219.5"/>
<text text-anchor="middle" x="1012" y="-233.8" font-family="Times,serif" font-size="14.00">boiling_water</text>
</g>
<!-- cooked_spaeztle&#45;&gt;boiling_water -->
<g id="edge8" class="edge">
<title>cooked_spaeztle&#45;&gt;boiling_water</title>
<path fill="none" stroke="black" d="M853.06,-182.51C882.83,-192.62 920.77,-205.51 952.12,-216.16"/>
<polygon fill="black" stroke="black" points="951.03,-219.48 961.62,-219.39 953.28,-212.86 951.03,-219.48"/>
</g>
<!-- butter -->
<g id="node11" class="node">
<title>butter</title>
<polygon fill="none" stroke="black" points="888.5,-146.5 888.5,-182.5 951.5,-182.5 951.5,-146.5 888.5,-146.5"/>
<text text-anchor="middle" x="920" y="-160.8" font-family="Times,serif" font-size="14.00">Butter</text>
</g>
<!-- frying_pan -->
<g id="node12" class="node">
<title>frying_pan</title>
<polygon fill="none" stroke="black" points="969.5,-146.5 969.5,-182.5 1064.5,-182.5 1064.5,-146.5 969.5,-146.5"/>
<text text-anchor="middle" x="1017" y="-160.8" font-family="Times,serif" font-size="14.00">Frying Pan</text>
</g>
<!-- spaeztle -->
<g id="node13" class="node">
<title>spaeztle</title>
<polygon fill="none" stroke="black" points="822,-73.5 822,-109.5 900,-109.5 900,-73.5 822,-73.5"/>
<text text-anchor="middle" x="861" y="-87.8" font-family="Times,serif" font-size="14.00">Spaeztle</text>
</g>
<!-- spaeztle&#45;&gt;cooked_spaeztle -->
<g id="edge9" class="edge">
<title>spaeztle&#45;&gt;cooked_spaeztle</title>
<path fill="none" stroke="black" d="M846.96,-109.69C839.91,-118.32 831.23,-128.94 823.45,-138.47"/>
<polygon fill="black" stroke="black" points="820.53,-136.51 816.91,-146.47 825.95,-140.94 820.53,-136.51"/>
</g>
<!-- spaeztle&#45;&gt;butter -->
<g id="edge10" class="edge">
<title>spaeztle&#45;&gt;butter</title>
<path fill="none" stroke="black" d="M875.28,-109.69C882.53,-118.41 891.46,-129.16 899.44,-138.75"/>
<polygon fill="black" stroke="black" points="896.77,-141.02 905.85,-146.47 902.15,-136.54 896.77,-141.02"/>
</g>
<!-- spaeztle&#45;&gt;frying_pan -->
<g id="edge11" class="edge">
<title>spaeztle&#45;&gt;frying_pan</title>
<path fill="none" stroke="black" d="M898.37,-109.51C919.91,-119.31 947.2,-131.73 970.18,-142.19"/>
<polygon fill="black" stroke="black" points="968.85,-145.43 979.4,-146.39 971.75,-139.06 968.85,-145.43"/>
</g>
<!-- chopped_parsley -->
<g id="node14" class="node">
<title>chopped_parsley</title>
<polygon fill="none" stroke="black" points="918.5,-73.5 918.5,-109.5 1055.5,-109.5 1055.5,-73.5 918.5,-73.5"/>
<text text-anchor="middle" x="987" y="-87.8" font-family="Times,serif" font-size="14.00">Chopped Parsley</text>
</g>
<!-- goulash_with_spaeztle -->
<g id="node15" class="node">
<title>goulash_with_spaeztle</title>
<polygon fill="none" stroke="black" points="754.5,-0.5 754.5,-36.5 967.5,-36.5 967.5,-0.5 754.5,-0.5"/>
<text text-anchor="middle" x="861" y="-14.8" font-family="Times,serif" font-size="14.00">Beef Goulash with Spaeztle</text>
</g>
<!-- goulash_with_spaeztle&#45;&gt;goulash -->
<g id="edge12" class="edge">
<title>goulash_with_spaeztle&#45;&gt;goulash</title>
<path fill="none" stroke="black" d="M801.36,-36.51C764.11,-47.13 716.12,-60.81 677.78,-71.74"/>
<polygon fill="black" stroke="black" points="676.4,-68.5 667.74,-74.61 678.32,-75.23 676.4,-68.5"/>
</g>
<!-- goulash_with_spaeztle&#45;&gt;spaeztle -->
<g id="edge13" class="edge">
<title>goulash_with_spaeztle&#45;&gt;spaeztle</title>
<path fill="none" stroke="black" d="M861,-36.69C861,-44.71 861,-54.45 861,-63.43"/>
<polygon fill="black" stroke="black" points="857.5,-63.47 861,-73.47 864.5,-63.47 857.5,-63.47"/>
</g>
<!-- goulash_with_spaeztle&#45;&gt;chopped_parsley -->
<g id="edge14" class="edge">
<title>goulash_with_spaeztle&#45;&gt;chopped_parsley</title>
<path fill="none" stroke="black" d="M891.18,-36.51C908.04,-46.01 929.26,-57.96 947.44,-68.21"/>
<polygon fill="black" stroke="black" points="946.2,-71.53 956.63,-73.39 949.64,-65.43 946.2,-71.53"/>
</g>
</g>
</svg>
