<?xml version="1.0" encoding="UTF-8" standalone="no"?>
<!DOCTYPE svg PUBLIC "-//W3C//DTD SVG 1.1//EN"
 "http://www.w3.org/Graphics/SVG/1.1/DTD/svg11.dtd">
<!-- Generated by graphviz version 2.43.0 (0)
 -->
<!-- Title: recipe Pages: 1 -->
<svg width="370pt" height="118pt"
 viewBox="0.00 0.00 370.00 118.00" xmlns="http://www.w3.org/2000/svg" xmlns:xlink="http://www.w3.org/1999/xlink">
<g id="graph0" class="graph" transform="scale(1 1) rotate(0) translate(4 114)">
<title>recipe</title>
<polygon fill="white" stroke="transparent" points="-4,4 -4,-114 366,-114 366,4 -4,4"/>
<!-- olive_oil -->
<g id="node1" class="node">
<title>olive_oil</title>
<polygon fill="none" stroke="black" points="88,-0.5 88,-36.5 166,-36.5 166,-0.5 88,-0.5"/>
<text text-anchor="middle" x="127" y="-14.8" font-family="Times,serif" font-size="14.00">Olive Oil</text>
</g>
<!-- heat_oil -->
<g id="node3" class="node">
<title>heat_oil</title>
<polygon fill="none" stroke="black" points="0,-73.5 0,-109.5 362,-109.5 362,-73.5 0,-73.5"/>
<text text-anchor="middle" x="181" y="-87.8" font-family="Times,serif" font-size="14.00">Heat Oil in a Dutch oven over medium&#45;high heat</text>
</g>
<!-- olive_oil&#45;&gt;heat_oil -->
<g id="edge1" class="edge">
<title>olive_oil&#45;&gt;heat_oil</title>
<path fill="none" stroke="black" d="M140.07,-36.69C146.64,-45.32 154.72,-55.94 161.96,-65.47"/>
<polygon fill="black" stroke="black" points="159.21,-67.63 168.05,-73.47 164.78,-63.39 159.21,-67.63"/>
</g>
<!-- dutch_oven -->
<g id="node2" class="node">
<title>dutch_oven</title>
<polygon fill="none" stroke="black" points="184.5,-0.5 184.5,-36.5 285.5,-36.5 285.5,-0.5 184.5,-0.5"/>
<text text-anchor="middle" x="235" y="-14.8" font-family="Times,serif" font-size="14.00">Dutch Oven</text>
</g>
<!-- dutch_oven&#45;&gt;heat_oil -->
<g id="edge2" class="edge">
<title>dutch_oven&#45;&gt;heat_oil</title>
<path fill="none" stroke="black" d="M221.93,-36.69C215.36,-45.32 207.28,-55.94 200.04,-65.47"/>
<polygon fill="black" stroke="black" points="197.22,-63.39 193.95,-73.47 202.79,-67.63 197.22,-63.39"/>
</g>
</g>
</svg>
