<?xml version="1.0" encoding="UTF-8" standalone="no"?>
<!DOCTYPE svg PUBLIC "-//W3C//DTD SVG 1.1//EN"
 "http://www.w3.org/Graphics/SVG/1.1/DTD/svg11.dtd">
<!-- Generated by graphviz version 2.43.0 (0)
 -->
<!-- Title: recipe Pages: 1 -->
<svg width="1175pt" height="337pt"
 viewBox="0.00 0.00 1175.00 337.00" xmlns="http://www.w3.org/2000/svg" xmlns:xlink="http://www.w3.org/1999/xlink">
<g id="graph0" class="graph" transform="scale(1 1) rotate(0) translate(4 333)">
<title>recipe</title>
<polygon fill="white" stroke="transparent" points="-4,4 -4,-333 1171,-333 1171,4 -4,4"/>
<!-- olive_oil -->
<g id="node1" class="node">
<title>olive_oil</title>
<polygon fill="none" stroke="black" points="88,-292.5 88,-328.5 166,-328.5 166,-292.5 88,-292.5"/>
<text text-anchor="middle" x="127" y="-306.8" font-family="Times,serif" font-size="14.00">Olive Oil</text>
</g>
<!-- dutch_oven -->
<g id="node2" class="node">
<title>dutch_oven</title>
<polygon fill="none" stroke="black" points="184.5,-292.5 184.5,-328.5 285.5,-328.5 285.5,-292.5 184.5,-292.5"/>
<text text-anchor="middle" x="235" y="-306.8" font-family="Times,serif" font-size="14.00">Dutch Oven</text>
</g>
<!-- heat_oil -->
<g id="node3" class="node">
<title>heat_oil</title>
<polygon fill="none" stroke="black" points="0,-219.5 0,-255.5 362,-255.5 362,-219.5 0,-219.5"/>
<text text-anchor="middle" x="181" y="-233.8" font-family="Times,serif" font-size="14.00">Heat Oil in a Dutch oven over medium&#45;high heat</text>
</g>
<!-- heat_oil&#45;&gt;olive_oil -->
<g id="edge1" class="edge">
<title>heat_oil&#45;&gt;olive_oil</title>
<path fill="none" stroke="black" d="M167.93,-255.69C161.36,-264.32 153.28,-274.94 146.04,-284.47"/>
<polygon fill="black" stroke="black" points="143.22,-282.39 139.95,-292.47 148.79,-286.63 143.22,-282.39"/>
</g>
<!-- heat_oil&#45;&gt;dutch_oven -->
<g id="edge2" class="edge">
<title>heat_oil&#45;&gt;dutch_oven</title>
<path fill="none" stroke="black" d="M194.07,-255.69C200.64,-264.32 208.72,-274.94 215.96,-284.47"/>
<polygon fill="black" stroke="black" points="213.21,-286.63 222.05,-292.47 218.78,-282.39 213.21,-286.63"/>
</g>
<!-- salt_and_pepper -->
<g id="node4" class="node">
<title>salt_and_pepper</title>
<polygon fill="none" stroke="black" points="340.5,-292.5 340.5,-328.5 471.5,-328.5 471.5,-292.5 340.5,-292.5"/>
<text text-anchor="middle" x="406" y="-306.8" font-family="Times,serif" font-size="14.00">Salt and Pepper</text>
</g>
<!-- chicken_thighs -->
<g id="node5" class="node">
<title>chicken_thighs</title>
<polygon fill="none" stroke="black" points="490,-292.5 490,-328.5 616,-328.5 616,-292.5 490,-292.5"/>
<text text-anchor="middle" x="553" y="-306.8" font-family="Times,serif" font-size="14.00">Chicken Thighs</text>
</g>
<!-- season_chicken -->
<g id="node6" class="node">
<title>season_chicken</title>
<polygon fill="none" stroke="black" points="380,-219.5 380,-255.5 506,-255.5 506,-219.5 380,-219.5"/>
<text text-anchor="middle" x="443" y="-233.8" font-family="Times,serif" font-size="14.00">season_chicken</text>
</g>
<!-- season_chicken&#45;&gt;salt_and_pepper -->
<g id="edge3" class="edge">
<title>season_chicken&#45;&gt;salt_and_pepper</title>
<path fill="none" stroke="black" d="M434.04,-255.69C429.68,-264.06 424.34,-274.3 419.5,-283.6"/>
<polygon fill="black" stroke="black" points="416.39,-281.99 414.87,-292.47 422.6,-285.22 416.39,-281.99"/>
</g>
<!-- season_chicken&#45;&gt;chicken_thighs -->
<g id="edge4" class="edge">
<title>season_chicken&#45;&gt;chicken_thighs</title>
<path fill="none" stroke="black" d="M469.35,-255.51C483.93,-264.92 502.25,-276.74 518.02,-286.93"/>
<polygon fill="black" stroke="black" points="516.19,-289.9 526.49,-292.39 519.98,-284.02 516.19,-289.9"/>
</g>
<!-- browned_chicken -->
<g id="node7" class="node">
<title>browned_chicken</title>
<polygon fill="none" stroke="black" points="242,-146.5 242,-182.5 382,-182.5 382,-146.5 242,-146.5"/>
<text text-anchor="middle" x="312" y="-160.8" font-family="Times,serif" font-size="14.00">browned_chicken</text>
</g>
<!-- browned_chicken&#45;&gt;heat_oil -->
<g id="edge6" class="edge">
<title>browned_chicken&#45;&gt;heat_oil</title>
<path fill="none" stroke="black" d="M280.62,-182.51C262.93,-192.1 240.63,-204.18 221.61,-214.49"/>
<polygon fill="black" stroke="black" points="219.7,-211.54 212.58,-219.39 223.04,-217.7 219.7,-211.54"/>
</g>
<!-- browned_chicken&#45;&gt;season_chicken -->
<g id="edge5" class="edge">
<title>browned_chicken&#45;&gt;season_chicken</title>
<path fill="none" stroke="black" d="M343.38,-182.51C361.07,-192.1 383.37,-204.18 402.39,-214.49"/>
<polygon fill="black" stroke="black" points="400.96,-217.7 411.42,-219.39 404.3,-211.54 400.96,-217.7"/>
</g>
<!-- dutch_oven_with_drippings -->
<g id="node8" class="node">
<title>dutch_oven_with_drippings</title>
<polygon fill="none" stroke="black" points="181.5,-73.5 181.5,-109.5 392.5,-109.5 392.5,-73.5 181.5,-73.5"/>
<text text-anchor="middle" x="287" y="-87.8" font-family="Times,serif" font-size="14.00">dutch_oven_with_drippings</text>
</g>
<!-- dutch_oven_with_drippings&#45;&gt;browned_chicken -->
<g id="edge8" class="edge">
<title>dutch_oven_with_drippings&#45;&gt;browned_chicken</title>
<path fill="none" stroke="black" d="M293.05,-109.69C295.94,-117.88 299.46,-127.88 302.67,-137.02"/>
<polygon fill="black" stroke="black" points="299.38,-138.2 306,-146.47 305.98,-135.88 299.38,-138.2"/>
</g>
<!-- slow_cooker -->
<g id="node10" class="node">
<title>slow_cooker</title>
<polygon fill="none" stroke="black" points="413.5,-146.5 413.5,-182.5 516.5,-182.5 516.5,-146.5 413.5,-146.5"/>
<text text-anchor="middle" x="465" y="-160.8" font-family="Times,serif" font-size="14.00">slow_cooker</text>
</g>
<!-- dutch_oven_with_drippings&#45;&gt;slow_cooker -->
<g id="edge7" class="edge">
<title>dutch_oven_with_drippings&#45;&gt;slow_cooker</title>
<path fill="none" stroke="black" d="M329.64,-109.51C354.55,-119.44 386.19,-132.07 412.62,-142.61"/>
<polygon fill="black" stroke="black" points="411.51,-145.93 422.1,-146.39 414.1,-139.43 411.51,-145.93"/>
</g>
<!-- transfer_chicken -->
<g id="node9" class="node">
<title>transfer_chicken</title>
<polygon fill="none" stroke="black" points="410.5,-73.5 410.5,-109.5 545.5,-109.5 545.5,-73.5 410.5,-73.5"/>
<text text-anchor="middle" x="478" y="-87.8" font-family="Times,serif" font-size="14.00">transfer_chicken</text>
</g>
<!-- transfer_chicken&#45;&gt;browned_chicken -->
<g id="edge10" class="edge">
<title>transfer_chicken&#45;&gt;browned_chicken</title>
<path fill="none" stroke="black" d="M438.24,-109.51C415.21,-119.36 386.01,-131.84 361.5,-142.33"/>
<polygon fill="black" stroke="black" points="359.83,-139.24 352.01,-146.39 362.58,-145.67 359.83,-139.24"/>
</g>
<!-- transfer_chicken&#45;&gt;slow_cooker -->
<g id="edge9" class="edge">
<title>transfer_chicken&#45;&gt;slow_cooker</title>
<path fill="none" stroke="black" d="M474.85,-109.69C473.38,-117.71 471.6,-127.45 469.96,-136.43"/>
<polygon fill="black" stroke="black" points="466.48,-136 468.12,-146.47 473.36,-137.27 466.48,-136"/>
</g>
<!-- chopped_onion -->
<g id="node11" class="node">
<title>chopped_onion</title>
<polygon fill="none" stroke="black" points="563.5,-73.5 563.5,-109.5 900.5,-109.5 900.5,-73.5 563.5,-73.5"/>
<text text-anchor="middle" x="732" y="-87.8" font-family="Times,serif" font-size="14.00">1 large yellow or white onion, finely chopped</text>
</g>
<!-- jalapeno -->
<g id="node12" class="node">
<title>jalapeno</title>
<polygon fill="none" stroke="black" points="919,-73.5 919,-109.5 1167,-109.5 1167,-73.5 919,-73.5"/>
<text text-anchor="middle" x="1043" y="-87.8" font-family="Times,serif" font-size="14.00">1 large japapeno, finely chopped</text>
</g>
<!-- browning_aromatics -->
<g id="node13" class="node">
<title>browning_aromatics</title>
<polygon fill="none" stroke="black" points="651.5,-0.5 651.5,-36.5 812.5,-36.5 812.5,-0.5 651.5,-0.5"/>
<text text-anchor="middle" x="732" y="-14.8" font-family="Times,serif" font-size="14.00">browning_aromatics</text>
</g>
<!-- browning_aromatics&#45;&gt;dutch_oven_with_drippings -->
<g id="edge13" class="edge">
<title>browning_aromatics&#45;&gt;dutch_oven_with_drippings</title>
<path fill="none" stroke="black" d="M651.41,-32.36C581.88,-43.45 480.61,-59.61 402.46,-72.08"/>
<polygon fill="black" stroke="black" points="401.89,-68.62 392.57,-73.66 402.99,-75.54 401.89,-68.62"/>
</g>
<!-- browning_aromatics&#45;&gt;chopped_onion -->
<g id="edge11" class="edge">
<title>browning_aromatics&#45;&gt;chopped_onion</title>
<path fill="none" stroke="black" d="M732,-36.69C732,-44.71 732,-54.45 732,-63.43"/>
<polygon fill="black" stroke="black" points="728.5,-63.47 732,-73.47 735.5,-63.47 728.5,-63.47"/>
</g>
<!-- browning_aromatics&#45;&gt;jalapeno -->
<g id="edge12" class="edge">
<title>browning_aromatics&#45;&gt;jalapeno</title>
<path fill="none" stroke="black" d="M806.49,-36.51C852.21,-46.94 910.89,-60.34 958.36,-71.18"/>
<polygon fill="black" stroke="black" points="957.78,-74.63 968.31,-73.45 959.34,-67.81 957.78,-74.63"/>
</g>
</g>
</svg>
