<?xml version="1.0" encoding="UTF-8" standalone="no"?>
<!DOCTYPE svg PUBLIC "-//W3C//DTD SVG 1.1//EN"
 "http://www.w3.org/Graphics/SVG/1.1/DTD/svg11.dtd">
<!-- Generated by graphviz version 2.43.0 (0)
 -->
<!-- Title: recipe Pages: 1 -->
<svg width="1385pt" height="775pt"
 viewBox="0.00 0.00 1385.00 775.00" xmlns="http://www.w3.org/2000/svg" xmlns:xlink="http://www.w3.org/1999/xlink">
<g id="graph0" class="graph" transform="scale(1 1) rotate(0) translate(4 771)">
<title>recipe</title>
<polygon fill="white" stroke="transparent" points="-4,4 -4,-771 1381,-771 1381,4 -4,4"/>
<!-- olive_oil -->
<g id="node1" class="node">
<title>olive_oil</title>
<polygon fill="none" stroke="black" points="336.5,-730.5 336.5,-766.5 414.5,-766.5 414.5,-730.5 336.5,-730.5"/>
<text text-anchor="middle" x="375.5" y="-744.8" font-family="Times,serif" font-size="14.00">Olive Oil</text>
</g>
<!-- dutch_oven -->
<g id="node2" class="node">
<title>dutch_oven</title>
<polygon fill="none" stroke="black" points="433,-730.5 433,-766.5 534,-766.5 534,-730.5 433,-730.5"/>
<text text-anchor="middle" x="483.5" y="-744.8" font-family="Times,serif" font-size="14.00">Dutch Oven</text>
</g>
<!-- heat_oil -->
<g id="node3" class="node">
<title>heat_oil</title>
<polygon fill="none" stroke="black" points="265.5,-657.5 265.5,-693.5 627.5,-693.5 627.5,-657.5 265.5,-657.5"/>
<text text-anchor="middle" x="446.5" y="-671.8" font-family="Times,serif" font-size="14.00">Heat Oil in a Dutch oven over medium&#45;high heat</text>
</g>
<!-- heat_oil&#45;&gt;olive_oil -->
<g id="edge1" class="edge">
<title>heat_oil&#45;&gt;olive_oil</title>
<path fill="none" stroke="black" d="M429.31,-693.69C420.42,-702.58 409.41,-713.59 399.67,-723.33"/>
<polygon fill="black" stroke="black" points="397.13,-720.93 392.53,-730.47 402.07,-725.87 397.13,-720.93"/>
</g>
<!-- heat_oil&#45;&gt;dutch_oven -->
<g id="edge2" class="edge">
<title>heat_oil&#45;&gt;dutch_oven</title>
<path fill="none" stroke="black" d="M455.46,-693.69C459.82,-702.06 465.16,-712.3 470,-721.6"/>
<polygon fill="black" stroke="black" points="466.9,-723.22 474.63,-730.47 473.11,-719.99 466.9,-723.22"/>
</g>
<!-- salt_and_pepper -->
<g id="node4" class="node">
<title>salt_and_pepper</title>
<polygon fill="none" stroke="black" points="0,-730.5 0,-766.5 131,-766.5 131,-730.5 0,-730.5"/>
<text text-anchor="middle" x="65.5" y="-744.8" font-family="Times,serif" font-size="14.00">Salt and Pepper</text>
</g>
<!-- chicken_thighs -->
<g id="node5" class="node">
<title>chicken_thighs</title>
<polygon fill="none" stroke="black" points="149.5,-730.5 149.5,-766.5 275.5,-766.5 275.5,-730.5 149.5,-730.5"/>
<text text-anchor="middle" x="212.5" y="-744.8" font-family="Times,serif" font-size="14.00">Chicken Thighs</text>
</g>
<!-- season_chicken -->
<g id="node6" class="node">
<title>season_chicken</title>
<polygon fill="none" stroke="black" points="121.5,-657.5 121.5,-693.5 247.5,-693.5 247.5,-657.5 121.5,-657.5"/>
<text text-anchor="middle" x="184.5" y="-671.8" font-family="Times,serif" font-size="14.00">season_chicken</text>
</g>
<!-- season_chicken&#45;&gt;salt_and_pepper -->
<g id="edge3" class="edge">
<title>season_chicken&#45;&gt;salt_and_pepper</title>
<path fill="none" stroke="black" d="M156,-693.51C140.07,-703.01 120.03,-714.96 102.86,-725.21"/>
<polygon fill="black" stroke="black" points="100.98,-722.26 94.18,-730.39 104.56,-728.27 100.98,-722.26"/>
</g>
<!-- season_chicken&#45;&gt;chicken_thighs -->
<g id="edge4" class="edge">
<title>season_chicken&#45;&gt;chicken_thighs</title>
<path fill="none" stroke="black" d="M191.28,-693.69C194.51,-701.88 198.45,-711.88 202.06,-721.02"/>
<polygon fill="black" stroke="black" points="198.86,-722.45 205.78,-730.47 205.37,-719.88 198.86,-722.45"/>
</g>
<!-- browned_chicken -->
<g id="node7" class="node">
<title>browned_chicken</title>
<polygon fill="none" stroke="black" points="269.5,-584.5 269.5,-620.5 409.5,-620.5 409.5,-584.5 269.5,-584.5"/>
<text text-anchor="middle" x="339.5" y="-598.8" font-family="Times,serif" font-size="14.00">browned_chicken</text>
</g>
<!-- browned_chicken&#45;&gt;heat_oil -->
<g id="edge6" class="edge">
<title>browned_chicken&#45;&gt;heat_oil</title>
<path fill="none" stroke="black" d="M365.13,-620.51C379.19,-629.83 396.81,-641.53 412.05,-651.64"/>
<polygon fill="black" stroke="black" points="410.44,-654.77 420.71,-657.39 414.31,-648.94 410.44,-654.77"/>
</g>
<!-- browned_chicken&#45;&gt;season_chicken -->
<g id="edge5" class="edge">
<title>browned_chicken&#45;&gt;season_chicken</title>
<path fill="none" stroke="black" d="M302.37,-620.51C280.96,-630.31 253.85,-642.73 231.02,-653.19"/>
<polygon fill="black" stroke="black" points="229.49,-650.04 221.86,-657.39 232.41,-656.4 229.49,-650.04"/>
</g>
<!-- dutch_oven_with_drippings -->
<g id="node8" class="node">
<title>dutch_oven_with_drippings</title>
<polygon fill="none" stroke="black" points="247,-511.5 247,-547.5 458,-547.5 458,-511.5 247,-511.5"/>
<text text-anchor="middle" x="352.5" y="-525.8" font-family="Times,serif" font-size="14.00">dutch_oven_with_drippings</text>
</g>
<!-- dutch_oven_with_drippings&#45;&gt;browned_chicken -->
<g id="edge8" class="edge">
<title>dutch_oven_with_drippings&#45;&gt;browned_chicken</title>
<path fill="none" stroke="black" d="M349.35,-547.69C347.88,-555.71 346.1,-565.45 344.46,-574.43"/>
<polygon fill="black" stroke="black" points="340.98,-574 342.62,-584.47 347.86,-575.27 340.98,-574"/>
</g>
<!-- slow_cooker -->
<g id="node10" class="node">
<title>slow_cooker</title>
<polygon fill="none" stroke="black" points="123,-584.5 123,-620.5 226,-620.5 226,-584.5 123,-584.5"/>
<text text-anchor="middle" x="174.5" y="-598.8" font-family="Times,serif" font-size="14.00">slow_cooker</text>
</g>
<!-- dutch_oven_with_drippings&#45;&gt;slow_cooker -->
<g id="edge7" class="edge">
<title>dutch_oven_with_drippings&#45;&gt;slow_cooker</title>
<path fill="none" stroke="black" d="M309.86,-547.51C284.95,-557.44 253.31,-570.07 226.88,-580.61"/>
<polygon fill="black" stroke="black" points="225.4,-577.43 217.4,-584.39 227.99,-583.93 225.4,-577.43"/>
</g>
<!-- transfer_chicken -->
<g id="node9" class="node">
<title>transfer_chicken</title>
<polygon fill="none" stroke="black" points="94,-511.5 94,-547.5 229,-547.5 229,-511.5 94,-511.5"/>
<text text-anchor="middle" x="161.5" y="-525.8" font-family="Times,serif" font-size="14.00">transfer_chicken</text>
</g>
<!-- transfer_chicken&#45;&gt;browned_chicken -->
<g id="edge10" class="edge">
<title>transfer_chicken&#45;&gt;browned_chicken</title>
<path fill="none" stroke="black" d="M204.14,-547.51C229.05,-557.44 260.69,-570.07 287.12,-580.61"/>
<polygon fill="black" stroke="black" points="286.01,-583.93 296.6,-584.39 288.6,-577.43 286.01,-583.93"/>
</g>
<!-- transfer_chicken&#45;&gt;slow_cooker -->
<g id="edge9" class="edge">
<title>transfer_chicken&#45;&gt;slow_cooker</title>
<path fill="none" stroke="black" d="M164.65,-547.69C166.12,-555.71 167.9,-565.45 169.54,-574.43"/>
<polygon fill="black" stroke="black" points="166.14,-575.27 171.38,-584.47 173.02,-574 166.14,-575.27"/>
</g>
<!-- chopped_onion -->
<g id="node11" class="node">
<title>chopped_onion</title>
<polygon fill="none" stroke="black" points="743,-511.5 743,-547.5 1080,-547.5 1080,-511.5 743,-511.5"/>
<text text-anchor="middle" x="911.5" y="-525.8" font-family="Times,serif" font-size="14.00">1 large yellow or white onion, finely chopped</text>
</g>
<!-- jalapeno -->
<g id="node12" class="node">
<title>jalapeno</title>
<polygon fill="none" stroke="black" points="476.5,-511.5 476.5,-547.5 724.5,-547.5 724.5,-511.5 476.5,-511.5"/>
<text text-anchor="middle" x="600.5" y="-525.8" font-family="Times,serif" font-size="14.00">1 large japapeno, finely chopped</text>
</g>
<!-- softened_aromatics -->
<g id="node13" class="node">
<title>softened_aromatics</title>
<polygon fill="none" stroke="black" points="401,-438.5 401,-474.5 556,-474.5 556,-438.5 401,-438.5"/>
<text text-anchor="middle" x="478.5" y="-452.8" font-family="Times,serif" font-size="14.00">softened_aromatics</text>
</g>
<!-- softened_aromatics&#45;&gt;dutch_oven_with_drippings -->
<g id="edge13" class="edge">
<title>softened_aromatics&#45;&gt;dutch_oven_with_drippings</title>
<path fill="none" stroke="black" d="M448.32,-474.51C431.46,-484.01 410.24,-495.96 392.06,-506.21"/>
<polygon fill="black" stroke="black" points="389.86,-503.43 382.87,-511.39 393.3,-509.53 389.86,-503.43"/>
</g>
<!-- softened_aromatics&#45;&gt;chopped_onion -->
<g id="edge11" class="edge">
<title>softened_aromatics&#45;&gt;chopped_onion</title>
<path fill="none" stroke="black" d="M556.28,-473.5C559.05,-474.02 561.8,-474.52 564.5,-475 636.13,-487.8 716.41,-500.3 781.69,-509.99"/>
<polygon fill="black" stroke="black" points="781.22,-513.46 791.62,-511.46 782.24,-506.53 781.22,-513.46"/>
</g>
<!-- softened_aromatics&#45;&gt;jalapeno -->
<g id="edge12" class="edge">
<title>softened_aromatics&#45;&gt;jalapeno</title>
<path fill="none" stroke="black" d="M507.72,-474.51C524.05,-484.01 544.59,-495.96 562.19,-506.21"/>
<polygon fill="black" stroke="black" points="560.69,-509.38 571.09,-511.39 564.21,-503.33 560.69,-509.38"/>
</g>
<!-- fragrant_aromatics -->
<g id="node14" class="node">
<title>fragrant_aromatics</title>
<polygon fill="none" stroke="black" points="402,-365.5 402,-401.5 555,-401.5 555,-365.5 402,-365.5"/>
<text text-anchor="middle" x="478.5" y="-379.8" font-family="Times,serif" font-size="14.00">fragrant_aromatics</text>
</g>
<!-- fragrant_aromatics&#45;&gt;softened_aromatics -->
<g id="edge14" class="edge">
<title>fragrant_aromatics&#45;&gt;softened_aromatics</title>
<path fill="none" stroke="black" d="M478.5,-401.69C478.5,-409.71 478.5,-419.45 478.5,-428.43"/>
<polygon fill="black" stroke="black" points="475,-428.47 478.5,-438.47 482,-428.47 475,-428.47"/>
</g>
<!-- garlic -->
<g id="node15" class="node">
<title>garlic</title>
<polygon fill="none" stroke="black" points="574,-438.5 574,-474.5 631,-474.5 631,-438.5 574,-438.5"/>
<text text-anchor="middle" x="602.5" y="-452.8" font-family="Times,serif" font-size="14.00">garlic</text>
</g>
<!-- fragrant_aromatics&#45;&gt;garlic -->
<g id="edge15" class="edge">
<title>fragrant_aromatics&#45;&gt;garlic</title>
<path fill="none" stroke="black" d="M508.2,-401.51C525.16,-411.22 546.6,-423.49 564.75,-433.88"/>
<polygon fill="black" stroke="black" points="563.48,-437.19 573.89,-439.12 566.96,-431.12 563.48,-437.19"/>
</g>
<!-- fragrant_spices_and_aromatics -->
<g id="node16" class="node">
<title>fragrant_spices_and_aromatics</title>
<polygon fill="none" stroke="black" points="206,-292.5 206,-328.5 443,-328.5 443,-292.5 206,-292.5"/>
<text text-anchor="middle" x="324.5" y="-306.8" font-family="Times,serif" font-size="14.00">fragrant_spices_and_aromatics</text>
</g>
<!-- fragrant_spices_and_aromatics&#45;&gt;fragrant_aromatics -->
<g id="edge16" class="edge">
<title>fragrant_spices_and_aromatics&#45;&gt;fragrant_aromatics</title>
<path fill="none" stroke="black" d="M361.39,-328.51C382.66,-338.31 409.6,-350.73 432.28,-361.19"/>
<polygon fill="black" stroke="black" points="430.83,-364.38 441.38,-365.39 433.76,-358.02 430.83,-364.38"/>
</g>
<!-- chili_powder -->
<g id="node17" class="node">
<title>chili_powder</title>
<polygon fill="none" stroke="black" points="573,-365.5 573,-401.5 680,-401.5 680,-365.5 573,-365.5"/>
<text text-anchor="middle" x="626.5" y="-379.8" font-family="Times,serif" font-size="14.00">chili_powder</text>
</g>
<!-- fragrant_spices_and_aromatics&#45;&gt;chili_powder -->
<g id="edge17" class="edge">
<title>fragrant_spices_and_aromatics&#45;&gt;chili_powder</title>
<path fill="none" stroke="black" d="M405.23,-328.5C449.21,-338.02 504.79,-350.45 563.16,-364.98"/>
<polygon fill="black" stroke="black" points="562.38,-368.39 572.93,-367.42 564.08,-361.6 562.38,-368.39"/>
</g>
<!-- cumin -->
<g id="node18" class="node">
<title>cumin</title>
<polygon fill="none" stroke="black" points="189.5,-365.5 189.5,-401.5 249.5,-401.5 249.5,-365.5 189.5,-365.5"/>
<text text-anchor="middle" x="219.5" y="-379.8" font-family="Times,serif" font-size="14.00">cumin</text>
</g>
<!-- fragrant_spices_and_aromatics&#45;&gt;cumin -->
<g id="edge18" class="edge">
<title>fragrant_spices_and_aromatics&#45;&gt;cumin</title>
<path fill="none" stroke="black" d="M299.35,-328.51C285.55,-337.83 268.26,-349.53 253.3,-359.64"/>
<polygon fill="black" stroke="black" points="251.13,-356.89 244.81,-365.39 255.05,-362.68 251.13,-356.89"/>
</g>
<!-- cocoa_powder -->
<g id="node19" class="node">
<title>cocoa_powder</title>
<polygon fill="none" stroke="black" points="267.5,-365.5 267.5,-401.5 383.5,-401.5 383.5,-365.5 267.5,-365.5"/>
<text text-anchor="middle" x="325.5" y="-379.8" font-family="Times,serif" font-size="14.00">cocoa_powder</text>
</g>
<!-- fragrant_spices_and_aromatics&#45;&gt;cocoa_powder -->
<g id="edge19" class="edge">
<title>fragrant_spices_and_aromatics&#45;&gt;cocoa_powder</title>
<path fill="none" stroke="black" d="M324.74,-328.69C324.86,-336.71 324.99,-346.45 325.12,-355.43"/>
<polygon fill="black" stroke="black" points="321.62,-355.52 325.26,-365.47 328.62,-355.42 321.62,-355.52"/>
</g>
<!-- boiling_beer_and_fragrant_mixture -->
<g id="node20" class="node">
<title>boiling_beer_and_fragrant_mixture</title>
<polygon fill="none" stroke="black" points="190.5,-219.5 190.5,-255.5 456.5,-255.5 456.5,-219.5 190.5,-219.5"/>
<text text-anchor="middle" x="323.5" y="-233.8" font-family="Times,serif" font-size="14.00">boiling_beer_and_fragrant_mixture</text>
</g>
<!-- boiling_beer_and_fragrant_mixture&#45;&gt;fragrant_spices_and_aromatics -->
<g id="edge20" class="edge">
<title>boiling_beer_and_fragrant_mixture&#45;&gt;fragrant_spices_and_aromatics</title>
<path fill="none" stroke="black" d="M323.74,-255.69C323.86,-263.71 323.99,-273.45 324.12,-282.43"/>
<polygon fill="black" stroke="black" points="320.62,-282.52 324.26,-292.47 327.62,-282.42 320.62,-282.52"/>
</g>
<!-- beer -->
<g id="node21" class="node">
<title>beer</title>
<polygon fill="none" stroke="black" points="461.5,-292.5 461.5,-328.5 515.5,-328.5 515.5,-292.5 461.5,-292.5"/>
<text text-anchor="middle" x="488.5" y="-306.8" font-family="Times,serif" font-size="14.00">beer</text>
</g>
<!-- boiling_beer_and_fragrant_mixture&#45;&gt;beer -->
<g id="edge21" class="edge">
<title>boiling_beer_and_fragrant_mixture&#45;&gt;beer</title>
<path fill="none" stroke="black" d="M365.79,-255.61C390.84,-265.88 423.12,-279.36 451.5,-292 451.7,-292.09 451.91,-292.18 452.11,-292.27"/>
<polygon fill="black" stroke="black" points="450.94,-295.58 461.49,-296.55 453.84,-289.22 450.94,-295.58"/>
</g>
<!-- slow_cooking_mixture -->
<g id="node22" class="node">
<title>slow_cooking_mixture</title>
<polygon fill="none" stroke="black" points="646,-146.5 646,-182.5 819,-182.5 819,-146.5 646,-146.5"/>
<text text-anchor="middle" x="732.5" y="-160.8" font-family="Times,serif" font-size="14.00">slow_cooking_mixture</text>
</g>
<!-- slow_cooking_mixture&#45;&gt;salt_and_pepper -->
<g id="edge32" class="edge">
<title>slow_cooking_mixture&#45;&gt;salt_and_pepper</title>
<path fill="none" stroke="black" d="M645.83,-166.43C506.83,-169.11 241.1,-179.42 156.5,-219 104.84,-243.17 65.5,-252.46 65.5,-309.5 65.5,-309.5 65.5,-309.5 65.5,-603.5 65.5,-644.07 65.5,-691.06 65.5,-720.04"/>
<polygon fill="black" stroke="black" points="62,-720.21 65.5,-730.21 69,-720.21 62,-720.21"/>
</g>
<!-- slow_cooking_mixture&#45;&gt;transfer_chicken -->
<g id="edge22" class="edge">
<title>slow_cooking_mixture&#45;&gt;transfer_chicken</title>
<path fill="none" stroke="black" d="M645.72,-168.4C499.24,-174.1 215.47,-188.9 181.5,-219 150.67,-246.32 161.5,-268.31 161.5,-309.5 161.5,-309.5 161.5,-309.5 161.5,-384.5 161.5,-425.07 161.5,-472.06 161.5,-501.04"/>
<polygon fill="black" stroke="black" points="158,-501.21 161.5,-511.21 165,-501.21 158,-501.21"/>
</g>
<!-- slow_cooking_mixture&#45;&gt;boiling_beer_and_fragrant_mixture -->
<g id="edge23" class="edge">
<title>slow_cooking_mixture&#45;&gt;boiling_beer_and_fragrant_mixture</title>
<path fill="none" stroke="black" d="M645.76,-180.56C583.31,-191.4 498.63,-206.1 431.75,-217.71"/>
<polygon fill="black" stroke="black" points="430.85,-214.31 421.6,-219.47 432.05,-221.21 430.85,-214.31"/>
</g>
<!-- bay_leaves -->
<g id="node23" class="node">
<title>bay_leaves</title>
<polygon fill="none" stroke="black" points="474.5,-219.5 474.5,-255.5 568.5,-255.5 568.5,-219.5 474.5,-219.5"/>
<text text-anchor="middle" x="521.5" y="-233.8" font-family="Times,serif" font-size="14.00">bay_leaves</text>
</g>
<!-- slow_cooking_mixture&#45;&gt;bay_leaves -->
<g id="edge24" class="edge">
<title>slow_cooking_mixture&#45;&gt;bay_leaves</title>
<path fill="none" stroke="black" d="M681.96,-182.51C650.8,-192.99 610.77,-206.46 578.49,-217.32"/>
<polygon fill="black" stroke="black" points="577.1,-214.1 568.74,-220.61 579.33,-220.73 577.1,-214.1"/>
</g>
<!-- thyme -->
<g id="node24" class="node">
<title>thyme</title>
<polygon fill="none" stroke="black" points="586.5,-219.5 586.5,-255.5 648.5,-255.5 648.5,-219.5 586.5,-219.5"/>
<text text-anchor="middle" x="617.5" y="-233.8" font-family="Times,serif" font-size="14.00">thyme</text>
</g>
<!-- slow_cooking_mixture&#45;&gt;thyme -->
<g id="edge25" class="edge">
<title>slow_cooking_mixture&#45;&gt;thyme</title>
<path fill="none" stroke="black" d="M704.95,-182.51C689.7,-191.92 670.55,-203.74 654.06,-213.93"/>
<polygon fill="black" stroke="black" points="651.89,-211.15 645.22,-219.39 655.57,-217.11 651.89,-211.15"/>
</g>
<!-- chipotle_pepper -->
<g id="node25" class="node">
<title>chipotle_pepper</title>
<polygon fill="none" stroke="black" points="667,-219.5 667,-255.5 798,-255.5 798,-219.5 667,-219.5"/>
<text text-anchor="middle" x="732.5" y="-233.8" font-family="Times,serif" font-size="14.00">chipotle_pepper</text>
</g>
<!-- slow_cooking_mixture&#45;&gt;chipotle_pepper -->
<g id="edge26" class="edge">
<title>slow_cooking_mixture&#45;&gt;chipotle_pepper</title>
<path fill="none" stroke="black" d="M732.5,-182.69C732.5,-190.71 732.5,-200.45 732.5,-209.43"/>
<polygon fill="black" stroke="black" points="729,-209.47 732.5,-219.47 736,-209.47 729,-209.47"/>
</g>
<!-- tomatoes -->
<g id="node26" class="node">
<title>tomatoes</title>
<polygon fill="none" stroke="black" points="816,-219.5 816,-255.5 899,-255.5 899,-219.5 816,-219.5"/>
<text text-anchor="middle" x="857.5" y="-233.8" font-family="Times,serif" font-size="14.00">tomatoes</text>
</g>
<!-- slow_cooking_mixture&#45;&gt;tomatoes -->
<g id="edge27" class="edge">
<title>slow_cooking_mixture&#45;&gt;tomatoes</title>
<path fill="none" stroke="black" d="M762.44,-182.51C779.17,-192.01 800.22,-203.96 818.25,-214.21"/>
<polygon fill="black" stroke="black" points="816.95,-217.49 827.37,-219.39 820.4,-211.4 816.95,-217.49"/>
</g>
<!-- tomato_paste -->
<g id="node27" class="node">
<title>tomato_paste</title>
<polygon fill="none" stroke="black" points="917,-219.5 917,-255.5 1030,-255.5 1030,-219.5 917,-219.5"/>
<text text-anchor="middle" x="973.5" y="-233.8" font-family="Times,serif" font-size="14.00">tomato_paste</text>
</g>
<!-- slow_cooking_mixture&#45;&gt;tomato_paste -->
<g id="edge28" class="edge">
<title>slow_cooking_mixture&#45;&gt;tomato_paste</title>
<path fill="none" stroke="black" d="M790.23,-182.51C825.38,-192.86 870.42,-206.13 907.06,-216.92"/>
<polygon fill="black" stroke="black" points="906.08,-220.29 916.66,-219.76 908.06,-213.57 906.08,-220.29"/>
</g>
<!-- vinegar -->
<g id="node28" class="node">
<title>vinegar</title>
<polygon fill="none" stroke="black" points="1048,-219.5 1048,-255.5 1119,-255.5 1119,-219.5 1048,-219.5"/>
<text text-anchor="middle" x="1083.5" y="-233.8" font-family="Times,serif" font-size="14.00">vinegar</text>
</g>
<!-- slow_cooking_mixture&#45;&gt;vinegar -->
<g id="edge29" class="edge">
<title>slow_cooking_mixture&#45;&gt;vinegar</title>
<path fill="none" stroke="black" d="M819.1,-181.33C822.27,-181.9 825.41,-182.45 828.5,-183 918.65,-198.94 945.48,-194.07 1038.08,-219.2"/>
<polygon fill="black" stroke="black" points="1037.29,-222.61 1047.86,-221.89 1039.15,-215.86 1037.29,-222.61"/>
</g>
<!-- green_chiles -->
<g id="node29" class="node">
<title>green_chiles</title>
<polygon fill="none" stroke="black" points="1137.5,-219.5 1137.5,-255.5 1243.5,-255.5 1243.5,-219.5 1137.5,-219.5"/>
<text text-anchor="middle" x="1190.5" y="-233.8" font-family="Times,serif" font-size="14.00">green_chiles</text>
</g>
<!-- slow_cooking_mixture&#45;&gt;green_chiles -->
<g id="edge30" class="edge">
<title>slow_cooking_mixture&#45;&gt;green_chiles</title>
<path fill="none" stroke="black" d="M819.07,-181.53C822.25,-182.04 825.4,-182.53 828.5,-183 958.04,-202.56 995.02,-193.17 1127.1,-218.89"/>
<polygon fill="black" stroke="black" points="1126.7,-222.38 1137.19,-220.88 1128.06,-215.51 1126.7,-222.38"/>
</g>
<!-- chicken_stock -->
<g id="node30" class="node">
<title>chicken_stock</title>
<polygon fill="none" stroke="black" points="1262,-219.5 1262,-255.5 1377,-255.5 1377,-219.5 1262,-219.5"/>
<text text-anchor="middle" x="1319.5" y="-233.8" font-family="Times,serif" font-size="14.00">chicken_stock</text>
</g>
<!-- slow_cooking_mixture&#45;&gt;chicken_stock -->
<g id="edge31" class="edge">
<title>slow_cooking_mixture&#45;&gt;chicken_stock</title>
<path fill="none" stroke="black" d="M819.05,-181.67C822.23,-182.14 825.39,-182.59 828.5,-183 1012.76,-207.56 1064.35,-187.69 1251.98,-219.1"/>
<polygon fill="black" stroke="black" points="1251.45,-222.56 1261.89,-220.79 1252.62,-215.66 1251.45,-222.56"/>
</g>
<!-- soup -->
<g id="node31" class="node">
<title>soup</title>
<polygon fill="none" stroke="black" points="817.5,-73.5 817.5,-109.5 871.5,-109.5 871.5,-73.5 817.5,-73.5"/>
<text text-anchor="middle" x="844.5" y="-87.8" font-family="Times,serif" font-size="14.00">soup</text>
</g>
<!-- soup&#45;&gt;slow_cooking_mixture -->
<g id="edge34" class="edge">
<title>soup&#45;&gt;slow_cooking_mixture</title>
<path fill="none" stroke="black" d="M817.67,-109.51C802.82,-118.92 784.17,-130.74 768.11,-140.93"/>
<polygon fill="black" stroke="black" points="766.07,-138.08 759.5,-146.39 769.82,-143.99 766.07,-138.08"/>
</g>
<!-- discard_bay_leaves_and_thyme -->
<g id="node32" class="node">
<title>discard_bay_leaves_and_thyme</title>
<polygon fill="none" stroke="black" points="837.5,-146.5 837.5,-182.5 1075.5,-182.5 1075.5,-146.5 837.5,-146.5"/>
<text text-anchor="middle" x="956.5" y="-160.8" font-family="Times,serif" font-size="14.00">discard_bay_leaves_and_thyme</text>
</g>
<!-- soup&#45;&gt;discard_bay_leaves_and_thyme -->
<g id="edge33" class="edge">
<title>soup&#45;&gt;discard_bay_leaves_and_thyme</title>
<path fill="none" stroke="black" d="M871.33,-109.51C886.18,-118.92 904.83,-130.74 920.89,-140.93"/>
<polygon fill="black" stroke="black" points="919.18,-143.99 929.5,-146.39 922.93,-138.08 919.18,-143.99"/>
</g>
<!-- garnished_soup -->
<g id="node33" class="node">
<title>garnished_soup</title>
<polygon fill="none" stroke="black" points="831.5,-0.5 831.5,-36.5 959.5,-36.5 959.5,-0.5 831.5,-0.5"/>
<text text-anchor="middle" x="895.5" y="-14.8" font-family="Times,serif" font-size="14.00">garnished_soup</text>
</g>
<!-- garnished_soup&#45;&gt;soup -->
<g id="edge35" class="edge">
<title>garnished_soup&#45;&gt;soup</title>
<path fill="none" stroke="black" d="M883.15,-36.69C877.02,-45.23 869.48,-55.73 862.69,-65.18"/>
<polygon fill="black" stroke="black" points="859.72,-63.31 856.73,-73.47 865.41,-67.39 859.72,-63.31"/>
</g>
<!-- tortilla_strips -->
<g id="node34" class="node">
<title>tortilla_strips</title>
<polygon fill="none" stroke="black" points="890,-73.5 890,-109.5 1003,-109.5 1003,-73.5 890,-73.5"/>
<text text-anchor="middle" x="946.5" y="-87.8" font-family="Times,serif" font-size="14.00">tortilla_strips</text>
</g>
<!-- garnished_soup&#45;&gt;tortilla_strips -->
<g id="edge36" class="edge">
<title>garnished_soup&#45;&gt;tortilla_strips</title>
<path fill="none" stroke="black" d="M907.85,-36.69C913.98,-45.23 921.52,-55.73 928.31,-65.18"/>
<polygon fill="black" stroke="black" points="925.59,-67.39 934.27,-73.47 931.28,-63.31 925.59,-67.39"/>
</g>
</g>
</svg>
