<?xml version="1.0" encoding="UTF-8" standalone="no"?>
<!DOCTYPE svg PUBLIC "-//W3C//DTD SVG 1.1//EN"
 "http://www.w3.org/Graphics/SVG/1.1/DTD/svg11.dtd">
<!-- Generated by graphviz version 2.43.0 (0)
 -->
<!-- Title: recipe Pages: 1 -->
<svg width="791pt" height="612pt"
 viewBox="0.00 0.00 790.66 612.00" xmlns="http://www.w3.org/2000/svg" xmlns:xlink="http://www.w3.org/1999/xlink">
<g id="graph0" class="graph" transform="scale(1.75 1.75) rotate(0) translate(4 1068.05)">
<title>recipe</title>
<polygon fill="white" stroke="transparent" points="-4,4 -4,-1068.05 1381,-1068.05 1381,4 -4,4"/>
<!-- olive_oil -->
<g id="node1" class="node">
<title>olive_oil</title>
<polygon fill="none" stroke="black" points="336.5,-1020.05 336.5,-1056.05 414.5,-1056.05 414.5,-1020.05 336.5,-1020.05"/>
<text text-anchor="middle" x="375.5" y="-1034.35" font-family="Times,serif" font-size="14.00">Olive Oil</text>
</g>
<!-- dutch_oven -->
<g id="node2" class="node">
<title>dutch_oven</title>
<polygon fill="none" stroke="black" points="433,-1020.05 433,-1056.05 534,-1056.05 534,-1020.05 433,-1020.05"/>
<text text-anchor="middle" x="483.5" y="-1034.35" font-family="Times,serif" font-size="14.00">Dutch Oven</text>
</g>
<!-- heat_oil -->
<g id="node3" class="node">
<title>heat_oil</title>
<polygon fill="none" stroke="black" points="265.5,-919.05 265.5,-955.05 627.5,-955.05 627.5,-919.05 265.5,-919.05"/>
<text text-anchor="middle" x="446.5" y="-933.35" font-family="Times,serif" font-size="14.00">Heat Oil in a Dutch oven over medium&#45;high heat</text>
</g>
<!-- heat_oil&#45;&gt;olive_oil -->
<g id="edge1" class="edge">
<title>heat_oil&#45;&gt;olive_oil</title>
<path fill="none" stroke="black" d="M434.13,-955.29C422.93,-970.91 406.29,-994.11 393.6,-1011.81"/>
<polygon fill="black" stroke="black" points="390.71,-1009.83 387.73,-1020 396.4,-1013.91 390.71,-1009.83"/>
</g>
<!-- heat_oil&#45;&gt;dutch_oven -->
<g id="edge2" class="edge">
<title>heat_oil&#45;&gt;dutch_oven</title>
<path fill="none" stroke="black" d="M452.94,-955.29C458.62,-970.48 466.98,-992.85 473.52,-1010.35"/>
<polygon fill="black" stroke="black" points="470.35,-1011.86 477.13,-1020 476.91,-1009.41 470.35,-1011.86"/>
</g>
<!-- salt_and_pepper -->
<g id="node4" class="node">
<title>salt_and_pepper</title>
<polygon fill="none" stroke="black" points="0,-1020.05 0,-1056.05 131,-1056.05 131,-1020.05 0,-1020.05"/>
<text text-anchor="middle" x="65.5" y="-1034.35" font-family="Times,serif" font-size="14.00">Salt and Pepper</text>
</g>
<!-- chicken_thighs -->
<g id="node5" class="node">
<title>chicken_thighs</title>
<polygon fill="none" stroke="black" points="149.5,-1020.05 149.5,-1056.05 275.5,-1056.05 275.5,-1020.05 149.5,-1020.05"/>
<text text-anchor="middle" x="212.5" y="-1034.35" font-family="Times,serif" font-size="14.00">Chicken Thighs</text>
</g>
<!-- season_chicken -->
<g id="node6" class="node">
<title>season_chicken</title>
<polygon fill="none" stroke="black" points="121.5,-919.05 121.5,-955.05 247.5,-955.05 247.5,-919.05 121.5,-919.05"/>
<text text-anchor="middle" x="184.5" y="-933.35" font-family="Times,serif" font-size="14.00">season_chicken</text>
</g>
<!-- season_chicken&#45;&gt;salt_and_pepper -->
<g id="edge3" class="edge">
<title>season_chicken&#45;&gt;salt_and_pepper</title>
<path fill="none" stroke="black" d="M164.04,-955.06C144.72,-971.14 115.55,-995.41 93.96,-1013.37"/>
<polygon fill="black" stroke="black" points="91.54,-1010.83 86.09,-1019.92 96.01,-1016.21 91.54,-1010.83"/>
</g>
<!-- season_chicken&#45;&gt;chicken_thighs -->
<g id="edge4" class="edge">
<title>season_chicken&#45;&gt;chicken_thighs</title>
<path fill="none" stroke="black" d="M189.38,-955.29C193.67,-970.48 200,-992.85 204.95,-1010.35"/>
<polygon fill="black" stroke="black" points="201.59,-1011.33 207.68,-1020 208.32,-1009.42 201.59,-1011.33"/>
</g>
<!-- browned_chicken -->
<g id="node7" class="node">
<title>browned_chicken</title>
<polygon fill="none" stroke="black" points="269.5,-818.05 269.5,-854.05 409.5,-854.05 409.5,-818.05 269.5,-818.05"/>
<text text-anchor="middle" x="339.5" y="-832.35" font-family="Times,serif" font-size="14.00">browned_chicken</text>
</g>
<!-- browned_chicken&#45;&gt;heat_oil -->
<g id="edge6" class="edge">
<title>browned_chicken&#45;&gt;heat_oil</title>
<path fill="none" stroke="black" d="M358.14,-854.29C375.4,-870.26 401.24,-894.17 420.52,-912.01"/>
<polygon fill="black" stroke="black" points="418.36,-914.78 428.08,-919 423.11,-909.64 418.36,-914.78"/>
</g>
<!-- browned_chicken&#45;&gt;season_chicken -->
<g id="edge5" class="edge">
<title>browned_chicken&#45;&gt;season_chicken</title>
<path fill="none" stroke="black" d="M312.85,-854.06C287.24,-870.43 248.35,-895.27 220.09,-913.32"/>
<polygon fill="black" stroke="black" points="217.86,-910.58 211.32,-918.92 221.63,-916.48 217.86,-910.58"/>
</g>
<!-- dutch_oven_with_drippings -->
<g id="node8" class="node">
<title>dutch_oven_with_drippings</title>
<polygon fill="none" stroke="black" points="247,-717.05 247,-753.05 458,-753.05 458,-717.05 247,-717.05"/>
<text text-anchor="middle" x="352.5" y="-731.35" font-family="Times,serif" font-size="14.00">dutch_oven_with_drippings</text>
</g>
<!-- dutch_oven_with_drippings&#45;&gt;browned_chicken -->
<g id="edge8" class="edge">
<title>dutch_oven_with_drippings&#45;&gt;browned_chicken</title>
<path fill="none" stroke="black" d="M350.24,-753.29C348.26,-768.34 345.36,-790.43 343.07,-807.86"/>
<polygon fill="black" stroke="black" points="339.57,-807.63 341.74,-818 346.51,-808.54 339.57,-807.63"/>
</g>
<!-- slow_cooker -->
<g id="node10" class="node">
<title>slow_cooker</title>
<polygon fill="none" stroke="black" points="123,-818.05 123,-854.05 226,-854.05 226,-818.05 123,-818.05"/>
<text text-anchor="middle" x="174.5" y="-832.35" font-family="Times,serif" font-size="14.00">slow_cooker</text>
</g>
<!-- dutch_oven_with_drippings&#45;&gt;slow_cooker -->
<g id="edge7" class="edge">
<title>dutch_oven_with_drippings&#45;&gt;slow_cooker</title>
<path fill="none" stroke="black" d="M321.9,-753.06C292.1,-769.64 246.66,-794.91 214.11,-813.02"/>
<polygon fill="black" stroke="black" points="212.33,-810 205.3,-817.92 215.74,-816.12 212.33,-810"/>
</g>
<!-- transfer_chicken -->
<g id="node9" class="node">
<title>transfer_chicken</title>
<polygon fill="none" stroke="black" points="94,-717.05 94,-753.05 229,-753.05 229,-717.05 94,-717.05"/>
<text text-anchor="middle" x="161.5" y="-731.35" font-family="Times,serif" font-size="14.00">transfer_chicken</text>
</g>
<!-- transfer_chicken&#45;&gt;browned_chicken -->
<g id="edge10" class="edge">
<title>transfer_chicken&#45;&gt;browned_chicken</title>
<path fill="none" stroke="black" d="M192.1,-753.06C221.9,-769.64 267.34,-794.91 299.89,-813.02"/>
<polygon fill="black" stroke="black" points="298.26,-816.12 308.7,-817.92 301.67,-810 298.26,-816.12"/>
</g>
<!-- transfer_chicken&#45;&gt;slow_cooker -->
<g id="edge9" class="edge">
<title>transfer_chicken&#45;&gt;slow_cooker</title>
<path fill="none" stroke="black" d="M163.76,-753.29C165.74,-768.34 168.64,-790.43 170.93,-807.86"/>
<polygon fill="black" stroke="black" points="167.49,-808.54 172.26,-818 174.43,-807.63 167.49,-808.54"/>
</g>
<!-- chopped_onion -->
<g id="node11" class="node">
<title>chopped_onion</title>
<polygon fill="none" stroke="black" points="743,-717.05 743,-753.05 1080,-753.05 1080,-717.05 743,-717.05"/>
<text text-anchor="middle" x="911.5" y="-731.35" font-family="Times,serif" font-size="14.00">1 large yellow or white onion, finely chopped</text>
</g>
<!-- jalapeno -->
<g id="node12" class="node">
<title>jalapeno</title>
<polygon fill="none" stroke="black" points="476.5,-717.05 476.5,-753.05 724.5,-753.05 724.5,-717.05 476.5,-717.05"/>
<text text-anchor="middle" x="600.5" y="-731.35" font-family="Times,serif" font-size="14.00">1 large japapeno, finely chopped</text>
</g>
<!-- softened_aromatics -->
<g id="node13" class="node">
<title>softened_aromatics</title>
<polygon fill="none" stroke="black" points="401,-615.05 401,-651.05 556,-651.05 556,-615.05 401,-615.05"/>
<text text-anchor="middle" x="478.5" y="-629.35" font-family="Times,serif" font-size="14.00">softened_aromatics</text>
</g>
<!-- softened_aromatics&#45;&gt;dutch_oven_with_drippings -->
<g id="edge13" class="edge">
<title>softened_aromatics&#45;&gt;dutch_oven_with_drippings</title>
<path fill="none" stroke="black" d="M456.84,-651.24C436.29,-667.55 405.22,-692.2 382.33,-710.37"/>
<polygon fill="black" stroke="black" points="379.96,-707.79 374.3,-716.74 384.31,-713.27 379.96,-707.79"/>
</g>
<!-- softened_aromatics&#45;&gt;chopped_onion -->
<g id="edge11" class="edge">
<title>softened_aromatics&#45;&gt;chopped_onion</title>
<path fill="none" stroke="black" d="M552.44,-651.12C628.88,-668.78 748,-696.29 827.84,-714.72"/>
<polygon fill="black" stroke="black" points="827.33,-718.2 837.86,-717.04 828.91,-711.38 827.33,-718.2"/>
</g>
<!-- softened_aromatics&#45;&gt;jalapeno -->
<g id="edge12" class="edge">
<title>softened_aromatics&#45;&gt;jalapeno</title>
<path fill="none" stroke="black" d="M499.47,-651.24C519.37,-667.55 549.45,-692.2 571.62,-710.37"/>
<polygon fill="black" stroke="black" points="569.44,-713.11 579.39,-716.74 573.88,-707.7 569.44,-713.11"/>
</g>
<!-- fragrant_aromatics -->
<g id="node14" class="node">
<title>fragrant_aromatics</title>
<polygon fill="none" stroke="black" points="402,-514.05 402,-550.05 555,-550.05 555,-514.05 402,-514.05"/>
<text text-anchor="middle" x="478.5" y="-528.35" font-family="Times,serif" font-size="14.00">fragrant_aromatics</text>
</g>
<!-- fragrant_aromatics&#45;&gt;softened_aromatics -->
<g id="edge14" class="edge">
<title>fragrant_aromatics&#45;&gt;softened_aromatics</title>
<path fill="none" stroke="black" d="M478.5,-550.29C478.5,-565.34 478.5,-587.43 478.5,-604.86"/>
<polygon fill="black" stroke="black" points="475,-605 478.5,-615 482,-605 475,-605"/>
</g>
<!-- garlic -->
<g id="node15" class="node">
<title>garlic</title>
<polygon fill="none" stroke="black" points="574,-615.05 574,-651.05 631,-651.05 631,-615.05 574,-615.05"/>
<text text-anchor="middle" x="602.5" y="-629.35" font-family="Times,serif" font-size="14.00">garlic</text>
</g>
<!-- fragrant_aromatics&#45;&gt;garlic -->
<g id="edge15" class="edge">
<title>fragrant_aromatics&#45;&gt;garlic</title>
<path fill="none" stroke="black" d="M499.82,-550.06C520.04,-566.21 550.62,-590.62 573.15,-608.61"/>
<polygon fill="black" stroke="black" points="571.05,-611.41 581.05,-614.92 575.42,-605.94 571.05,-611.41"/>
</g>
<!-- fragrant_spices_and_aromatics -->
<g id="node16" class="node">
<title>fragrant_spices_and_aromatics</title>
<polygon fill="none" stroke="black" points="206,-413.05 206,-449.05 443,-449.05 443,-413.05 206,-413.05"/>
<text text-anchor="middle" x="324.5" y="-427.35" font-family="Times,serif" font-size="14.00">fragrant_spices_and_aromatics</text>
</g>
<!-- fragrant_spices_and_aromatics&#45;&gt;fragrant_aromatics -->
<g id="edge16" class="edge">
<title>fragrant_spices_and_aromatics&#45;&gt;fragrant_aromatics</title>
<path fill="none" stroke="black" d="M350.97,-449.06C376.43,-465.43 415.07,-490.27 443.14,-508.32"/>
<polygon fill="black" stroke="black" points="441.55,-511.45 451.86,-513.92 445.34,-505.57 441.55,-511.45"/>
</g>
<!-- chili_powder -->
<g id="node17" class="node">
<title>chili_powder</title>
<polygon fill="none" stroke="black" points="573,-514.05 573,-550.05 680,-550.05 680,-514.05 573,-514.05"/>
<text text-anchor="middle" x="626.5" y="-528.35" font-family="Times,serif" font-size="14.00">chili_powder</text>
</g>
<!-- fragrant_spices_and_aromatics&#45;&gt;chili_powder -->
<g id="edge17" class="edge">
<title>fragrant_spices_and_aromatics&#45;&gt;chili_powder</title>
<path fill="none" stroke="black" d="M376.42,-449.06C428.68,-466.2 509.29,-492.62 564.79,-510.82"/>
<polygon fill="black" stroke="black" points="563.91,-514.21 574.5,-514 566.09,-507.56 563.91,-514.21"/>
</g>
<!-- cumin -->
<g id="node18" class="node">
<title>cumin</title>
<polygon fill="none" stroke="black" points="189.5,-514.05 189.5,-550.05 249.5,-550.05 249.5,-514.05 189.5,-514.05"/>
<text text-anchor="middle" x="219.5" y="-528.35" font-family="Times,serif" font-size="14.00">cumin</text>
</g>
<!-- fragrant_spices_and_aromatics&#45;&gt;cumin -->
<g id="edge18" class="edge">
<title>fragrant_spices_and_aromatics&#45;&gt;cumin</title>
<path fill="none" stroke="black" d="M306.21,-449.29C289.27,-465.26 263.92,-489.17 245,-507.01"/>
<polygon fill="black" stroke="black" points="242.45,-504.59 237.58,-514 247.26,-509.68 242.45,-504.59"/>
</g>
<!-- cocoa_powder -->
<g id="node19" class="node">
<title>cocoa_powder</title>
<polygon fill="none" stroke="black" points="267.5,-514.05 267.5,-550.05 383.5,-550.05 383.5,-514.05 267.5,-514.05"/>
<text text-anchor="middle" x="325.5" y="-528.35" font-family="Times,serif" font-size="14.00">cocoa_powder</text>
</g>
<!-- fragrant_spices_and_aromatics&#45;&gt;cocoa_powder -->
<g id="edge19" class="edge">
<title>fragrant_spices_and_aromatics&#45;&gt;cocoa_powder</title>
<path fill="none" stroke="black" d="M324.67,-449.29C324.83,-464.34 325.05,-486.43 325.23,-503.86"/>
<polygon fill="black" stroke="black" points="321.73,-504.03 325.33,-514 328.73,-503.96 321.73,-504.03"/>
</g>
<!-- boiling_beer_and_fragrant_mixture -->
<g id="node20" class="node">
<title>boiling_beer_and_fragrant_mixture</title>
<polygon fill="none" stroke="black" points="190.5,-311.05 190.5,-347.05 456.5,-347.05 456.5,-311.05 190.5,-311.05"/>
<text text-anchor="middle" x="323.5" y="-325.35" font-family="Times,serif" font-size="14.00">boiling_beer_and_fragrant_mixture</text>
</g>
<!-- boiling_beer_and_fragrant_mixture&#45;&gt;fragrant_spices_and_aromatics -->
<g id="edge20" class="edge">
<title>boiling_beer_and_fragrant_mixture&#45;&gt;fragrant_spices_and_aromatics</title>
<path fill="none" stroke="black" d="M323.67,-347.46C323.83,-362.66 324.05,-384.98 324.23,-402.58"/>
<polygon fill="black" stroke="black" points="320.73,-402.86 324.33,-412.83 327.73,-402.79 320.73,-402.86"/>
</g>
<!-- beer -->
<g id="node21" class="node">
<title>beer</title>
<polygon fill="none" stroke="black" points="461.5,-413.05 461.5,-449.05 515.5,-449.05 515.5,-413.05 461.5,-413.05"/>
<text text-anchor="middle" x="488.5" y="-427.35" font-family="Times,serif" font-size="14.00">beer</text>
</g>
<!-- boiling_beer_and_fragrant_mixture&#45;&gt;beer -->
<g id="edge21" class="edge">
<title>boiling_beer_and_fragrant_mixture&#45;&gt;beer</title>
<path fill="none" stroke="black" d="M351.86,-347.24C379.79,-364.16 422.53,-390.07 452.77,-408.39"/>
<polygon fill="black" stroke="black" points="450.96,-411.39 461.33,-413.58 454.59,-405.4 450.96,-411.39"/>
</g>
<!-- slow_cooking_mixture -->
<g id="node22" class="node">
<title>slow_cooking_mixture</title>
<polygon fill="none" stroke="black" points="646,-210.05 646,-246.05 819,-246.05 819,-210.05 646,-210.05"/>
<text text-anchor="middle" x="732.5" y="-224.35" font-family="Times,serif" font-size="14.00">slow_cooking_mixture</text>
</g>
<!-- slow_cooking_mixture&#45;&gt;salt_and_pepper -->
<g id="edge32" class="edge">
<title>slow_cooking_mixture&#45;&gt;salt_and_pepper</title>
<path fill="none" stroke="black" d="M645.98,-233.21C505.86,-241.27 236.76,-262.63 155.5,-310.55 98.23,-344.32 65.5,-363.56 65.5,-430.05 65.5,-430.05 65.5,-430.05 65.5,-837.05 65.5,-898.67 65.5,-970.98 65.5,-1009.53"/>
<polygon fill="black" stroke="black" points="62,-1009.92 65.5,-1019.92 69,-1009.92 62,-1009.92"/>
</g>
<!-- slow_cooking_mixture&#45;&gt;transfer_chicken -->
<g id="edge22" class="edge">
<title>slow_cooking_mixture&#45;&gt;transfer_chicken</title>
<path fill="none" stroke="black" d="M645.84,-229.87C507.47,-233.08 245.69,-247.56 181.5,-310.55 143.06,-348.26 161.5,-376.2 161.5,-430.05 161.5,-430.05 161.5,-430.05 161.5,-533.05 161.5,-594.98 161.5,-667.65 161.5,-706.4"/>
<polygon fill="black" stroke="black" points="158,-706.84 161.5,-716.84 165,-706.84 158,-706.84"/>
</g>
<!-- slow_cooking_mixture&#45;&gt;boiling_beer_and_fragrant_mixture -->
<g id="edge23" class="edge">
<title>slow_cooking_mixture&#45;&gt;boiling_beer_and_fragrant_mixture</title>
<path fill="none" stroke="black" d="M662.19,-246.06C590.39,-263.44 479.06,-290.39 403.83,-308.6"/>
<polygon fill="black" stroke="black" points="402.81,-305.25 393.92,-311 404.46,-312.05 402.81,-305.25"/>
</g>
<!-- bay_leaves -->
<g id="node23" class="node">
<title>bay_leaves</title>
<polygon fill="none" stroke="black" points="474.5,-311.05 474.5,-347.05 568.5,-347.05 568.5,-311.05 474.5,-311.05"/>
<text text-anchor="middle" x="521.5" y="-325.35" font-family="Times,serif" font-size="14.00">bay_leaves</text>
</g>
<!-- slow_cooking_mixture&#45;&gt;bay_leaves -->
<g id="edge24" class="edge">
<title>slow_cooking_mixture&#45;&gt;bay_leaves</title>
<path fill="none" stroke="black" d="M696.23,-246.06C660.6,-262.78 606.11,-288.35 567.47,-306.48"/>
<polygon fill="black" stroke="black" points="565.57,-303.5 558,-310.92 568.54,-309.84 565.57,-303.5"/>
</g>
<!-- thyme -->
<g id="node24" class="node">
<title>thyme</title>
<polygon fill="none" stroke="black" points="586.5,-311.05 586.5,-347.05 648.5,-347.05 648.5,-311.05 586.5,-311.05"/>
<text text-anchor="middle" x="617.5" y="-325.35" font-family="Times,serif" font-size="14.00">thyme</text>
</g>
<!-- slow_cooking_mixture&#45;&gt;thyme -->
<g id="edge25" class="edge">
<title>slow_cooking_mixture&#45;&gt;thyme</title>
<path fill="none" stroke="black" d="M712.73,-246.06C694.05,-262.14 665.87,-286.41 645,-304.37"/>
<polygon fill="black" stroke="black" points="642.69,-301.74 637.4,-310.92 647.26,-307.05 642.69,-301.74"/>
</g>
<!-- chipotle_pepper -->
<g id="node25" class="node">
<title>chipotle_pepper</title>
<polygon fill="none" stroke="black" points="667,-311.05 667,-347.05 798,-347.05 798,-311.05 667,-311.05"/>
<text text-anchor="middle" x="732.5" y="-325.35" font-family="Times,serif" font-size="14.00">chipotle_pepper</text>
</g>
<!-- slow_cooking_mixture&#45;&gt;chipotle_pepper -->
<g id="edge26" class="edge">
<title>slow_cooking_mixture&#45;&gt;chipotle_pepper</title>
<path fill="none" stroke="black" d="M732.5,-246.29C732.5,-261.34 732.5,-283.43 732.5,-300.86"/>
<polygon fill="black" stroke="black" points="729,-301 732.5,-311 736,-301 729,-301"/>
</g>
<!-- tomatoes -->
<g id="node26" class="node">
<title>tomatoes</title>
<polygon fill="none" stroke="black" points="816,-311.05 816,-347.05 899,-347.05 899,-311.05 816,-311.05"/>
<text text-anchor="middle" x="857.5" y="-325.35" font-family="Times,serif" font-size="14.00">tomatoes</text>
</g>
<!-- slow_cooking_mixture&#45;&gt;tomatoes -->
<g id="edge27" class="edge">
<title>slow_cooking_mixture&#45;&gt;tomatoes</title>
<path fill="none" stroke="black" d="M753.99,-246.06C774.38,-262.21 805.2,-286.62 827.91,-304.61"/>
<polygon fill="black" stroke="black" points="825.86,-307.45 835.87,-310.92 830.21,-301.97 825.86,-307.45"/>
</g>
<!-- tomato_paste -->
<g id="node27" class="node">
<title>tomato_paste</title>
<polygon fill="none" stroke="black" points="917,-311.05 917,-347.05 1030,-347.05 1030,-311.05 917,-311.05"/>
<text text-anchor="middle" x="973.5" y="-325.35" font-family="Times,serif" font-size="14.00">tomato_paste</text>
</g>
<!-- slow_cooking_mixture&#45;&gt;tomato_paste -->
<g id="edge28" class="edge">
<title>slow_cooking_mixture&#45;&gt;tomato_paste</title>
<path fill="none" stroke="black" d="M773.93,-246.06C815.05,-262.96 878.18,-288.89 922.39,-307.05"/>
<polygon fill="black" stroke="black" points="921.22,-310.36 931.8,-310.92 923.88,-303.88 921.22,-310.36"/>
</g>
<!-- vinegar -->
<g id="node28" class="node">
<title>vinegar</title>
<polygon fill="none" stroke="black" points="1048,-311.05 1048,-347.05 1119,-347.05 1119,-311.05 1048,-311.05"/>
<text text-anchor="middle" x="1083.5" y="-325.35" font-family="Times,serif" font-size="14.00">vinegar</text>
</g>
<!-- slow_cooking_mixture&#45;&gt;vinegar -->
<g id="edge29" class="edge">
<title>slow_cooking_mixture&#45;&gt;vinegar</title>
<path fill="none" stroke="black" d="M805.5,-246.08C865.66,-260.66 953.24,-283.17 1038.22,-310.63"/>
<polygon fill="black" stroke="black" points="1037.18,-313.97 1047.77,-313.74 1039.34,-307.31 1037.18,-313.97"/>
</g>
<!-- green_chiles -->
<g id="node29" class="node">
<title>green_chiles</title>
<polygon fill="none" stroke="black" points="1137.5,-311.05 1137.5,-347.05 1243.5,-347.05 1243.5,-311.05 1137.5,-311.05"/>
<text text-anchor="middle" x="1190.5" y="-325.35" font-family="Times,serif" font-size="14.00">green_chiles</text>
</g>
<!-- slow_cooking_mixture&#45;&gt;green_chiles -->
<g id="edge30" class="edge">
<title>slow_cooking_mixture&#45;&gt;green_chiles</title>
<path fill="none" stroke="black" d="M819.03,-244.99C897.25,-259.83 1015.69,-283.37 1127.69,-310.43"/>
<polygon fill="black" stroke="black" points="1126.92,-313.84 1137.47,-312.8 1128.58,-307.04 1126.92,-313.84"/>
</g>
<!-- chicken_stock -->
<g id="node30" class="node">
<title>chicken_stock</title>
<polygon fill="none" stroke="black" points="1262,-311.05 1262,-347.05 1377,-347.05 1377,-311.05 1262,-311.05"/>
<text text-anchor="middle" x="1319.5" y="-325.35" font-family="Times,serif" font-size="14.00">chicken_stock</text>
</g>
<!-- slow_cooking_mixture&#45;&gt;chicken_stock -->
<g id="edge31" class="edge">
<title>slow_cooking_mixture&#45;&gt;chicken_stock</title>
<path fill="none" stroke="black" d="M819.09,-244.95C822.26,-245.5 825.41,-246.03 828.5,-246.55 1013.28,-277.33 1064.09,-272.37 1251.92,-310.54"/>
<polygon fill="black" stroke="black" points="1251.35,-314 1261.85,-312.57 1252.75,-307.14 1251.35,-314"/>
</g>
<!-- soup -->
<g id="node31" class="node">
<title>soup</title>
<polygon fill="none" stroke="black" points="817.5,-109.05 817.5,-145.05 871.5,-145.05 871.5,-109.05 817.5,-109.05"/>
<text text-anchor="middle" x="844.5" y="-123.35" font-family="Times,serif" font-size="14.00">soup</text>
</g>
<!-- soup&#45;&gt;slow_cooking_mixture -->
<g id="edge34" class="edge">
<title>soup&#45;&gt;slow_cooking_mixture</title>
<path fill="none" stroke="black" d="M825.25,-145.06C807.14,-161.07 779.85,-185.2 759.55,-203.13"/>
<polygon fill="black" stroke="black" points="757.05,-200.67 751.88,-209.92 761.69,-205.92 757.05,-200.67"/>
</g>
<!-- discard_bay_leaves_and_thyme -->
<g id="node32" class="node">
<title>discard_bay_leaves_and_thyme</title>
<polygon fill="none" stroke="black" points="837.5,-210.05 837.5,-246.05 1075.5,-246.05 1075.5,-210.05 837.5,-210.05"/>
<text text-anchor="middle" x="956.5" y="-224.35" font-family="Times,serif" font-size="14.00">discard_bay_leaves_and_thyme</text>
</g>
<!-- soup&#45;&gt;discard_bay_leaves_and_thyme -->
<g id="edge33" class="edge">
<title>soup&#45;&gt;discard_bay_leaves_and_thyme</title>
<path fill="none" stroke="black" d="M863.75,-145.06C881.86,-161.07 909.15,-185.2 929.45,-203.13"/>
<polygon fill="black" stroke="black" points="927.31,-205.92 937.12,-209.92 931.95,-200.67 927.31,-205.92"/>
</g>
<!-- garnished_soup -->
<g id="node33" class="node">
<title>garnished_soup</title>
<polygon fill="none" stroke="black" points="831.5,-8.05 831.5,-44.05 959.5,-44.05 959.5,-8.05 831.5,-8.05"/>
<text text-anchor="middle" x="895.5" y="-22.35" font-family="Times,serif" font-size="14.00">garnished_soup</text>
</g>
<!-- garnished_soup&#45;&gt;soup -->
<g id="edge35" class="edge">
<title>garnished_soup&#45;&gt;soup</title>
<path fill="none" stroke="black" d="M886.62,-44.29C878.72,-59.62 867.05,-82.27 858,-99.84"/>
<polygon fill="black" stroke="black" points="854.75,-98.51 853.28,-109 860.97,-101.71 854.75,-98.51"/>
</g>
<!-- tortilla_strips -->
<g id="node34" class="node">
<title>tortilla_strips</title>
<polygon fill="none" stroke="black" points="890,-109.05 890,-145.05 1003,-145.05 1003,-109.05 890,-109.05"/>
<text text-anchor="middle" x="946.5" y="-123.35" font-family="Times,serif" font-size="14.00">tortilla_strips</text>
</g>
<!-- garnished_soup&#45;&gt;tortilla_strips -->
<g id="edge36" class="edge">
<title>garnished_soup&#45;&gt;tortilla_strips</title>
<path fill="none" stroke="black" d="M904.38,-44.29C912.28,-59.62 923.95,-82.27 933,-99.84"/>
<polygon fill="black" stroke="black" points="930.03,-101.71 937.72,-109 936.25,-98.51 930.03,-101.71"/>
</g>
</g>
</svg>
